<svg width="24" height="24" viewBox="0 0 24 24" fill="none" xmlns="http://www.w3.org/2000/svg">
<path d="M16.6186 0H16.7893C16.9263 1.69253 16.2803 2.95719 15.4951 3.87301C14.7247 4.78251 13.6698 5.6646 11.9636 5.53076C11.8497 3.86247 12.4968 2.69161 13.2809 1.77789C14.0081 0.92636 15.3412 0.168621 16.6186 0ZM21.7836 17.6167V17.6641C21.3041 19.1163 20.6201 20.361 19.7855 21.516C19.0235 22.5646 18.0898 23.9758 16.4225 23.9758C14.9819 23.9758 14.025 23.0494 12.5485 23.0241C10.9866 22.9988 10.1277 23.7987 8.6997 24H8.21281C7.1642 23.8482 6.31793 23.0178 5.70141 22.2695C3.88347 20.0585 2.47865 17.2025 2.21729 13.5476V12.4737C2.32794 9.85799 3.59892 7.73126 5.28829 6.70057C6.17987 6.15255 7.40553 5.68568 8.77031 5.89435C9.35521 5.98498 9.95276 6.18522 10.4765 6.38335C10.9729 6.5741 11.5937 6.9124 12.1817 6.89448C12.5801 6.88289 12.9763 6.67527 13.3779 6.52878C14.554 6.10407 15.7069 5.61718 17.2266 5.84587C19.053 6.12199 20.3493 6.93347 21.1502 8.18548C19.6052 9.16875 18.3838 10.6505 18.5925 13.1809C18.778 15.4794 20.1143 16.8241 21.7836 17.6167Z" fill="black"/>
</svg>
