<svg width="24" height="24" viewBox="0 0 24 24" fill="none" xmlns="http://www.w3.org/2000/svg">
<path d="M11.3137 3.12258C11.7759 2.64866 12.3275 2.27121 12.9366 2.01214C13.5458 1.75307 14.2003 1.61753 14.8622 1.61338C15.5241 1.60923 16.1803 1.73656 16.7926 1.98798C17.405 2.2394 17.9613 2.6099 18.4293 3.078C18.8974 3.54609 19.2678 4.10246 19.5191 4.71484C19.7704 5.32721 19.8977 5.98339 19.8934 6.64532C19.8892 7.30724 19.7536 7.96174 19.4944 8.57084C19.2352 9.17994 18.8577 9.73152 18.3837 10.1936L10.6067 17.9716C10.329 18.2539 9.99817 18.4785 9.63324 18.6323C9.26832 18.7861 8.87655 18.8662 8.48053 18.8678C8.08451 18.8695 7.69208 18.7927 7.32588 18.642C6.95968 18.4912 6.62695 18.2694 6.34689 17.9894C6.06683 17.7094 5.84497 17.3768 5.69413 17.0106C5.54328 16.6444 5.46642 16.252 5.46798 15.856C5.46955 15.46 5.54951 15.0682 5.70325 14.7032C5.85699 14.3383 6.08146 14.0074 6.36373 13.7296L14.1417 5.95158L15.5557 7.36558L7.77773 15.1436C7.68222 15.2358 7.60604 15.3462 7.55363 15.4682C7.50122 15.5902 7.47364 15.7214 7.47248 15.8542C7.47133 15.987 7.49663 16.1186 7.54691 16.2415C7.59719 16.3644 7.67144 16.4761 7.76534 16.57C7.85923 16.6639 7.97088 16.7381 8.09378 16.7884C8.21667 16.8387 8.34835 16.864 8.48113 16.8628C8.61391 16.8617 8.74513 16.8341 8.86714 16.7817C8.98914 16.7293 9.09949 16.6531 9.19173 16.5576L16.9707 8.77958C17.2493 8.50098 17.4703 8.17024 17.6211 7.80623C17.7719 7.44222 17.8495 7.05208 17.8495 6.65808C17.8495 6.26408 17.7719 5.87394 17.6211 5.50993C17.4703 5.14593 17.2493 4.81518 16.9707 4.53658C16.6921 4.25798 16.3614 4.03699 15.9974 3.88621C15.6334 3.73543 15.2432 3.65783 14.8492 3.65783C14.4552 3.65783 14.0651 3.73543 13.7011 3.88621C13.3371 4.03699 13.0063 4.25798 12.7277 4.53658L4.94973 12.3156C4.03894 13.2586 3.53497 14.5216 3.54636 15.8326C3.55775 17.1436 4.0836 18.3976 5.01064 19.3247C5.93768 20.2517 7.19174 20.7776 8.50273 20.789C9.81371 20.8003 11.0767 20.2964 12.0197 19.3856L20.5057 10.9006L21.9197 12.3156L13.4347 20.8006C12.1219 22.1134 10.3413 22.8509 8.48473 22.8509C6.62812 22.8509 4.84755 22.1134 3.53473 20.8006C2.22191 19.4878 1.48438 17.7072 1.48438 15.8506C1.48437 13.994 2.22191 12.2134 3.53473 10.9006L11.3137 3.12258Z" fill="#2F2F2F"/>
</svg>
