<svg width="24" height="24" viewBox="0 0 24 24" fill="none" xmlns="http://www.w3.org/2000/svg">
<path d="M18.4386 5.94276H17.7399V5.0298C17.7399 4.75668 17.6314 4.49474 17.4383 4.30162C17.2452 4.1085 16.9832 4 16.7101 4C16.437 4 16.1751 4.1085 15.9819 4.30162C15.7888 4.49474 15.6803 4.75668 15.6803 5.0298V5.94276H13.0539V5.0298C13.0539 4.89456 13.0272 4.76065 12.9755 4.63571C12.9237 4.51077 12.8479 4.39725 12.7522 4.30162C12.6566 4.20599 12.5431 4.13014 12.4182 4.07839C12.2932 4.02664 12.1593 4 12.0241 4C11.8888 4 11.7549 4.02664 11.63 4.07839C11.505 4.13014 11.3915 4.20599 11.2959 4.30162C11.2003 4.39725 11.1244 4.51077 11.0727 4.63571C11.0209 4.76065 10.9943 4.89456 10.9943 5.0298V5.94276H8.36783V5.0298C8.36783 4.75668 8.25933 4.49474 8.06621 4.30162C7.87308 4.1085 7.61115 4 7.33803 4C7.06491 4 6.80298 4.1085 6.60986 4.30162C6.41673 4.49474 6.30824 4.75668 6.30824 5.0298V5.94276H5.56143C5.14595 5.94477 4.74824 6.1115 4.45552 6.40636C4.16281 6.70123 3.99899 7.10015 4 7.51563V18.8666C3.99899 19.2821 4.16285 19.6811 4.45563 19.9759C4.7484 20.2708 5.14619 20.4375 5.56172 20.4394H18.4386C18.854 20.4374 19.2518 20.2707 19.5445 19.9758C19.8372 19.681 20.001 19.2821 20 18.8666V7.51563C20.001 7.1001 19.8372 6.70113 19.5444 6.40626C19.2516 6.11139 18.8541 5.9447 18.4386 5.94276ZM16.2674 5.0298C16.2674 4.91239 16.3141 4.79979 16.3971 4.71677C16.4801 4.63375 16.5927 4.58711 16.7101 4.58711C16.8275 4.58711 16.9401 4.63375 17.0231 4.71677C17.1062 4.79979 17.1528 4.91239 17.1528 5.0298V5.94276H16.2674V5.0298ZM11.5814 5.0298C11.5814 4.91239 11.628 4.79979 11.711 4.71677C11.7941 4.63375 11.9067 4.58711 12.0241 4.58711C12.1415 4.58711 12.2541 4.63375 12.3371 4.71677C12.4201 4.79979 12.4668 4.91239 12.4668 5.0298V5.94276H11.5814V5.0298ZM6.89535 5.0298C6.89535 4.91239 6.94199 4.79979 7.02501 4.71677C7.10803 4.63375 7.22063 4.58711 7.33803 4.58711C7.45544 4.58711 7.56804 4.63375 7.65106 4.71677C7.73408 4.79979 7.78072 4.91239 7.78072 5.0298V5.94276H6.89506L6.89535 5.0298ZM5.56143 6.52987H6.30824V7.09761C6.30937 7.26146 6.34938 7.4227 6.42498 7.56806C6.50059 7.71343 6.60962 7.83878 6.74312 7.93378C6.87662 8.02879 7.03076 8.09075 7.19288 8.11456C7.35499 8.13837 7.52044 8.12335 7.67562 8.07074C7.71205 8.05812 7.74564 8.03844 7.77447 8.01284C7.80329 7.98723 7.82679 7.9562 7.84362 7.92151C7.86046 7.88682 7.87029 7.84916 7.87257 7.81067C7.87485 7.77218 7.86952 7.73362 7.85689 7.69719C7.84427 7.66076 7.82459 7.62718 7.79899 7.59835C7.77338 7.56953 7.74235 7.54603 7.70766 7.52919C7.67297 7.51236 7.63531 7.50253 7.59682 7.50025C7.55833 7.49797 7.51977 7.5033 7.48334 7.51592C7.41663 7.53849 7.34551 7.54491 7.27583 7.53466C7.20615 7.5244 7.1399 7.49777 7.08251 7.45694C7.02512 7.41611 6.97823 7.36225 6.9457 7.29979C6.91316 7.23732 6.89591 7.16803 6.89535 7.09761V6.52987H10.9943V7.09761C10.9946 7.37063 11.1032 7.63238 11.2962 7.82544C11.4893 8.01849 11.751 8.12709 12.0241 8.1274C12.2768 8.14002 12.647 8.01526 12.5431 7.69734C12.5304 7.6609 12.5108 7.62731 12.4851 7.59849C12.4595 7.56966 12.4285 7.54617 12.3938 7.52935C12.3591 7.51253 12.3214 7.50271 12.2829 7.50046C12.2444 7.49821 12.2058 7.50356 12.1694 7.51622C12.1026 7.53879 12.0315 7.54521 11.9618 7.53494C11.8921 7.52467 11.8258 7.49801 11.7684 7.45715C11.711 7.41629 11.6642 7.36239 11.6316 7.29989C11.5991 7.23738 11.5819 7.16806 11.5814 7.09761V6.52987H15.6803V7.09761C15.6815 7.26142 15.7215 7.42262 15.7971 7.56796C15.8726 7.7133 15.9817 7.83862 16.1151 7.93362C16.2486 8.02862 16.4027 8.09059 16.5648 8.11443C16.7268 8.13827 16.8922 8.12329 17.0474 8.07074C17.1205 8.0449 17.1804 7.99121 17.214 7.92137C17.2476 7.85154 17.2523 7.77124 17.2269 7.69799C17.2016 7.62474 17.1483 7.56449 17.0787 7.53038C17.0091 7.49627 16.9288 7.49107 16.8554 7.51592C16.7887 7.53856 16.7176 7.54503 16.6479 7.5348C16.5782 7.52458 16.5119 7.49795 16.4545 7.45711C16.3971 7.41627 16.3502 7.36238 16.3177 7.29988C16.2851 7.23738 16.2679 7.16806 16.2674 7.09761V6.52987H18.4386C18.6984 6.53173 18.9469 6.63655 19.1295 6.82134C19.3121 7.00613 19.4141 7.25581 19.4129 7.51563V8.99369C19.3696 8.96682 19.32 8.95202 19.269 8.95083L4.58712 8.96609V7.51592C4.58579 7.25595 4.68767 7.00608 4.87039 6.82115C5.05312 6.63623 5.30176 6.53136 5.56172 6.52957L5.56143 6.52987ZM18.4386 19.8523H5.56143C5.30162 19.8505 5.05314 19.7456 4.8705 19.5609C4.68785 19.3761 4.58594 19.1264 4.58712 18.8666V9.5532L19.2696 9.53794C19.3203 9.53663 19.3698 9.52183 19.4129 9.49508V18.8666C19.4141 19.1264 19.3121 19.3762 19.1294 19.561C18.9467 19.7458 18.6984 19.8505 18.4386 19.8523Z" fill="black"/>
<path d="M8.49618 10.9004H6.60215C6.52429 10.9004 6.44963 10.9313 6.39457 10.9864C6.33952 11.0414 6.30859 11.1161 6.30859 11.1939V12.9048C6.30859 12.9826 6.33952 13.0573 6.39457 13.1124C6.44963 13.1674 6.52429 13.1983 6.60215 13.1983H8.49618C8.57403 13.1983 8.6487 13.1674 8.70375 13.1124C8.7588 13.0573 8.78973 12.9826 8.78973 12.9048V11.1939C8.78973 11.1161 8.7588 11.0414 8.70375 10.9864C8.6487 10.9313 8.57403 10.9004 8.49618 10.9004ZM8.20262 12.6112H6.89571V11.4875H8.20262V12.6112ZM12.6617 10.9004H10.7674C10.6896 10.9004 10.6149 10.9313 10.5598 10.9864C10.5048 11.0414 10.4739 11.1161 10.4739 11.1939V12.9048C10.4739 12.9826 10.5048 13.0573 10.5598 13.1124C10.6149 13.1674 10.6896 13.1983 10.7674 13.1983H12.6614C12.7393 13.1983 12.814 13.1674 12.869 13.1124C12.9241 13.0573 12.955 12.9826 12.955 12.9048V11.1939C12.955 11.1161 12.9241 11.0414 12.869 10.9864C12.814 10.9313 12.7396 10.9004 12.6617 10.9004ZM12.3682 12.6112H11.061V11.4875H12.3679L12.3682 12.6112ZM16.827 10.9004H14.933C14.8551 10.9004 14.7805 10.9313 14.7254 10.9864C14.6704 11.0414 14.6394 11.1161 14.6394 11.1939V12.9048C14.6394 12.9826 14.6704 13.0573 14.7254 13.1124C14.7805 13.1674 14.8551 13.1983 14.933 13.1983H16.8273C16.9052 13.1983 16.9798 13.1674 17.0349 13.1124C17.0899 13.0573 17.1209 12.9826 17.1209 12.9048V11.1939C17.1209 11.1161 17.0899 11.0414 17.0349 10.9864C16.9798 10.9313 16.9049 10.9004 16.827 10.9004ZM16.5335 12.6112H15.2265V11.4875H16.5337L16.5335 12.6112ZM8.49618 15.0657H6.60215C6.52429 15.0657 6.44963 15.0966 6.39457 15.1516C6.33952 15.2067 6.30859 15.2814 6.30859 15.3592V17.0701C6.30859 17.1479 6.33952 17.2226 6.39457 17.2776C6.44963 17.3327 6.52429 17.3636 6.60215 17.3636H8.49618C8.57403 17.3636 8.6487 17.3327 8.70375 17.2776C8.7588 17.2226 8.78973 17.1479 8.78973 17.0701V15.3592C8.78973 15.2814 8.7588 15.2067 8.70375 15.1516C8.6487 15.0966 8.57403 15.0657 8.49618 15.0657ZM8.20262 16.7765H6.89571V15.6528H8.20262V16.7765ZM12.6617 15.0657H10.7674C10.6896 15.0657 10.6149 15.0966 10.5598 15.1516C10.5048 15.2067 10.4739 15.2814 10.4739 15.3592V17.0701C10.4739 17.1479 10.5048 17.2226 10.5598 17.2776C10.6149 17.3327 10.6896 17.3636 10.7674 17.3636H12.6614C12.7393 17.3636 12.814 17.3327 12.869 17.2776C12.9241 17.2226 12.955 17.1479 12.955 17.0701V15.3592C12.955 15.2814 12.9241 15.2067 12.869 15.1516C12.814 15.0966 12.7396 15.0657 12.6617 15.0657ZM12.3682 16.7765H11.061V15.6528H12.3679L12.3682 16.7765ZM16.827 15.0657H14.933C14.8551 15.0657 14.7805 15.0966 14.7254 15.1516C14.6704 15.2067 14.6394 15.2814 14.6394 15.3592V17.0701C14.6394 17.1479 14.6704 17.2226 14.7254 17.2776C14.7805 17.3327 14.8551 17.3636 14.933 17.3636H16.8273C16.9052 17.3636 16.9798 17.3327 17.0349 17.2776C17.0899 17.2226 17.1209 17.1479 17.1209 17.0701V15.3592C17.1209 15.2814 17.0899 15.2067 17.0349 15.1516C16.9798 15.0966 16.9049 15.0657 16.827 15.0657ZM16.5335 16.7765H15.2265V15.6528H16.5337L16.5335 16.7765Z" fill="black"/>
</svg>
