<svg width="16" height="16" viewBox="0 0 16 16" fill="none" xmlns="http://www.w3.org/2000/svg">
<path d="M12 2.83333H11.1667V2C11.1667 1.86739 11.114 1.74021 11.0202 1.64645C10.9265 1.55268 10.7993 1.5 10.6667 1.5C10.5341 1.5 10.4069 1.55268 10.3131 1.64645C10.2193 1.74021 10.1667 1.86739 10.1667 2V2.83333H5.83333V2C5.83333 1.86739 5.78065 1.74021 5.68689 1.64645C5.59312 1.55268 5.46594 1.5 5.33333 1.5C5.20073 1.5 5.07355 1.55268 4.97978 1.64645C4.88601 1.74021 4.83333 1.86739 4.83333 2V2.83333H4C3.33718 2.83404 2.7017 3.09766 2.23301 3.56635C1.76432 4.03503 1.50071 4.67051 1.5 5.33333V12C1.50071 12.6628 1.76432 13.2983 2.23301 13.767C2.7017 14.2357 3.33718 14.4993 4 14.5H12C12.6628 14.4993 13.2983 14.2357 13.767 13.767C14.2357 13.2983 14.4993 12.6628 14.5 12V5.33333C14.4993 4.67051 14.2357 4.03503 13.767 3.56635C13.2983 3.09766 12.6628 2.83404 12 2.83333ZM13.5 12C13.5 12.8267 12.8267 13.5 12 13.5H4C3.17333 13.5 2.5 12.8267 2.5 12V7.83333H13.5V12ZM13.5 6.83333H2.5V5.33333C2.5 4.50667 3.17333 3.83333 4 3.83333H4.83333V4.66667C4.83333 4.79927 4.88601 4.92645 4.97978 5.02022C5.07355 5.11399 5.20073 5.16667 5.33333 5.16667C5.46594 5.16667 5.59312 5.11399 5.68689 5.02022C5.78065 4.92645 5.83333 4.79927 5.83333 4.66667V3.83333H10.1667V4.66667C10.1667 4.79927 10.2193 4.92645 10.3131 5.02022C10.4069 5.11399 10.5341 5.16667 10.6667 5.16667C10.7993 5.16667 10.9265 5.11399 11.0202 5.02022C11.114 4.92645 11.1667 4.79927 11.1667 4.66667V3.83333H12C12.8267 3.83333 13.5 4.50667 13.5 5.33333V6.83333ZM3.33333 9.66667V9C3.33333 8.91159 3.36845 8.82681 3.43096 8.7643C3.49348 8.70179 3.57826 8.66667 3.66667 8.66667H4.33333C4.42174 8.66667 4.50652 8.70179 4.56904 8.7643C4.63155 8.82681 4.66667 8.91159 4.66667 9V9.66667C4.66667 9.75507 4.63155 9.83986 4.56904 9.90237C4.50652 9.96488 4.42174 10 4.33333 10H3.66667C3.57826 10 3.49348 9.96488 3.43096 9.90237C3.36845 9.83986 3.33333 9.75507 3.33333 9.66667Z" fill="#FF8F27"/>
</svg>
