<svg width="10" height="10" viewBox="0 0 10 10" fill="none" xmlns="http://www.w3.org/2000/svg">
<path d="M2.93909 1.00801L3.42534 0.861441C3.97638 0.695341 4.56511 0.963771 4.80111 1.4887L5.17682 2.32442C5.37795 2.77185 5.27195 3.29768 4.9132 3.63225L4.29057 4.21287C4.27236 4.22982 4.26082 4.25274 4.25807 4.27749C4.23957 4.44295 4.35178 4.7652 4.6102 5.21282C4.79816 5.53837 4.96824 5.76662 5.11303 5.89503C5.21391 5.98449 5.26945 6.00383 5.29307 5.99678L6.13074 5.7407C6.59974 5.59732 7.10799 5.76828 7.39495 6.16599L7.92857 6.90557C8.26445 7.37107 8.20403 8.01328 7.78728 8.40799L7.41795 8.75774C7.01945 9.13516 6.45211 9.27578 5.92349 9.12824C4.77595 8.80795 3.74706 7.83953 2.82545 6.24328C1.90256 4.64478 1.57873 3.26792 1.87725 2.113C2.01386 1.58447 2.41641 1.16556 2.93909 1.00801ZM3.11946 1.60641C2.80586 1.70094 2.56433 1.95229 2.48236 2.26941C2.23126 3.24087 2.51828 4.46124 3.36672 5.93078C4.21403 7.39832 5.12607 8.25678 6.09149 8.52624C6.4087 8.61478 6.74907 8.53041 6.9882 8.30395L7.35749 7.9542C7.54695 7.77478 7.57441 7.48287 7.42174 7.27128L6.88811 6.5317C6.75766 6.35095 6.52661 6.2732 6.31345 6.33841L5.47374 6.59512C4.98636 6.74041 4.54399 6.34812 4.06895 5.52532C3.74882 4.97087 3.59961 4.54224 3.63693 4.20812C3.65627 4.035 3.73692 3.87454 3.86431 3.75575L4.48695 3.17515C4.65003 3.02307 4.6982 2.78406 4.60678 2.58068L4.23107 1.74497C4.12381 1.50636 3.85619 1.38435 3.60571 1.45985L3.11946 1.60641Z" fill="#212121"/>
</svg>
