<svg width="254" height="165" viewBox="0 0 254 165" fill="none" xmlns="http://www.w3.org/2000/svg">
<path d="M75.601 43.7437H26.1172V9.89355H75.601V43.7437ZM26.5079 43.353H75.2102V10.2843H26.5079V43.353Z" fill="#EBEBEB"/>
<path d="M29.9855 12.0735C29.9855 12.2683 29.9277 12.4587 29.8195 12.6206C29.7113 12.7825 29.5575 12.9087 29.3776 12.9833C29.1977 13.0578 28.9997 13.0773 28.8087 13.0393C28.6177 13.0013 28.4422 12.9075 28.3045 12.7698C28.1668 12.6321 28.073 12.4567 28.035 12.2656C27.997 12.0746 28.0165 11.8766 28.0911 11.6967C28.1656 11.5168 28.2918 11.363 28.4537 11.2548C28.6157 11.1466 28.806 11.0889 29.0008 11.0889C29.2619 11.0889 29.5124 11.1926 29.6971 11.3773C29.8817 11.5619 29.9855 11.8124 29.9855 12.0735Z" fill="#A6A6A6"/>
<path d="M34.0065 12.0735C34.0065 12.2683 33.9487 12.4587 33.8405 12.6206C33.7323 12.7825 33.5785 12.9087 33.3986 12.9833C33.2187 13.0578 33.0207 13.0773 32.8297 13.0393C32.6387 13.0013 32.4632 12.9075 32.3255 12.7698C32.1878 12.6321 32.094 12.4567 32.056 12.2656C32.018 12.0746 32.0375 11.8766 32.1121 11.6967C32.1866 11.5168 32.3128 11.363 32.4747 11.2548C32.6367 11.1466 32.827 11.0889 33.0218 11.0889C33.2829 11.0889 33.5334 11.1926 33.7181 11.3773C33.9027 11.5619 34.0065 11.8124 34.0065 12.0735Z" fill="#EBEBEB"/>
<path d="M38.0309 12.0735C38.0316 12.2694 37.9742 12.4611 37.8659 12.6242C37.7576 12.7874 37.6032 12.9147 37.4224 12.99C37.2416 13.0653 37.0425 13.0852 36.8504 13.0472C36.6583 13.0092 36.4817 12.915 36.3433 12.7765C36.2048 12.638 36.1105 12.4615 36.0725 12.2694C36.0345 12.0772 36.0544 11.8781 36.1297 11.6973C36.205 11.5165 36.3323 11.3622 36.4955 11.2539C36.6587 11.1455 36.8503 11.0881 37.0462 11.0889C37.3073 11.0889 37.5578 11.1926 37.7425 11.3773C37.9271 11.5619 38.0309 11.8124 38.0309 12.0735Z" fill="#0660A0"/>
<path d="M75.4056 13.8047H26.3125V14.1954H75.4056V13.8047Z" fill="#EBEBEB"/>
<path d="M237.49 122.807H237.099V73.6394L247.544 59.3851V32.748H247.934V59.514L237.49 73.7683V122.807Z" fill="#EBEBEB"/>
<path d="M247.739 32.9587C247.517 32.9587 247.299 32.8927 247.114 32.769C246.929 32.6454 246.785 32.4696 246.699 32.264C246.614 32.0584 246.592 31.8321 246.635 31.6138C246.679 31.3955 246.786 31.195 246.943 31.0376C247.101 30.8802 247.301 30.7731 247.52 30.7296C247.738 30.6862 247.964 30.7085 248.17 30.7937C248.375 30.8788 248.551 31.0231 248.675 31.2081C248.798 31.3932 248.864 31.6108 248.864 31.8334C248.864 32.1318 248.746 32.418 248.535 32.6291C248.324 32.8401 248.038 32.9587 247.739 32.9587ZM247.739 31.1027C247.594 31.1027 247.451 31.1458 247.331 31.2267C247.21 31.3076 247.116 31.4226 247.06 31.557C247.005 31.6915 246.99 31.8394 247.019 31.982C247.048 32.1246 247.118 32.2555 247.221 32.3581C247.324 32.4607 247.455 32.5303 247.598 32.5582C247.741 32.5861 247.889 32.571 248.023 32.5148C248.157 32.4586 248.272 32.3638 248.352 32.2425C248.432 32.1212 248.474 31.9788 248.474 31.8334C248.469 31.6423 248.389 31.4608 248.252 31.3279C248.114 31.1949 247.93 31.1211 247.739 31.1222V31.1027Z" fill="#EBEBEB"/>
<path d="M240.182 122.807H239.792V75.3625L250.236 61.1082V42.5127H250.627V61.2332L240.182 75.4915V122.807Z" fill="#EBEBEB"/>
<path d="M250.431 42.7282C250.209 42.729 249.991 42.6636 249.805 42.5405C249.62 42.4173 249.475 42.2418 249.389 42.0362C249.303 41.8307 249.28 41.6043 249.323 41.3857C249.366 41.1672 249.473 40.9663 249.63 40.8085C249.788 40.6508 249.988 40.5432 250.207 40.4995C250.425 40.4557 250.651 40.4778 250.857 40.5628C251.063 40.6479 251.239 40.7921 251.363 40.9773C251.487 41.1624 251.553 41.3801 251.553 41.6029C251.553 41.9007 251.435 42.1863 251.225 42.3972C251.015 42.6082 250.729 42.7272 250.431 42.7282ZM250.431 40.8683C250.286 40.8675 250.144 40.9099 250.022 40.9902C249.901 41.0704 249.806 41.1849 249.75 41.319C249.694 41.4532 249.679 41.601 249.707 41.7438C249.735 41.8865 249.804 42.0178 249.907 42.1209C250.009 42.224 250.14 42.2944 250.283 42.3231C250.425 42.3517 250.573 42.3374 250.708 42.2819C250.842 42.2264 250.957 42.1323 251.038 42.0114C251.119 41.8905 251.162 41.7483 251.162 41.6029C251.162 41.4087 251.085 41.2225 250.948 41.0848C250.811 40.9472 250.626 40.8693 250.431 40.8683Z" fill="#EBEBEB"/>
<path d="M234.9 57.7832H234.509V122.807H234.9V57.7832Z" fill="#EBEBEB"/>
<path d="M234.704 57.9782C234.481 57.979 234.263 57.9136 234.078 57.7905C233.892 57.6673 233.747 57.4918 233.661 57.2862C233.576 57.0807 233.553 56.8543 233.596 56.6357C233.639 56.4172 233.746 56.2163 233.903 56.0585C234.06 55.9008 234.261 55.7932 234.479 55.7495C234.697 55.7057 234.924 55.7278 235.13 55.8128C235.336 55.8979 235.512 56.0421 235.635 56.2273C235.759 56.4124 235.825 56.6301 235.825 56.8529C235.825 57.1507 235.707 57.4363 235.497 57.6472C235.287 57.8582 235.002 57.9772 234.704 57.9782ZM234.704 56.1222C234.558 56.1214 234.416 56.1639 234.294 56.2444C234.173 56.3248 234.078 56.4395 234.022 56.5739C233.966 56.7082 233.951 56.8563 233.979 56.9991C234.008 57.142 234.078 57.2732 234.181 57.3762C234.284 57.4792 234.415 57.5492 234.558 57.5774C234.701 57.6057 234.849 57.5908 234.983 57.5347C235.117 57.4786 235.232 57.3839 235.312 57.2625C235.393 57.1411 235.435 56.9985 235.435 56.8529C235.432 56.6608 235.353 56.4775 235.217 56.3424C235.08 56.2072 234.896 56.131 234.704 56.13V56.1222Z" fill="#EBEBEB"/>
<path d="M232.403 122.807H232.012V89.8083L224.924 76.4331V52.4062H225.315V76.3354L232.403 89.7106V122.807Z" fill="#EBEBEB"/>
<path d="M225.115 52.614C224.893 52.614 224.675 52.548 224.49 52.4243C224.305 52.3007 224.161 52.1249 224.075 51.9193C223.99 51.7136 223.968 51.4874 224.011 51.2691C224.055 51.0508 224.162 50.8503 224.319 50.6929C224.477 50.5355 224.677 50.4283 224.896 50.3849C225.114 50.3415 225.34 50.3638 225.546 50.4489C225.751 50.5341 225.927 50.6784 226.051 50.8634C226.174 51.0485 226.24 51.2661 226.24 51.4886C226.24 51.7871 226.122 52.0733 225.911 52.2844C225.7 52.4954 225.414 52.614 225.115 52.614ZM225.115 50.7579C224.97 50.7579 224.827 50.8011 224.707 50.882C224.586 50.9629 224.492 51.0779 224.436 51.2123C224.381 51.3468 224.366 51.4947 224.395 51.6373C224.424 51.7799 224.494 51.9108 224.597 52.0134C224.7 52.1159 224.831 52.1856 224.974 52.2135C225.117 52.2414 225.265 52.2263 225.399 52.1701C225.533 52.1139 225.648 52.0191 225.728 51.8978C225.808 51.7765 225.85 51.6341 225.85 51.4886C225.851 51.3914 225.833 51.2948 225.797 51.2045C225.761 51.1142 225.707 51.0321 225.639 50.963C225.57 50.8938 225.489 50.839 225.399 50.8018C225.309 50.7646 225.212 50.7457 225.115 50.7462V50.7579Z" fill="#EBEBEB"/>
<path d="M229.921 122.807H229.53V91.2388L221.172 76.4531V60.6084H221.563V76.3515L229.921 91.1372V122.807Z" fill="#EBEBEB"/>
<path d="M221.368 60.819C221.145 60.8198 220.927 60.7544 220.741 60.631C220.556 60.5077 220.411 60.3319 220.325 60.1262C220.24 59.9204 220.217 59.6938 220.26 59.4751C220.303 59.2565 220.411 59.0556 220.568 58.898C220.726 58.7403 220.927 58.6331 221.146 58.5898C221.364 58.5465 221.591 58.5691 221.797 58.6548C222.002 58.7404 222.178 58.8853 222.301 59.0709C222.425 59.2566 222.49 59.4747 222.489 59.6976C222.488 59.9947 222.37 60.2793 222.16 60.4894C221.95 60.6995 221.665 60.818 221.368 60.819ZM221.368 58.963C221.223 58.9622 221.08 59.0047 220.959 59.0849C220.838 59.1651 220.743 59.2796 220.687 59.4138C220.63 59.5479 220.615 59.6957 220.643 59.8385C220.671 59.9813 220.741 60.1125 220.843 60.2156C220.946 60.3188 221.077 60.3891 221.219 60.4178C221.362 60.4465 221.51 60.4321 221.644 60.3766C221.779 60.3212 221.894 60.227 221.975 60.1061C222.056 59.9852 222.099 59.8431 222.099 59.6976C222.101 59.6002 222.083 59.5033 222.048 59.4126C222.012 59.3219 221.959 59.2392 221.891 59.1694C221.823 59.0996 221.741 59.044 221.652 59.0059C221.562 58.9678 221.465 58.9479 221.368 58.9474V58.963Z" fill="#EBEBEB"/>
<path d="M17.7318 122.807H17.3411V97.213L6.89648 82.9587V67.915H7.28723V82.8297L17.7318 97.0841V122.807Z" fill="#EBEBEB"/>
<path d="M7.09165 68.1257C6.86892 68.1265 6.65096 68.0611 6.46538 67.9379C6.27981 67.8147 6.13496 67.6393 6.04919 67.4337C5.96342 67.2281 5.94057 67.0018 5.98355 66.7832C6.02653 66.5646 6.1334 66.3638 6.29062 66.206C6.44785 66.0482 6.64836 65.9407 6.86676 65.8969C7.08516 65.8532 7.31163 65.8752 7.51749 65.9603C7.72334 66.0453 7.89933 66.1896 8.02316 66.3747C8.14699 66.5599 8.21308 66.7776 8.21309 67.0003C8.21309 67.2981 8.09506 67.5838 7.88487 67.7947C7.67467 68.0056 7.38943 68.1246 7.09165 68.1257ZM7.09165 66.2696C6.94603 66.2689 6.80347 66.3114 6.68207 66.3918C6.56067 66.4722 6.46591 66.5869 6.40982 66.7213C6.35374 66.8557 6.33886 67.0037 6.36708 67.1466C6.3953 67.2894 6.46534 67.4207 6.56831 67.5237C6.67128 67.6266 6.80254 67.6967 6.9454 67.7249C7.08826 67.7531 7.23628 67.7383 7.37067 67.6822C7.50506 67.6261 7.61975 67.5313 7.70017 67.4099C7.78059 67.2885 7.82311 67.146 7.82234 67.0003C7.81628 66.8103 7.73675 66.63 7.60047 66.4973C7.4642 66.3647 7.28181 66.2901 7.09165 66.2892V66.2696Z" fill="#EBEBEB"/>
<path d="M15.0394 122.807H14.6487V98.9362L4.2041 84.6779V77.6797H4.59485V84.5529L15.0394 98.8072V122.807Z" fill="#EBEBEB"/>
<path d="M4.40757 77.8942C4.185 77.8942 3.96743 77.8282 3.78236 77.7046C3.5973 77.5809 3.45306 77.4052 3.36789 77.1996C3.28271 76.9939 3.26043 76.7676 3.30385 76.5494C3.34727 76.3311 3.45445 76.1305 3.61183 75.9732C3.76921 75.8158 3.96973 75.7086 4.18803 75.6652C4.40632 75.6218 4.63259 75.644 4.83822 75.7292C5.04385 75.8144 5.2196 75.9586 5.34326 76.1437C5.46691 76.3288 5.53291 76.5463 5.53291 76.7689C5.53291 77.0674 5.41435 77.3536 5.20331 77.5646C4.99226 77.7757 4.70603 77.8942 4.40757 77.8942ZM4.40757 76.0343C4.26228 76.0343 4.12025 76.0774 3.99945 76.1581C3.87864 76.2388 3.78449 76.3536 3.72889 76.4878C3.67329 76.622 3.65874 76.7697 3.68709 76.9122C3.71543 77.0547 3.78539 77.1856 3.88813 77.2883C3.99087 77.3911 4.12176 77.461 4.26426 77.4894C4.40675 77.5177 4.55446 77.5032 4.68869 77.4476C4.82292 77.392 4.93765 77.2978 5.01837 77.177C5.09908 77.0562 5.14217 76.9142 5.14217 76.7689C5.14217 76.5741 5.06477 76.3872 4.92701 76.2495C4.78925 76.1117 4.6024 76.0343 4.40757 76.0343Z" fill="#EBEBEB"/>
<path d="M20.3224 81.2275H19.9316V122.807H20.3224V81.2275Z" fill="#EBEBEB"/>
<path d="M20.1268 81.4235C19.9042 81.4235 19.6867 81.3575 19.5016 81.2339C19.3165 81.1102 19.1723 80.9345 19.0871 80.7288C19.002 80.5232 18.9797 80.2969 19.0231 80.0787C19.0665 79.8604 19.1737 79.6598 19.3311 79.5025C19.4885 79.3451 19.689 79.2379 19.9073 79.1945C20.1256 79.1511 20.3518 79.1733 20.5575 79.2585C20.7631 79.3437 20.9388 79.4879 21.0625 79.673C21.1861 79.858 21.2521 80.0756 21.2521 80.2982C21.2521 80.5967 21.1336 80.8829 20.9225 81.0939C20.7115 81.305 20.4253 81.4235 20.1268 81.4235ZM20.1268 79.5675C19.9814 79.5675 19.8392 79.6107 19.7183 79.6916C19.5974 79.7725 19.5032 79.8874 19.4478 80.0219C19.3923 80.1563 19.378 80.3043 19.4066 80.4469C19.4353 80.5895 19.5056 80.7203 19.6088 80.8229C19.7119 80.9255 19.8431 80.9952 19.9859 81.0231C20.1287 81.051 20.2765 81.0359 20.4106 80.9797C20.5448 80.9235 20.6593 80.8287 20.7395 80.7074C20.8198 80.5861 20.8622 80.4436 20.8614 80.2982C20.8593 80.1051 20.7809 79.9206 20.6433 79.7852C20.5056 79.6497 20.3199 79.5743 20.1268 79.5753V79.5675Z" fill="#EBEBEB"/>
<path d="M22.8195 122.807H22.4287V101.433L22.4482 101.39L29.5168 88.0581V64.1289H29.9075V88.1557L29.888 88.1987L22.8195 101.531V122.807Z" fill="#EBEBEB"/>
<path d="M29.7118 64.3356C29.4892 64.3356 29.2716 64.2696 29.0866 64.146C28.9015 64.0223 28.7573 63.8466 28.6721 63.641C28.5869 63.4353 28.5646 63.2091 28.608 62.9908C28.6515 62.7725 28.7586 62.5719 28.916 62.4146C29.0734 62.2572 29.2739 62.15 29.4922 62.1066C29.7105 62.0632 29.9368 62.0855 30.1424 62.1706C30.348 62.2558 30.5238 62.4 30.6475 62.5851C30.7711 62.7702 30.8371 62.9877 30.8371 63.2103C30.8371 63.5088 30.7185 63.795 30.5075 64.006C30.2965 64.2171 30.0102 64.3356 29.7118 64.3356ZM29.7118 62.4796C29.5663 62.4796 29.4241 62.5228 29.3032 62.6037C29.1824 62.6846 29.0882 62.7995 29.0327 62.934C28.9772 63.0685 28.9629 63.2164 28.9916 63.359C29.0202 63.5016 29.0906 63.6325 29.1937 63.735C29.2969 63.8376 29.4281 63.9073 29.5709 63.9352C29.7136 63.9631 29.8614 63.948 29.9956 63.8918C30.1298 63.8356 30.2442 63.7408 30.3245 63.6195C30.4047 63.4982 30.4471 63.3558 30.4464 63.2103C30.4479 63.113 30.4301 63.0164 30.3938 62.9262C30.3575 62.8359 30.3036 62.7538 30.2352 62.6846C30.1667 62.6155 30.0852 62.5607 29.9953 62.5235C29.9055 62.4863 29.809 62.4674 29.7118 62.4679V62.4796Z" fill="#EBEBEB"/>
<path d="M25.3004 122.806H24.9097V102.859L24.9331 102.812L33.2677 88.0731V72.3301H33.6584V88.1747L33.6311 88.2177L25.3004 102.96V122.806Z" fill="#EBEBEB"/>
<path d="M33.4632 72.5417C33.2403 72.5425 33.0222 72.477 32.8366 72.3537C32.6509 72.2303 32.5061 72.0546 32.4204 71.8488C32.3347 71.643 32.3121 71.4164 32.3554 71.1978C32.3987 70.9791 32.506 70.7782 32.6636 70.6206C32.8212 70.463 33.0221 70.3557 33.2407 70.3125C33.4594 70.2692 33.686 70.2918 33.8918 70.3774C34.0976 70.4631 34.2733 70.6079 34.3966 70.7936C34.52 70.9792 34.5854 71.1974 34.5847 71.4203C34.5836 71.7174 34.4652 72.002 34.2551 72.2121C34.045 72.4222 33.7603 72.5407 33.4632 72.5417ZM33.4632 70.6857C33.3178 70.6849 33.1754 70.7273 33.054 70.8076C32.9327 70.8878 32.838 71.0023 32.7818 71.1364C32.7256 71.2706 32.7105 71.4184 32.7384 71.5612C32.7663 71.7039 32.8359 71.8352 32.9385 71.9383C33.0411 72.0414 33.172 72.1118 33.3146 72.1404C33.4572 72.1691 33.6051 72.1548 33.7395 72.0993C33.874 72.0438 33.9889 71.9497 34.0698 71.8288C34.1507 71.7079 34.1939 71.5657 34.1939 71.4203C34.196 71.3228 34.1787 71.2259 34.1429 71.1352C34.1072 71.0446 34.0537 70.9619 33.9857 70.8921C33.9177 70.8222 33.8365 70.7667 33.7468 70.7285C33.6571 70.6904 33.5607 70.6705 33.4632 70.67V70.6857Z" fill="#EBEBEB"/>
<path d="M248.231 35.7139L250.967 31.318L249.622 30.4858C249.426 30.364 249.269 30.1894 249.168 29.982C249.067 29.7746 249.027 29.5428 249.052 29.3135C249.073 29.053 249.081 28.7925 249.075 28.532C249.068 28.3052 249.125 28.081 249.238 27.8843C249.351 27.6876 249.517 27.5263 249.716 27.4184L251.111 26.6682L248.622 22.1356L247.227 22.8858C247.026 22.9916 246.799 23.0396 246.572 23.0244C246.345 23.0093 246.127 22.9315 245.942 22.7998C245.731 22.6552 245.512 22.5185 245.285 22.4091C245.084 22.3022 244.917 22.1414 244.802 21.9446C244.688 21.7479 244.63 21.5231 244.636 21.2955L244.687 19.709L239.518 19.5488L239.467 21.1392C239.458 21.3668 239.386 21.5875 239.259 21.7766C239.132 21.9656 238.955 22.1157 238.748 22.2098C238.631 22.2645 238.517 22.3192 238.408 22.3817C238.299 22.4442 238.185 22.5029 238.076 22.5693C237.883 22.6882 237.66 22.7511 237.433 22.7511C237.206 22.7511 236.984 22.6882 236.79 22.5693L235.434 21.7292L232.699 26.125L234.047 26.9651C234.244 27.0865 234.401 27.2611 234.502 27.4686C234.603 27.6761 234.643 27.908 234.618 28.1374C234.596 28.3973 234.588 28.6581 234.594 28.9189C234.6 29.1465 234.543 29.3713 234.43 29.5685C234.316 29.7658 234.15 29.9277 233.95 30.0364L232.578 30.7319L235.024 35.2919L236.419 34.5456C236.62 34.4392 236.847 34.3905 237.073 34.405C237.3 34.4195 237.519 34.4965 237.705 34.6276C237.916 34.7696 238.135 34.9001 238.361 35.0184C238.562 35.1252 238.729 35.2861 238.844 35.4828C238.959 35.6796 239.016 35.9044 239.01 36.132L238.963 37.7184L244.132 37.8786L244.183 36.2922C244.192 36.065 244.263 35.8448 244.391 35.6563C244.518 35.4678 244.695 35.3186 244.902 35.2255L245.242 35.0535L245.574 34.8621C245.768 34.7433 245.991 34.6804 246.219 34.6804C246.447 34.6804 246.67 34.7433 246.864 34.8621L248.231 35.7139ZM243.855 32.4512C243.116 32.8471 242.276 33.0149 241.441 32.9335C240.607 32.8521 239.815 32.525 239.167 31.9937C238.518 31.4624 238.042 30.7507 237.797 29.9486C237.553 29.1465 237.552 28.29 237.795 27.4874C238.038 26.6848 238.513 25.9721 239.16 25.4395C239.808 24.907 240.599 24.5783 241.433 24.4953C242.267 24.4122 243.108 24.5784 243.848 24.9728C244.587 25.3672 245.194 25.9722 245.59 26.7112C245.852 27.2031 246.015 27.742 246.069 28.2969C246.122 28.8518 246.066 29.4119 245.903 29.9451C245.74 30.4783 245.474 30.9741 245.119 31.4041C244.764 31.8341 244.328 32.1899 243.835 32.4512H243.855Z" fill="#EBEBEB"/>
<path d="M10.3389 74.792L13.4648 72.9789L12.91 72.0177C12.8305 71.8793 12.7913 71.7215 12.7968 71.5619C12.8023 71.4024 12.8523 71.2477 12.9412 71.1151C13.0402 70.964 13.1301 70.8077 13.2108 70.6462C13.2833 70.5015 13.395 70.3801 13.5332 70.2958C13.6714 70.2115 13.8305 70.1677 13.9923 70.1695H15.102V66.5434H13.9923C13.8305 66.5452 13.6714 66.5014 13.5332 66.4171C13.395 66.3328 13.2833 66.2114 13.2108 66.0667C13.1301 65.9052 13.0402 65.7489 12.9412 65.5978C12.8523 65.4652 12.8023 65.3104 12.7968 65.1509C12.7913 64.9914 12.8305 64.8336 12.91 64.6952L13.4648 63.7339L10.3389 61.9209L9.784 62.886C9.7055 63.0217 9.59089 63.133 9.45293 63.2075C9.31497 63.282 9.15906 63.3168 9.00252 63.308H8.45157C8.29555 63.3163 8.14024 63.2817 8.00248 63.208C7.86472 63.1343 7.74976 63.0243 7.67008 62.8899L7.11131 61.9209L3.98536 63.7339L4.54022 64.6991C4.6197 64.8375 4.65889 64.9954 4.65337 65.1549C4.64784 65.3144 4.59782 65.4691 4.50896 65.6017C4.41076 65.7517 4.32076 65.9069 4.23935 66.0667C4.16685 66.2114 4.05514 66.3328 3.91697 66.4171C3.77879 66.5014 3.61971 66.5452 3.45786 66.5434H2.33643V70.1695H3.44614C3.60798 70.1677 3.76707 70.2115 3.90525 70.2958C4.04342 70.3801 4.15513 70.5015 4.22763 70.6462C4.30904 70.806 4.39904 70.9612 4.49724 71.1112C4.58602 71.2445 4.63596 71.3999 4.64148 71.56C4.647 71.7201 4.60788 71.8786 4.5285 72.0177L3.97364 72.9789L7.09959 74.792L7.65836 73.8269C7.73786 73.692 7.85266 73.5815 7.99038 73.5071C8.1281 73.4327 8.28351 73.3974 8.43984 73.4049C8.52581 73.4049 8.61568 73.4049 8.70555 73.4049C8.79542 73.4049 8.88529 73.4049 8.97516 73.4049C9.13143 73.3978 9.28668 73.4334 9.42432 73.5077C9.56196 73.582 9.67683 73.6923 9.75665 73.8269L10.3389 74.792ZM8.70555 71.3261C8.11838 71.3253 7.54461 71.1505 7.05677 70.8237C6.56892 70.4969 6.1889 70.0329 5.96474 69.4902C5.74057 68.9475 5.68232 68.3505 5.79734 67.7747C5.91237 67.1989 6.19551 66.6701 6.61098 66.2552C7.02645 65.8403 7.55559 65.5578 8.13154 65.4436C8.70749 65.3293 9.30439 65.3883 9.8468 65.6132C10.3892 65.8381 10.8528 66.2187 11.1789 66.707C11.505 67.1953 11.6791 67.7693 11.6791 68.3564C11.6796 68.7469 11.603 69.1336 11.4537 69.4944C11.3044 69.8552 11.0854 70.1829 10.8091 70.4588C10.5328 70.7348 10.2048 70.9534 9.8438 71.1022C9.48282 71.251 9.096 71.3271 8.70555 71.3261Z" fill="#EBEBEB"/>
<path d="M232.242 38.895L230.433 35.7691L229.476 36.3122C229.337 36.3916 229.178 36.4307 229.018 36.4252C228.858 36.4196 228.703 36.3697 228.569 36.2809C228.418 36.1819 228.262 36.0919 228.1 36.0113C227.956 35.9388 227.834 35.8271 227.75 35.6889C227.666 35.5508 227.622 35.3917 227.624 35.2298V34.1201H224.005V35.2298C224.007 35.3917 223.963 35.5508 223.879 35.6889C223.795 35.8271 223.673 35.9388 223.529 36.0113C223.366 36.0927 223.208 36.1827 223.056 36.2809C222.923 36.3698 222.768 36.4198 222.609 36.4253C222.449 36.4309 222.292 36.3917 222.153 36.3122L221.192 35.7573L219.383 38.8833L220.348 39.4381C220.485 39.5202 220.597 39.6383 220.671 39.7795C220.746 39.9208 220.78 40.0798 220.77 40.2392C220.77 40.329 220.77 40.4189 220.77 40.5049C220.77 40.5908 220.77 40.6846 220.77 40.7745C220.778 40.9309 220.743 41.0865 220.668 41.2243C220.594 41.3621 220.483 41.4768 220.348 41.556L219.383 42.1147L221.192 45.2407L222.157 44.6858C222.296 44.6064 222.453 44.5672 222.613 44.5727C222.772 44.5782 222.927 44.6282 223.06 44.7171C223.213 44.8161 223.37 44.9059 223.529 44.9867C223.673 45.0592 223.795 45.1709 223.879 45.3091C223.963 45.4473 224.007 45.6063 224.005 45.7682V46.8779H227.628V45.7682C227.626 45.6063 227.67 45.4473 227.754 45.3091C227.838 45.1709 227.96 45.0592 228.104 44.9867C228.266 44.9033 228.422 44.8135 228.573 44.7171C228.706 44.6282 228.86 44.5782 229.02 44.5727C229.179 44.5672 229.337 44.6064 229.476 44.6858L230.441 45.2407L232.25 42.1147L231.285 41.5599C231.151 41.4799 231.041 41.3649 230.967 41.2272C230.894 41.0895 230.859 40.9343 230.867 40.7784C230.867 40.6885 230.867 40.5987 230.867 40.5088C230.867 40.4189 230.867 40.3329 230.867 40.2431C230.857 40.0836 230.891 39.9245 230.965 39.7831C231.039 39.6418 231.152 39.5238 231.289 39.442L232.242 38.895ZM228.776 40.501C228.776 41.0885 228.602 41.6628 228.276 42.1512C227.949 42.6397 227.485 43.0203 226.942 43.2449C226.399 43.4696 225.802 43.5282 225.226 43.4133C224.65 43.2984 224.121 43.0151 223.705 42.5994C223.29 42.1837 223.008 41.6542 222.894 41.0779C222.779 40.5016 222.839 39.9044 223.064 39.3618C223.29 38.8193 223.671 38.3557 224.16 38.0299C224.649 37.704 225.223 37.5305 225.811 37.5313C226.2 37.5313 226.586 37.6082 226.946 37.7574C227.306 37.9067 227.634 38.1255 227.909 38.4013C228.184 38.6771 228.403 39.0046 228.552 39.3648C228.7 39.7251 228.777 40.1112 228.776 40.501Z" fill="#EBEBEB"/>
<path d="M242.906 109.811L237.779 109.92L235.177 109.963C234.305 109.983 233.43 109.963 232.559 109.987H232.387V109.811L232.363 105.439V105.243H232.559L237.732 105.271C239.459 105.271 241.182 105.314 242.906 105.333H243.015V105.439C243.015 106.181 242.984 106.919 242.964 107.65L242.906 109.811ZM242.906 109.811L242.851 107.603C242.831 106.876 242.808 106.154 242.8 105.439L242.906 105.544C241.182 105.567 239.459 105.607 237.732 105.61L232.559 105.634L232.754 105.439V109.811L232.578 109.639C233.43 109.639 234.282 109.639 235.138 109.659L237.709 109.702L242.906 109.811Z" fill="#EBEBEB"/>
<path d="M237.135 115.324L232.008 115.433L229.402 115.476C228.534 115.496 227.659 115.476 226.788 115.499H226.616V115.324V110.951V110.756H226.811L231.985 110.783C233.708 110.783 235.435 110.826 237.158 110.846H237.267V110.951C237.267 111.694 237.236 112.432 237.217 113.163L237.135 115.324ZM237.135 115.324L237.08 113.116C237.06 112.385 237.037 111.666 237.029 110.951L237.135 111.057C235.411 111.08 233.684 111.119 231.961 111.123L226.788 111.147L226.983 110.951V115.324L226.807 115.152C227.659 115.152 228.511 115.152 229.367 115.171L231.934 115.214L237.135 115.324Z" fill="#EBEBEB"/>
<path d="M248.677 115.324L243.55 115.433L240.948 115.476C240.077 115.496 239.201 115.476 238.33 115.499H238.158V115.324L238.135 110.951V110.756H238.33L243.504 110.783C245.231 110.783 246.954 110.826 248.677 110.846H248.786V110.951C248.786 111.694 248.751 112.432 248.736 113.163L248.677 115.324ZM248.677 115.324L248.622 113.116C248.622 112.385 248.579 111.666 248.572 110.951L248.677 111.057C246.954 111.08 245.231 111.119 243.504 111.123L238.33 111.147L238.526 110.951V115.324L238.35 115.152C239.202 115.152 240.053 115.152 240.909 115.171L243.48 115.214L248.677 115.324Z" fill="#EBEBEB"/>
<path d="M95.3684 61.6869L90.2419 61.7963L87.6395 61.8432C86.7682 61.8432 85.8929 61.8432 85.0215 61.8432H84.8496V61.6674L84.8262 57.3028V57.1074H85.0215L90.195 57.1309C91.9221 57.1309 93.6453 57.1738 95.3684 57.1934H95.4779V57.3028C95.4779 58.0452 95.4427 58.7837 95.4231 59.5144L95.3684 61.6869ZM95.3684 61.6869L95.3137 59.4792C95.3137 58.7525 95.2708 58.0335 95.2629 57.3145L95.3684 57.4239C93.6453 57.4435 91.9221 57.4864 90.195 57.4864L85.0215 57.5099L85.2169 57.3145L85.1974 61.6869L85.0215 61.515C85.8734 61.515 86.7252 61.515 87.5809 61.5346L90.152 61.5814L95.3684 61.6869Z" fill="#EBEBEB"/>
<path d="M89.5896 67.1996L84.4631 67.309L81.8568 67.352C80.9894 67.3716 80.1141 67.352 79.2427 67.3755H79.0708V67.1996L79.0396 62.8272V62.6318H79.2349L84.4084 62.6592C86.1315 62.6592 87.8586 62.7022 89.5818 62.7217H89.6912V62.8272C89.6912 63.5696 89.66 64.3081 89.6404 65.0388L89.5896 67.1996ZM89.5896 67.1996L89.5349 64.9919C89.5154 64.2651 89.492 63.5462 89.4841 62.8272L89.5896 62.9366C87.8665 62.9562 86.1394 62.9991 84.4162 62.9991L79.2427 63.0226L79.4381 62.8272V67.1996L79.2623 67.0277C80.1141 67.0277 80.9659 67.0277 81.8216 67.0472L84.3927 67.0941L89.5896 67.1996Z" fill="#EBEBEB"/>
<path d="M20.8616 109.627L15.739 109.737L13.1366 109.784C12.2691 109.784 11.3939 109.784 10.5225 109.803H10.3467V109.627L10.3271 105.255V105.06H10.5225L15.696 105.083C17.4191 105.083 19.1462 105.126 20.8694 105.146H20.9749V105.251C20.9749 105.993 20.9437 106.732 20.9241 107.463L20.8616 109.627ZM20.8616 109.627L20.8069 107.42C20.8069 106.693 20.76 105.974 20.7561 105.255L20.8616 105.364C19.1384 105.384 17.4113 105.427 15.6882 105.427L10.5147 105.45L10.7101 105.255L10.6866 109.627L10.5147 109.455C11.3665 109.455 12.2183 109.455 13.0702 109.455L15.6413 109.502L20.8616 109.627Z" fill="#EBEBEB"/>
<path d="M15.0901 115.132L9.95965 115.242L7.3573 115.285C6.48984 115.285 5.61458 115.285 4.74322 115.308H4.56738V115.132V110.76V110.564H4.76666L9.94011 110.588C11.6633 110.588 13.3865 110.631 15.1136 110.65H15.2191V110.756C15.2191 111.498 15.1839 112.237 15.1683 112.968L15.0901 115.132ZM15.0901 115.132L15.0354 112.925C15.0354 112.198 14.9885 111.479 14.9807 110.76L15.0901 110.869C13.363 110.889 11.6398 110.932 9.91667 110.932L4.74322 110.955L4.93859 110.76L4.91514 115.132L4.74322 114.96C5.59504 114.96 6.44295 114.96 7.29868 114.98L9.86978 115.027L15.0901 115.132Z" fill="#EBEBEB"/>
<path d="M101.14 67.1996L96.0134 67.309L93.411 67.352C92.5397 67.3716 91.6683 67.352 90.793 67.3755H90.6211V67.1996L90.5977 62.8272V62.6318H90.793L95.9665 62.6592C97.6936 62.6592 99.4167 62.7022 101.14 62.7217H101.249V62.8272C101.249 63.5696 101.214 64.3081 101.199 65.0388L101.14 67.1996ZM101.14 67.1996L101.085 64.9919C101.085 64.2651 101.042 63.5462 101.034 62.8272L101.14 62.9366C99.4167 62.9562 97.6936 62.9991 95.9665 62.9991L90.793 63.0226L90.9884 62.8272L90.9689 67.1996L90.793 67.0277C91.6488 67.0277 92.4967 67.0277 93.3524 67.0472L95.9235 67.0941L101.14 67.1996Z" fill="#EBEBEB"/>
<path d="M219.785 54.7553L214.659 54.8647L212.057 54.9077C211.185 54.9077 210.31 54.9077 209.439 54.9311H209.267V54.7553L209.243 50.3829V50.1875H209.439L214.612 50.2149C216.335 50.2149 218.062 50.2578 219.785 50.2774H219.895V50.3829C219.895 51.1253 219.864 51.8638 219.844 52.5945L219.785 54.7553ZM219.785 54.7553L219.731 52.5476C219.731 51.8208 219.688 51.0979 219.68 50.3829L219.785 50.4884C218.062 50.5118 216.335 50.5509 214.612 50.5548L209.439 50.5782L209.634 50.3829L209.614 54.7553L209.439 54.5834C210.29 54.5834 211.142 54.5834 211.998 54.6029L214.569 54.6459L219.785 54.7553Z" fill="#EBEBEB"/>
<path d="M242.308 15.3129L237.181 15.4223L234.575 15.4653C233.708 15.4653 232.832 15.4653 231.961 15.4653H231.789V15.2895V10.9171V10.7217H231.984L237.158 10.7451C238.881 10.7451 240.608 10.7881 242.331 10.8076H242.441V10.9131C242.441 11.6556 242.409 12.3902 242.39 13.1208L242.308 15.3129ZM242.308 15.3129L242.253 13.1013C242.234 12.3745 242.21 11.6556 242.202 10.9405L242.308 11.046C240.585 11.046 238.858 11.1085 237.134 11.1085L231.961 11.1359L232.156 10.9405L232.137 15.3129L231.961 15.1371C232.813 15.1371 233.665 15.1371 234.52 15.1605L237.088 15.2035L242.308 15.3129Z" fill="#EBEBEB"/>
<path d="M248.079 20.8266L242.953 20.936L240.35 20.979C239.479 20.979 238.604 20.979 237.732 20.979H237.561V20.8031L237.537 16.4307V16.2744H237.732L242.906 16.2979C244.633 16.2979 246.356 16.3408 248.079 16.3604H248.189V16.4659C248.189 17.2083 248.154 17.9429 248.134 18.6736L248.079 20.8266ZM248.079 20.8266L248.025 18.6189C248.025 17.8921 247.982 17.1731 247.974 16.4581L248.079 16.5636C246.356 16.5636 244.633 16.6261 242.906 16.6261L237.732 16.6652L237.928 16.4698V20.8422L237.752 20.6664C238.604 20.6664 239.456 20.6664 240.311 20.6898L242.882 20.7328L248.079 20.8266Z" fill="#EBEBEB"/>
<path d="M15.0901 15.3168L9.95965 15.4262L7.3573 15.4692C6.48984 15.4692 5.61458 15.4692 4.74322 15.4692H4.56738V15.2934V10.921V10.7256H4.76666L9.94011 10.749C11.6633 10.749 13.3865 10.792 15.1136 10.8155H15.2191V10.921C15.2191 11.6634 15.1839 12.4019 15.1683 13.1287L15.0901 15.3168ZM15.0901 15.3168L15.0354 13.1091C15.0354 12.3784 14.9885 11.6595 14.9807 10.9444L15.0901 11.0499C13.363 11.0694 11.6398 11.1124 9.91667 11.1163L4.74322 11.1398L4.93859 10.9444L4.91514 15.3168L4.74322 15.141C5.59504 15.141 6.44295 15.141 7.29868 15.1644L9.86978 15.2074L15.0901 15.3168Z" fill="#EBEBEB"/>
<path d="M246.442 83.6343C241.089 90.8865 235.501 99.2992 234.145 108.392C234.139 108.423 234.146 108.456 234.164 108.483C234.182 108.51 234.209 108.528 234.241 108.534C234.273 108.541 234.305 108.534 234.332 108.516C234.359 108.498 234.377 108.47 234.384 108.439C235 105.96 235.79 103.527 236.748 101.159C240.264 100.19 243.722 99.393 245.571 95.8997C247.458 92.3088 247.22 87.6277 246.86 83.7163C246.833 83.5053 246.551 83.4819 246.442 83.6343Z" fill="#0660A0"/>
<path d="M236.802 101.089C239.209 95.6927 242.296 90.2731 246.219 85.8498C246.247 85.8225 246.286 85.8498 246.262 85.8928C243.695 89.0539 241.741 92.4964 239.835 96.0014C241.609 94.2 243.551 92.5902 245.227 90.6794C245.262 90.6443 245.313 90.6794 245.282 90.7341C243.617 92.7347 241.792 94.9073 239.624 96.3882C239.037 97.464 238.449 98.5412 237.857 99.6196C238.002 99.5376 238.154 99.4673 238.303 99.393C238.305 99.3905 238.308 99.3886 238.312 99.3875C238.315 99.3864 238.319 99.386 238.322 99.3864C238.326 99.3869 238.329 99.3881 238.332 99.3901C238.335 99.392 238.338 99.3946 238.339 99.3976C238.341 99.4007 238.342 99.4041 238.343 99.4076C238.343 99.4112 238.342 99.4147 238.341 99.4181C238.34 99.4214 238.338 99.4244 238.335 99.4268C238.333 99.4292 238.33 99.431 238.326 99.4321C238.158 99.5141 237.998 99.604 237.826 99.6744C237.545 100.186 237.263 100.698 236.974 101.206C236.9 101.304 236.752 101.202 236.802 101.089Z" fill="#263238"/>
<path d="M238.592 99.206C240.032 98.4037 241.406 97.4892 242.702 96.4708C242.738 96.4434 242.788 96.4708 242.753 96.5216C241.497 97.607 240.121 98.5444 238.65 99.3154C238.636 99.3232 238.619 99.3248 238.603 99.3201C238.587 99.3153 238.574 99.3045 238.566 99.29C238.559 99.2755 238.557 99.2585 238.562 99.2427C238.567 99.227 238.577 99.2137 238.592 99.206Z" fill="#263238"/>
<path d="M233.528 107.04C233.528 107.15 233.723 107.15 233.723 107.04C233.75 104.047 233.723 101.038 233.77 98.0297C234.551 96.4667 236.185 95.6227 237.33 94.384C238.153 93.4781 238.869 92.4803 239.463 91.4105C240.844 88.8551 241.687 86.0439 241.94 83.1501C242.257 79.946 241.042 69.3764 239.694 69.7437C238.99 69.9352 236.724 75.1711 236.126 76.9021C235.152 79.756 234.438 82.692 233.993 85.6743C232.899 92.7155 232.992 99.9482 233.528 107.04Z" fill="#0660A0"/>
<path d="M233.504 94.1227C233.669 90.3364 234.52 86.511 235.321 82.8341C236.181 78.8759 237.185 75.1482 239.229 71.6158C239.264 71.5533 239.362 71.6158 239.33 71.6744C237.976 74.4165 236.928 77.2993 236.205 80.2708C236.341 80.0559 236.505 79.8566 236.65 79.6534C236.705 79.5753 236.834 79.6534 236.779 79.7316C236.597 80.0514 236.383 80.3525 236.142 80.6303H236.119C235.415 83.4593 234.911 86.3547 234.481 89.2267C234.512 89.1871 234.544 89.1493 234.579 89.1133C234.599 89.0899 234.638 89.1133 234.622 89.1485L234.45 89.4338C234.231 90.899 234.032 92.3604 233.829 93.8101C236.439 91.5828 238.666 88.9531 239.924 85.7139C239.924 85.7139 239.956 85.7139 239.948 85.7139C238.717 89.0704 236.775 92.0596 233.786 94.0953C233.736 94.4861 233.682 94.8768 233.622 95.2676C233.622 95.3496 233.481 95.3262 233.485 95.248C233.485 94.9042 233.485 94.5564 233.516 94.2125C233.506 94.2004 233.499 94.1854 233.497 94.1694C233.495 94.1534 233.497 94.1372 233.504 94.1227Z" fill="#263238"/>
<path d="M234.735 88.6318C236.728 85.6582 238.592 82.7707 240.049 79.4767C240.049 79.4415 240.127 79.4767 240.116 79.504C238.885 82.7746 237.162 86.0842 234.833 88.71C234.786 88.7647 234.692 88.6943 234.735 88.6318Z" fill="#263238"/>
<path d="M237.384 78.743C238.209 77.2816 239.08 75.8593 239.858 74.3705C239.881 74.3276 239.936 74.3705 239.92 74.4057C239.283 75.9602 238.475 77.4396 237.513 78.8172C237.504 78.8343 237.487 78.8468 237.468 78.8519C237.449 78.8571 237.429 78.8544 237.412 78.8446C237.395 78.8347 237.382 78.8185 237.377 78.7994C237.372 78.7804 237.375 78.7601 237.384 78.743Z" fill="#263238"/>
<path d="M237.06 79.3799C237.08 79.3799 237.08 79.4033 237.06 79.4033V79.3799Z" fill="#263238"/>
<path d="M231.5 98.3816C231.46 100.366 231.225 102.343 230.801 104.282C230.832 104.493 230.863 104.708 230.894 104.927C231.504 102.784 231.858 100.576 231.949 98.3503C231.967 98.3193 231.976 98.2843 231.976 98.2487C231.976 98.2132 231.967 98.1782 231.949 98.1471C232.034 95.1627 231.813 92.1775 231.289 89.2382C230.363 83.7365 228.335 78.4537 224.498 74.3313C224.466 74.3036 224.429 74.2836 224.388 74.2728C224.348 74.2621 224.305 74.2608 224.264 74.2691C224.223 74.2774 224.184 74.2951 224.151 74.3208C224.117 74.3465 224.09 74.3795 224.072 74.4173C222.509 78.356 223.064 83.0527 224.385 86.9836C225.103 89.1101 226.129 91.1202 227.429 92.9503C228.753 94.8141 230.429 96.3771 231.5 98.3816Z" fill="#0660A0"/>
<path d="M224.959 76.1637C228.597 82.0678 231.129 89.0583 231.437 96.0408C231.437 96.162 231.234 96.1971 231.215 96.0721C231.129 95.443 231.035 94.8217 230.933 94.2043C229.425 92.7664 227.882 91.2425 226.803 89.4412C226.801 89.434 226.801 89.4263 226.803 89.4192C226.805 89.412 226.81 89.4058 226.816 89.4014C226.822 89.3971 226.83 89.3948 226.837 89.3949C226.845 89.395 226.852 89.3975 226.858 89.4021C228.167 90.8987 229.386 92.4304 230.867 93.7667C230.605 92.2233 230.296 90.7072 229.929 89.2106L229.644 88.8746C229.581 88.8004 229.687 88.6909 229.749 88.7652L229.839 88.8629C229.327 86.8141 228.691 84.7981 227.936 82.8259C227.01 81.7201 225.983 80.7667 225.303 79.4342C225.303 79.403 225.33 79.3795 225.35 79.4069C225.893 80.1688 226.416 80.9347 227.03 81.638C227.276 81.9194 227.546 82.1851 227.811 82.4586C226.974 80.3182 225.978 78.2429 224.834 76.2497C224.83 76.2338 224.832 76.2172 224.838 76.2021C224.844 76.187 224.854 76.174 224.868 76.1648C224.881 76.1556 224.897 76.1506 224.913 76.1504C224.929 76.1502 224.945 76.1548 224.959 76.1637Z" fill="#263238"/>
<path d="M225.693 83.4469C226.866 85.0294 228.21 86.5377 229.304 88.1749C229.335 88.2218 229.265 88.2687 229.226 88.2335C227.823 86.9167 226.635 85.1076 225.615 83.4938C225.568 83.443 225.658 83.4 225.693 83.4469Z" fill="#263238"/>
<path d="M229.476 88.5618L229.527 88.6087C229.558 88.6439 229.507 88.6986 229.472 88.6634L229.421 88.6126C229.378 88.5618 229.433 88.5071 229.476 88.5618Z" fill="#263238"/>
<path d="M219.262 87.5145C219.551 90.5506 221.149 94.1767 223.099 96.5016C223.96 97.5208 225.025 98.3487 226.225 98.932C227.573 99.5963 228.988 100.366 230.379 100.913C231.032 102.605 231.515 104.358 231.82 106.145L231.953 105.684C231.058 97.9942 226.092 91.4219 219.719 87.2019C219.669 87.1736 219.612 87.1599 219.554 87.1624C219.497 87.1649 219.441 87.1835 219.393 87.216C219.346 87.2485 219.308 87.2937 219.285 87.3465C219.262 87.3992 219.254 87.4574 219.262 87.5145Z" fill="#0660A0"/>
<path d="M221.458 89.7847C221.415 89.7457 221.458 89.6636 221.524 89.7027C225.021 92.3012 227.809 95.7368 229.632 99.694C229.679 99.7995 229.534 99.8933 229.476 99.7878C229.179 99.2668 228.877 98.7614 228.569 98.2717C227.12 97.9982 225.74 96.9744 224.662 96.0054C224.631 95.978 224.662 95.935 224.705 95.9624C225.26 96.4685 225.877 96.9018 226.541 97.2518C227.143 97.5263 227.759 97.7701 228.386 97.9825C227.85 97.1307 227.288 96.3101 226.701 95.513C225.133 94.9163 223.662 94.0893 222.337 93.0592C222.294 93.0318 222.337 92.9615 222.376 92.9888C223.689 93.7841 225.044 94.5081 226.436 95.1575C225.548 93.9897 224.591 92.8754 223.572 91.8205C223.075 91.5587 222.575 91.2969 222.099 91.0156C222.089 91.0114 222.081 91.0035 222.077 90.9936C222.073 90.9837 222.073 90.9727 222.077 90.9628C222.081 90.953 222.089 90.9452 222.099 90.9411C222.109 90.9371 222.12 90.9372 222.13 90.9413C222.527 91.0822 222.906 91.2698 223.259 91.5001C222.685 90.9062 222.091 90.3435 221.458 89.7847Z" fill="#263238"/>
<path d="M221.594 92.4377C221.68 92.4918 221.762 92.5505 221.841 92.6135C221.864 92.637 221.841 92.6643 221.809 92.6526C221.719 92.6121 221.633 92.5637 221.551 92.508C221.509 92.469 221.552 92.4103 221.594 92.4377Z" fill="#263238"/>
<path d="M241.902 122.807H224.463L225.87 106.923L226.178 103.422H240.186L240.495 106.923L241.902 122.807Z" fill="#455A64"/>
<path d="M240.495 106.923H225.869L226.178 103.422H240.186L240.495 106.923Z" fill="#263238"/>
<path d="M241.022 100.972H225.346V104.438H241.022V100.972Z" fill="#455A64"/>
<path d="M0 122.807L31.6776 122.709L63.3552 122.678L126.71 122.611L190.066 122.678L221.743 122.709L253.421 122.807L221.743 122.9L190.066 122.936L126.71 123.002L63.3552 122.936L31.6776 122.9L0 122.807Z" fill="#263238"/>
<path d="M126.71 165C195.732 165 251.686 159.555 251.686 152.84C251.686 146.124 195.732 140.68 126.71 140.68C57.6883 140.68 1.73486 146.124 1.73486 152.84C1.73486 159.555 57.6883 165 126.71 165Z" fill="#EBEBEB"/>
<path d="M214.612 12.043H38.1519V130.083H214.612V12.043Z" fill="#EBEBEB"/>
<path d="M213.33 13.4805H39.4336V128.64H213.33V13.4805Z" fill="#263238"/>
<path d="M237.596 138.934H15.1685V147.034H237.596V138.934Z" fill="#DBDBDB"/>
<path d="M15.1685 138.933L38.152 130.083H214.612L237.596 138.933H15.1685Z" fill="#EBEBEB"/>
<path d="M40.2036 135.796L55.0363 130.083H197.728L212.561 135.796H40.2036Z" fill="#263238"/>
<path d="M203.503 22.2334H49.2607V119.896H203.503V22.2334Z" fill="white"/>
<path d="M203.503 22.2334H49.1318V25.9924H203.503V22.2334Z" fill="#455A64"/>
<path d="M52.1173 24.1087C52.118 24.2937 52.0638 24.4748 51.9615 24.629C51.8592 24.7832 51.7134 24.9035 51.5426 24.9746C51.3718 25.0458 51.1837 25.0646 51.0022 25.0287C50.8206 24.9928 50.6539 24.9038 50.523 24.7729C50.3922 24.6421 50.3032 24.4753 50.2673 24.2938C50.2314 24.1123 50.2502 23.9242 50.3213 23.7534C50.3925 23.5826 50.5128 23.4368 50.667 23.3345C50.8212 23.2322 51.0023 23.1779 51.1873 23.1787C51.4336 23.1797 51.6696 23.2781 51.8437 23.4522C52.0179 23.6264 52.1162 23.8624 52.1173 24.1087Z" fill="#C7C7C7"/>
<path d="M55.9229 24.1087C55.9237 24.2937 55.8695 24.4748 55.7672 24.629C55.6648 24.7832 55.519 24.9035 55.3482 24.9746C55.1774 25.0458 54.9893 25.0646 54.8078 25.0287C54.6263 24.9928 54.4595 24.9038 54.3287 24.7729C54.1979 24.6421 54.1088 24.4753 54.0729 24.2938C54.037 24.1123 54.0558 23.9242 54.127 23.7534C54.1982 23.5826 54.3185 23.4368 54.4727 23.3345C54.6268 23.2322 54.8079 23.1779 54.993 23.1787C55.2393 23.1797 55.4752 23.2781 55.6494 23.4522C55.8236 23.6264 55.9219 23.8624 55.9229 24.1087Z" fill="white"/>
<path d="M59.7291 24.1087C59.7299 24.2936 59.6757 24.4745 59.5736 24.6286C59.4714 24.7827 59.3259 24.903 59.1553 24.9743C58.9847 25.0455 58.7968 25.0646 58.6154 25.029C58.434 24.9934 58.2672 24.9048 58.1362 24.7743C58.0052 24.6439 57.9159 24.4775 57.8796 24.2962C57.8432 24.115 57.8615 23.927 57.932 23.7561C58.0026 23.5852 58.1223 23.4392 58.276 23.3364C58.4296 23.2336 58.6103 23.1787 58.7952 23.1787C59.0422 23.1787 59.2792 23.2766 59.4542 23.4509C59.6292 23.6251 59.728 23.8617 59.7291 24.1087Z" fill="#0660A0"/>
<path d="M203.503 25.9883H200.764V119.892H203.503V25.9883Z" fill="#DBDBDB"/>
<path d="M202.124 58.5459C201.936 58.5459 201.756 58.4714 201.624 58.3387C201.491 58.2061 201.417 58.0262 201.417 57.8386V27.2473C201.417 27.0597 201.491 26.8798 201.624 26.7472C201.756 26.6146 201.936 26.54 202.124 26.54C202.311 26.54 202.491 26.6146 202.624 26.7472C202.756 26.8798 202.831 27.0597 202.831 27.2473V57.8386C202.831 58.0262 202.756 58.2061 202.624 58.3387C202.491 58.4714 202.311 58.5459 202.124 58.5459Z" fill="#A6A6A6"/>
<path d="M157.79 84.3076H95.603V93.7324H157.79V84.3076Z" fill="white"/>
<path d="M157.895 93.8369H95.4976V84.2012H157.895V93.8369ZM95.7086 93.6415H157.684V84.4122H95.7086V93.6415Z" fill="#DBDBDB"/>
<path d="M101.093 86.8584C101.214 87.2091 101.297 87.5721 101.339 87.9408C101.386 88.2983 101.409 88.6586 101.409 89.0192C101.409 89.3797 101.386 89.7398 101.343 90.0977C101.299 90.4651 101.215 90.8267 101.093 91.1761C100.971 90.8267 100.887 90.4651 100.843 90.0977C100.799 89.7398 100.777 89.3797 100.776 89.0192C100.776 88.6586 100.8 88.2983 100.847 87.9408C100.889 87.5721 100.972 87.2091 101.093 86.8584Z" fill="#37474F"/>
<path d="M103.265 89.0196C102.916 89.1404 102.554 89.223 102.187 89.2658C101.829 89.3106 101.469 89.3341 101.109 89.3361C100.748 89.3361 100.388 89.3126 100.03 89.2658C99.6628 89.223 99.3012 89.1404 98.9517 89.0196C99.3011 88.8976 99.6627 88.8137 100.03 88.7696C100.746 88.681 101.471 88.681 102.187 88.7696C102.554 88.8137 102.916 88.8976 103.265 89.0196Z" fill="#37474F"/>
<path d="M102.621 87.4922C102.458 87.8246 102.26 88.1389 102.031 88.43C101.81 88.716 101.572 88.9875 101.316 89.2427C101.061 89.4974 100.791 89.7362 100.507 89.9578C100.216 90.1869 99.8998 90.3835 99.5654 90.5439C99.7273 90.2107 99.9252 89.8963 100.155 89.6061C100.376 89.3212 100.615 89.051 100.871 88.7973C101.124 88.5395 101.395 88.3005 101.683 88.0822C101.973 87.8511 102.287 87.6532 102.621 87.4922Z" fill="#37474F"/>
<path d="M102.621 90.5439C102.287 90.3843 101.973 90.1877 101.683 89.9578C101.397 89.7372 101.126 89.4983 100.871 89.2427C100.614 88.9885 100.375 88.717 100.155 88.43C99.9252 88.1398 99.7273 87.8254 99.5654 87.4922C99.8998 87.6526 100.216 87.8491 100.507 88.0783C100.791 88.3003 101.06 88.5404 101.312 88.7973C101.567 89.052 101.806 89.3221 102.027 89.6061C102.257 89.8976 102.456 90.2119 102.621 90.5439Z" fill="#37474F"/>
<path d="M109.517 86.8584C109.64 87.209 109.724 87.5719 109.768 87.9408C109.856 88.657 109.856 89.3814 109.768 90.0977C109.725 90.4654 109.641 90.8272 109.517 91.1761C109.397 90.8266 109.314 90.465 109.271 90.0977C109.224 89.7402 109.202 89.3798 109.205 89.0192C109.204 88.6587 109.226 88.2984 109.271 87.9408C109.316 87.5724 109.398 87.2097 109.517 86.8584Z" fill="#37474F"/>
<path d="M111.666 89.0196C111.317 89.1404 110.955 89.223 110.588 89.2658C110.233 89.3129 109.875 89.339 109.517 89.344C109.157 89.3439 108.796 89.3204 108.439 89.2736C108.071 89.2308 107.71 89.1483 107.36 89.0274C107.71 88.9054 108.071 88.8216 108.439 88.7774C109.156 88.6888 109.882 88.6888 110.6 88.7774C110.963 88.8198 111.32 88.9011 111.666 89.0196Z" fill="#37474F"/>
<path d="M111.034 87.4922C110.873 87.8252 110.676 88.1396 110.448 88.43C110.005 89.0023 109.492 89.5157 108.92 89.9578C108.629 90.1867 108.315 90.3832 107.982 90.5439C108.143 90.2109 108.339 89.8964 108.568 89.6061C108.79 89.3221 109.028 89.052 109.283 88.7973C109.536 88.5395 109.808 88.3005 110.096 88.0822C110.386 87.8519 110.7 87.6541 111.034 87.4922Z" fill="#37474F"/>
<path d="M111.034 90.5439C110.701 90.3832 110.386 90.1867 110.096 89.9578C109.524 89.5157 109.01 89.0023 108.568 88.43C108.339 88.1396 108.143 87.8252 107.982 87.4922C108.315 87.6528 108.629 87.8494 108.92 88.0783C109.207 88.2991 109.478 88.5393 109.732 88.7973C109.987 89.052 110.226 89.3221 110.448 89.6061C110.676 89.897 110.872 90.2113 111.034 90.5439Z" fill="#37474F"/>
<path d="M117.922 86.8584C118.044 87.2091 118.126 87.5721 118.169 87.9408C118.215 88.2983 118.239 88.6586 118.239 89.0192C118.238 89.3797 118.216 89.7398 118.173 90.0977C118.128 90.4651 118.045 90.8267 117.922 91.1761C117.8 90.8267 117.717 90.4651 117.672 90.0977C117.581 89.3816 117.581 88.6568 117.672 87.9408C117.714 87.5716 117.798 87.2085 117.922 86.8584Z" fill="#37474F"/>
<path d="M120.068 89.0196C119.718 89.1404 119.357 89.223 118.989 89.2658C118.631 89.3106 118.271 89.3341 117.911 89.3361C117.55 89.3361 117.19 89.3126 116.832 89.2658C116.465 89.223 116.103 89.1404 115.754 89.0196C116.103 88.8976 116.465 88.8137 116.832 88.7696C117.549 88.681 118.273 88.681 118.989 88.7696C119.357 88.8137 119.718 88.8976 120.068 89.0196Z" fill="#37474F"/>
<path d="M119.45 87.4922C119.287 87.8246 119.089 88.1389 118.86 88.43C118.64 88.716 118.401 88.9875 118.145 89.2427C117.89 89.4974 117.62 89.7362 117.336 89.9578C117.045 90.1869 116.729 90.3835 116.395 90.5439C116.556 90.2107 116.754 89.8963 116.985 89.6061C117.205 89.3212 117.444 89.051 117.7 88.7973C117.952 88.5405 118.223 88.3015 118.508 88.0822C118.8 87.8519 119.116 87.6541 119.45 87.4922Z" fill="#37474F"/>
<path d="M119.45 90.5439C119.116 90.3835 118.8 90.1869 118.508 89.9578C118.224 89.7362 117.954 89.4974 117.7 89.2427C117.443 88.9885 117.204 88.717 116.985 88.43C116.754 88.1398 116.556 87.8254 116.395 87.4922C116.729 87.6526 117.045 87.8491 117.336 88.0783C117.621 88.3001 117.891 88.5403 118.145 88.7973C118.4 89.052 118.639 89.3221 118.86 89.6061C119.088 89.8978 119.286 90.212 119.45 90.5439Z" fill="#37474F"/>
<path d="M126.319 86.8584C126.442 87.209 126.526 87.5719 126.569 87.9408C126.658 88.657 126.658 89.3814 126.569 90.0977C126.527 90.4654 126.443 90.8272 126.319 91.1761C126.198 90.8266 126.116 90.465 126.073 90.0977C126.026 89.7402 126.003 89.3798 126.007 89.0192C126.005 88.6587 126.028 88.2984 126.073 87.9408C126.117 87.5724 126.2 87.2097 126.319 86.8584Z" fill="#37474F"/>
<path d="M128.496 89.0196C128.146 89.1404 127.785 89.223 127.417 89.2658C127.053 89.3139 126.687 89.34 126.319 89.344C125.959 89.3439 125.599 89.3204 125.241 89.2736C124.874 89.2308 124.512 89.1483 124.163 89.0274C124.512 88.9054 124.874 88.8216 125.241 88.7774C125.959 88.6888 126.684 88.6888 127.402 88.7774C127.774 88.8179 128.141 88.8991 128.496 89.0196Z" fill="#37474F"/>
<path d="M127.882 87.4922C127.722 87.8252 127.525 88.1396 127.296 88.43C126.854 89.0023 126.341 89.5157 125.768 89.9578C125.478 90.1867 125.164 90.3832 124.831 90.5439C124.991 90.2109 125.188 89.8964 125.417 89.6061C125.638 89.3221 125.877 89.052 126.132 88.7973C126.385 88.5395 126.657 88.3005 126.944 88.0822C127.235 87.8519 127.549 87.6541 127.882 87.4922Z" fill="#37474F"/>
<path d="M127.882 90.5439C127.549 90.3832 127.235 90.1867 126.944 89.9578C126.372 89.5157 125.859 89.0023 125.417 88.43C125.188 88.1396 124.991 87.8252 124.831 87.4922C125.164 87.6528 125.478 87.8494 125.768 88.0783C126.055 88.2991 126.327 88.5393 126.581 88.7973C126.836 89.052 127.075 89.3221 127.296 89.6061C127.524 89.897 127.721 90.2113 127.882 90.5439Z" fill="#37474F"/>
<path d="M134.752 86.8584C134.873 87.2091 134.956 87.5721 134.998 87.9408C135.092 88.6567 135.092 89.3817 134.998 90.0977C134.957 90.4653 134.874 90.8271 134.752 91.1761C134.63 90.8267 134.546 90.4651 134.502 90.0977C134.456 89.74 134.434 89.3798 134.435 89.0192C134.436 88.6587 134.458 88.2986 134.502 87.9408C134.545 87.5719 134.629 87.209 134.752 86.8584Z" fill="#37474F"/>
<path d="M136.909 89.0196C136.559 89.1404 136.197 89.223 135.83 89.2658C135.472 89.3106 135.112 89.3341 134.752 89.3361C134.391 89.3361 134.031 89.3126 133.673 89.2658C133.305 89.2226 132.942 89.14 132.591 89.0196C132.942 88.898 133.305 88.8141 133.673 88.7696C134.389 88.681 135.114 88.681 135.83 88.7696C136.198 88.8137 136.559 88.8976 136.909 89.0196Z" fill="#37474F"/>
<path d="M136.276 87.4922C136.115 87.8252 135.919 88.1396 135.69 88.43C135.469 88.716 135.23 88.9875 134.975 89.2427C134.72 89.4974 134.45 89.7362 134.166 89.9578C133.874 90.1869 133.558 90.3835 133.224 90.5439C133.386 90.2107 133.584 89.8963 133.814 89.6061C134.258 89.0375 134.769 88.5257 135.338 88.0822C135.629 87.8528 135.943 87.655 136.276 87.4922Z" fill="#37474F"/>
<path d="M136.276 90.5439C135.943 90.3825 135.629 90.186 135.338 89.9578C135.054 89.7362 134.784 89.4974 134.529 89.2427C134.271 88.9896 134.032 88.7179 133.814 88.43C133.584 88.1398 133.386 87.8254 133.224 87.4922C133.558 87.6526 133.874 87.8491 134.166 88.0783C134.451 88.3001 134.721 88.5403 134.975 88.7973C135.229 89.052 135.468 89.3221 135.69 89.6061C135.918 89.897 136.114 90.2113 136.276 90.5439Z" fill="#37474F"/>
<path d="M143.165 86.8584C143.287 87.209 143.371 87.5719 143.415 87.9408C143.503 88.657 143.503 89.3814 143.415 90.0977C143.371 90.4651 143.287 90.8267 143.165 91.1761C143.044 90.8266 142.961 90.465 142.918 90.0977C142.872 89.7401 142.848 89.3798 142.848 89.0192C142.85 88.6586 142.874 88.2985 142.918 87.9408C142.961 87.5721 143.043 87.2091 143.165 86.8584Z" fill="#37474F"/>
<path d="M145.325 89.0197C144.976 89.1405 144.614 89.223 144.247 89.2658C143.888 89.3105 143.526 89.334 143.164 89.3362C142.804 89.3361 142.443 89.3126 142.086 89.2658C141.718 89.223 141.357 89.1405 141.007 89.0197C141.357 88.8976 141.718 88.8138 142.086 88.7696C142.443 88.7241 142.804 88.7019 143.164 88.7032C143.526 88.7021 143.888 88.7243 144.247 88.7696C144.614 88.8138 144.976 88.8976 145.325 89.0197Z" fill="#37474F"/>
<path d="M144.685 87.4922C144.523 87.8254 144.325 88.1398 144.094 88.43C143.876 88.7179 143.637 88.9896 143.379 89.2427C143.125 89.4974 142.855 89.7362 142.571 89.9578C142.28 90.1867 141.966 90.3832 141.633 90.5439C141.793 90.2109 141.99 89.8964 142.219 89.6061C142.441 89.3221 142.679 89.052 142.934 88.7973C143.187 88.5395 143.459 88.3005 143.747 88.0822C144.037 87.8519 144.351 87.6541 144.685 87.4922Z" fill="#37474F"/>
<path d="M144.685 90.5439C144.352 90.3832 144.037 90.1867 143.747 89.9578C143.174 89.5157 142.661 89.0023 142.219 88.43C141.99 88.1396 141.793 87.8252 141.633 87.4922C141.966 87.6528 142.28 87.8494 142.571 88.0783C142.856 88.3001 143.126 88.5403 143.379 88.7973C143.636 89.05 143.875 89.3203 144.094 89.6061C144.324 89.8969 144.522 90.2112 144.685 90.5439Z" fill="#37474F"/>
<path d="M134.502 76.4026C131.762 78.052 128.571 78.7915 125.385 78.5151C122.199 78.2386 119.183 76.9604 116.768 74.8638C114.354 72.7672 112.666 69.9599 111.945 66.8444C111.225 63.7289 111.51 60.4653 112.759 57.5216C114.008 54.578 116.157 52.1054 118.898 50.4586C121.639 48.8118 124.831 48.0754 128.016 48.3548C131.202 48.6343 134.217 49.9153 136.629 52.0142C139.042 54.1131 140.728 56.9221 141.445 60.0382C142.18 63.1498 141.903 66.4147 140.654 69.3579C139.405 72.3011 137.25 74.769 134.502 76.4026Z" fill="#455A64"/>
<path d="M131.321 61.7537C131.311 62.6649 131.031 63.5527 130.516 64.3047C130.001 65.0567 129.275 65.6392 128.429 65.9784C127.583 66.3176 126.656 66.3983 125.764 66.2104C124.873 66.0225 124.057 65.5743 123.42 64.9226C122.783 64.2709 122.353 63.4449 122.186 62.5491C122.018 61.6533 122.12 60.728 122.479 59.8902C122.837 59.0524 123.436 58.3397 124.2 57.8424C124.964 57.345 125.857 57.0853 126.769 57.096C127.99 57.1105 129.155 57.6092 130.009 58.4826C130.863 59.3559 131.334 60.5325 131.321 61.7537Z" fill="white"/>
<path d="M134.525 74.4952L134.505 76.3981C132.095 77.8464 129.328 78.5951 126.516 78.5606C123.704 78.5261 120.957 77.7097 118.583 76.2027L118.606 74.3076C118.631 72.1967 119.493 70.182 121.004 68.7069C122.514 67.2318 124.548 66.4171 126.659 66.442C128.77 66.4668 130.785 67.3293 132.26 68.8395C133.735 70.3498 134.55 72.3842 134.525 74.4952Z" fill="white"/>
<path d="M139.648 70.8814C139.701 78.4139 139.001 85.9327 137.558 93.3258C136.839 97.0263 135.744 100.644 134.291 104.122C133.564 105.866 132.61 107.507 131.454 109.002C130.872 109.756 130.178 110.415 129.395 110.956C128.614 111.523 127.674 111.828 126.709 111.828C125.744 111.828 124.803 111.523 124.022 110.956C123.236 110.415 122.537 109.756 121.951 109.002C120.79 107.509 119.83 105.869 119.095 104.126C117.63 100.649 116.524 97.0313 115.793 93.3297C114.321 85.9344 113.596 78.41 113.629 70.8697C113.596 63.3282 114.321 55.8024 115.793 48.4058C116.524 44.7042 117.63 41.0867 119.095 37.6096C119.831 35.8679 120.791 34.2299 121.951 32.737C122.536 31.9836 123.233 31.3246 124.018 30.7833C124.8 30.217 125.741 29.9121 126.707 29.9121C127.672 29.9121 128.613 30.217 129.395 30.7833C130.178 31.3251 130.872 31.984 131.454 32.737C132.611 34.2304 133.564 35.8701 134.291 37.6135C135.744 41.0917 136.839 44.7092 137.558 48.4098C139.005 55.8115 139.705 63.3398 139.648 70.8814ZM139.648 70.8814C139.678 63.3505 138.954 55.8355 137.487 48.4488C136.758 44.7575 135.653 41.1504 134.189 37.6838C133.461 35.9519 132.509 34.3229 131.357 32.8386C130.779 32.1027 130.093 31.4597 129.321 30.9318C128.563 30.3806 127.65 30.0837 126.713 30.0837C125.775 30.0837 124.862 30.3806 124.104 30.9318C123.336 31.4614 122.653 32.1058 122.08 32.8425C120.935 34.3283 119.988 35.9571 119.263 37.6877C117.815 41.1574 116.724 44.7657 116.008 48.4566C114.564 55.8404 113.864 63.3502 113.918 70.8736C113.864 78.397 114.565 85.9068 116.008 93.2906C116.724 96.9804 117.814 100.587 119.263 104.056C119.986 105.787 120.933 107.416 122.08 108.901C122.654 109.638 123.337 110.283 124.104 110.815C124.862 111.367 125.775 111.663 126.713 111.663C127.65 111.663 128.563 111.367 129.321 110.815C130.093 110.286 130.779 109.642 131.357 108.905C132.51 107.423 133.463 105.795 134.189 104.063C135.652 100.597 136.757 96.9896 137.487 93.2984C138.953 85.9168 139.677 78.4071 139.648 70.8814Z" fill="#0660A0"/>
<path d="M133.181 59.675C139.732 63.3952 145.893 67.7621 151.573 72.7102C154.417 75.1767 157.003 77.926 159.291 80.9158C160.437 82.423 161.38 84.0744 162.096 85.8275C162.453 86.707 162.673 87.636 162.749 88.5822C162.828 89.5401 162.626 90.5005 162.167 91.3448C161.666 92.1674 160.937 92.8271 160.068 93.2438C159.211 93.6536 158.297 93.9303 157.356 94.0643C155.483 94.3241 153.583 94.3359 151.706 94.0995C147.962 93.6314 144.275 92.7817 140.703 91.5636C133.564 89.1367 126.685 86.003 120.169 82.2092C113.626 78.4643 107.474 74.0739 101.804 69.1036C98.9662 66.6183 96.3884 63.8506 94.1107 60.8433C92.9681 59.3356 92.0288 57.6842 91.3168 55.9316C90.9608 55.0493 90.742 54.1177 90.6682 53.1691C90.5702 52.2088 90.7781 51.2421 91.2623 50.407C91.7465 49.5719 92.4822 48.9112 93.3643 48.5192C94.2209 48.1101 95.1357 47.836 96.0761 47.7065C97.9487 47.4585 99.8458 47.4585 101.718 47.7065C105.455 48.1859 109.132 49.0448 112.694 50.2698C119.82 52.7131 126.683 55.8639 133.181 59.675ZM133.181 59.675C126.673 55.8842 119.802 52.7544 112.671 50.3323C109.11 49.1197 105.435 48.2726 101.703 47.8042C99.8391 47.5677 97.9523 47.5795 96.0917 47.8393C95.1664 47.9706 94.2665 48.242 93.4229 48.6443C92.5679 49.0272 91.8558 49.6706 91.3884 50.4826C90.921 51.2945 90.7223 52.2335 90.8206 53.1652C90.8964 54.0966 91.1138 55.0111 91.4653 55.8769C92.1775 57.6129 93.1156 59.2472 94.2552 60.7378C96.5335 63.728 99.1115 66.4775 101.949 68.9434C107.621 73.8848 113.773 78.2464 120.314 81.963C126.804 85.771 133.659 88.9192 140.777 91.3604C144.327 92.5848 147.993 93.4424 151.718 93.9198C153.578 94.1679 155.462 94.1679 157.321 93.9198C158.245 93.7961 159.145 93.5326 159.99 93.1383C160.847 92.7591 161.562 92.118 162.031 91.3071C162.501 90.4962 162.702 89.5572 162.604 88.6252C162.533 87.6926 162.318 86.7767 161.967 85.9095C161.261 84.1692 160.328 82.5296 159.193 81.033C156.922 78.0334 154.35 75.2735 151.519 72.7961C145.859 67.8216 139.716 63.4259 133.181 59.675Z" fill="#0660A0"/>
<path d="M120.24 59.675C126.738 55.8646 133.601 52.7139 140.727 50.2698C144.293 49.0398 147.976 48.177 151.718 47.6948C153.591 47.4468 155.488 47.4468 157.361 47.6948C158.3 47.8279 159.214 48.1019 160.072 48.5075C160.954 48.8995 161.69 49.5602 162.174 50.3953C162.658 51.2303 162.866 52.1971 162.768 53.1574C162.695 54.1059 162.476 55.0376 162.12 55.9199C161.408 57.6725 160.468 59.3239 159.326 60.8316C157.049 63.8385 154.471 66.605 151.632 69.088C145.962 74.0586 139.81 78.4502 133.267 82.1974C126.753 85.9952 119.874 89.129 112.734 91.5518C109.154 92.7771 105.457 93.6321 101.703 94.1034C99.8262 94.3399 97.9265 94.328 96.0528 94.0682C95.1124 93.9342 94.198 93.6575 93.3411 93.2477C92.4726 92.831 91.7437 92.1713 91.2428 91.3487C90.7832 90.5044 90.5808 89.544 90.6605 88.5861C90.7361 87.6399 90.9562 86.7109 91.3131 85.8314C92.0293 84.0833 92.9726 82.4371 94.1186 80.9353C96.4062 77.9456 98.9919 75.1962 101.836 72.7297C107.519 67.7742 113.684 63.4008 120.24 59.675ZM120.24 59.675C113.704 63.4156 107.558 67.8008 101.894 72.7649C99.0628 75.2422 96.4914 78.0022 94.2202 81.0018C93.0853 82.4983 92.1525 84.1379 91.4459 85.8783C91.0955 86.7454 90.8806 87.6614 90.809 88.5939C90.7115 89.5259 90.912 90.4649 91.3817 91.2758C91.8514 92.0867 92.5661 92.7278 93.4231 93.107C94.2679 93.5013 95.1678 93.7648 96.0919 93.8885C97.9514 94.1366 99.8356 94.1366 101.695 93.8885C105.42 93.4117 109.087 92.5527 112.636 91.3252C119.752 88.8918 126.607 85.75 133.095 81.9474C139.635 78.2307 145.787 73.8705 151.46 68.9317C154.3 66.4666 156.879 63.7171 159.158 60.7261C160.296 59.235 161.233 57.6007 161.944 55.8652C162.295 54.9993 162.513 54.0849 162.589 53.1535C162.687 52.2218 162.488 51.2828 162.021 50.4709C161.553 49.6589 160.841 49.0155 159.986 48.6325C159.143 48.2286 158.243 47.9571 157.318 47.8276C155.457 47.5678 153.57 47.556 151.706 47.7925C147.973 48.2607 144.296 49.1077 140.734 50.3206C133.607 52.7457 126.741 55.8795 120.24 59.675Z" fill="#0660A0"/>
<path d="M152.136 56.9128C152.136 56.9128 148.424 83.8194 142.317 89.872C134.99 97.1594 129.672 96.077 126.71 99.8203C123.752 96.0692 118.434 97.1359 111.1 89.8681C104.993 83.8233 101.285 56.9128 101.285 56.9128C117.368 49.852 126.71 41.9355 126.71 41.9355C127 42.1817 136.299 49.9653 152.136 56.9128Z" fill="#0660A0"/>
<path opacity="0.1" d="M126.71 41.9395V99.8203C123.752 96.0692 118.434 97.1359 111.1 89.8681C104.993 83.8233 101.285 56.9128 101.285 56.9128C117.368 49.852 126.71 41.9355 126.71 41.9355V41.9395Z" fill="black"/>
<path d="M148.202 59.0849C148.202 59.0849 145.076 81.8106 139.91 86.9293C133.713 93.0718 129.219 92.1692 126.718 95.3342C124.218 92.1692 119.724 93.0718 113.527 86.9293C108.346 81.8106 105.22 59.0849 105.22 59.0849C118.806 53.1143 126.711 46.4248 126.711 46.4248C126.711 46.4248 134.604 53.1143 148.202 59.0849Z" fill="#0660A0"/>
<path opacity="0.1" d="M148.201 59.0849C148.201 59.0849 145.075 81.8106 139.91 86.9293C133.72 93.0679 129.227 92.1731 126.726 95.3264V46.4326C126.953 46.6358 134.814 53.2081 148.201 59.0849Z" fill="black"/>
<path d="M128.723 69.0837L130.712 78.5241H122.268L124.256 69.0837C123.477 68.5985 122.878 67.8728 122.548 67.0164C122.218 66.16 122.176 65.2194 122.428 64.3371C122.681 63.4547 123.214 62.6785 123.946 62.1259C124.679 61.5733 125.572 61.2744 126.49 61.2744C127.407 61.2744 128.3 61.5733 129.033 62.1259C129.766 62.6785 130.298 63.4547 130.551 64.3371C130.803 65.2194 130.761 66.16 130.431 67.0164C130.101 67.8728 129.502 68.5985 128.723 69.0837Z" fill="#263238"/>
<path d="M50.277 130.508C50.277 130.508 43.3569 144.242 43.3491 144.25C42.0128 146.872 40.8874 149.189 40.4185 150.444C40.4168 150.451 40.4168 150.459 40.4185 150.467C40.2746 150.748 40.1996 151.058 40.1997 151.374C40.1997 151.374 40.1997 151.393 40.1997 151.397C40.7116 152.323 61.3311 163.619 62.183 163.772C63.0348 163.924 63.5349 161.509 63.0856 160.431C62.6362 159.353 56.6696 151.499 56.6696 151.499L63.4568 137.705L50.277 130.508Z" fill="#D3766A"/>
<path d="M44.7714 141.434C44.7714 141.434 43.3569 144.243 43.3491 144.251C42.0128 146.873 40.8874 149.19 40.4185 150.444C40.4168 150.452 40.4168 150.46 40.4185 150.468C40.3099 150.76 40.2365 151.064 40.1997 151.374C40.1997 151.374 40.1997 151.394 40.1997 151.398C40.7116 152.324 61.3311 163.62 62.183 163.772C63.0348 163.925 63.5349 161.51 63.0856 160.432C62.6362 159.353 56.6696 151.499 56.6696 151.499L58.1505 148.655L44.7714 141.434Z" fill="white"/>
<path d="M57.9396 152.163C56.6658 151.217 54.8488 150.6 53.2898 151.073C53.2272 151.073 53.2546 151.178 53.2898 151.186C54.841 151.412 56.3633 151.805 57.8302 152.358C57.843 152.365 57.8572 152.37 57.8718 152.372C57.8864 152.374 57.9012 152.372 57.9153 152.368C57.9295 152.364 57.9427 152.358 57.9542 152.349C57.9658 152.339 57.9754 152.328 57.9826 152.315C57.9898 152.302 57.9944 152.288 57.9961 152.274C57.9978 152.259 57.9967 152.244 57.9927 152.23C57.9887 152.216 57.9819 152.203 57.9728 152.191C57.9637 152.18 57.9524 152.17 57.9396 152.163Z" fill="#263238"/>
<path d="M58.6584 153.265C57.3845 152.323 55.5637 151.702 54.0085 152.175C53.946 152.194 53.9733 152.28 54.0085 152.288C55.5595 152.515 57.0817 152.908 58.549 153.46C58.5618 153.468 58.5759 153.472 58.5905 153.474C58.6051 153.476 58.6199 153.474 58.6341 153.47C58.6482 153.466 58.6614 153.46 58.673 153.451C58.6845 153.441 58.6942 153.43 58.7013 153.417C58.7085 153.405 58.7131 153.39 58.7148 153.376C58.7166 153.361 58.7154 153.346 58.7114 153.332C58.7074 153.318 58.7007 153.305 58.6916 153.293C58.6825 153.282 58.6712 153.272 58.6584 153.265Z" fill="#263238"/>
<path d="M59.3734 154.371C58.0995 153.425 56.2787 152.808 54.7196 153.281C54.661 153.281 54.6883 153.382 54.7391 153.39C56.2894 153.611 57.8116 153.998 59.2796 154.543C59.3024 154.555 59.3292 154.558 59.3541 154.551C59.379 154.544 59.4 154.527 59.4124 154.504C59.4249 154.481 59.4277 154.454 59.4204 154.429C59.4131 154.404 59.3962 154.383 59.3734 154.371Z" fill="#263238"/>
<path d="M62.1791 163.773C61.3273 163.62 40.7077 152.328 40.1959 151.398C39.9966 151.05 41.4658 147.947 43.3531 144.251L43.4117 144.138L56.7947 151.277L56.6657 151.499C56.6657 151.499 62.6246 159.353 63.0817 160.432C63.5389 161.51 63.0192 163.929 62.1791 163.773Z" fill="#0660A0"/>
<path d="M62.386 162.846C58.9552 160.857 44.9393 153.156 41.3952 151.452C41.3679 151.452 41.3561 151.452 41.3952 151.472C44.7517 153.519 58.8341 161.104 62.3664 162.905C62.429 162.94 62.4563 162.889 62.386 162.846Z" fill="#263238"/>
<path d="M59.8933 146.978C60.0574 146.9 69.0523 130.023 72.4323 121.443C75.8122 112.862 80.1182 94.5088 80.9622 90.7498C80.9622 90.7498 83.6583 82.4231 84.4593 75.3311H66.2624C66.2624 75.3311 63.2693 82.638 63.9531 92.8364C63.9961 93.4655 58.5804 114.433 57.0487 117.223C54.7042 121.494 45.0411 138.835 44.7402 138.991L59.8933 146.978Z" fill="#455A64"/>
<path d="M77.2814 80.8998C76.3241 85.0261 75.4918 89.1836 74.6127 93.3255C73.7335 97.4674 72.8504 101.652 71.9673 105.829C71.5336 107.881 71.1116 109.94 70.6583 111.987C70.2319 114.007 69.6372 115.987 68.8805 117.907C68.099 119.802 67.2237 121.654 66.3523 123.503C65.481 125.351 64.5862 127.219 63.6836 129.067C61.8601 132.782 59.9936 136.47 58.0842 140.133C57.8498 140.586 57.6114 141.035 57.373 141.485C57.3535 141.52 57.4043 141.551 57.4238 141.516C59.4479 137.913 61.4094 134.272 63.285 130.575C65.1606 126.879 66.9853 123.194 68.6577 119.423C69.4902 117.56 70.1583 115.628 70.6544 113.648C71.1507 111.632 71.5414 109.584 71.9673 107.549L74.5814 94.9862C75.4489 90.8169 76.3202 86.6516 77.1681 82.4824C77.2736 81.9666 77.3752 81.4547 77.4729 80.9194C77.4768 80.8256 77.3088 80.7787 77.2814 80.8998Z" fill="#263238"/>
<path d="M46.9989 136.717C47.3897 136.869 47.8117 137.108 48.2063 137.295C48.601 137.483 49.0894 137.741 49.5348 137.956C50.3945 138.37 51.2502 138.796 52.102 139.233C53.8135 140.105 55.5132 141.019 57.1817 141.969L58.5571 142.75C59.0456 143.032 59.5184 143.34 60.0185 143.602C60.0576 143.602 60.0185 143.668 59.9951 143.649C59.1393 143.192 58.2328 142.809 57.3614 142.383C56.4901 141.957 55.65 141.535 54.8021 141.101C53.0906 140.222 51.3909 139.304 49.7224 138.339C49.2613 138.073 48.7963 137.819 48.3392 137.557C48.093 137.417 47.8507 137.272 47.6085 137.127C47.383 137.009 47.1639 136.878 46.952 136.737C46.913 136.748 46.9442 136.701 46.9989 136.717Z" fill="#263238"/>
<path d="M76.9102 140.809C76.9102 140.809 77.0391 156.184 77.0391 156.196C77.0391 159.134 77.1094 161.713 77.2657 163.046C77.2633 163.052 77.2633 163.059 77.2657 163.065C77.2661 163.381 77.3382 163.692 77.4767 163.976C78.3559 164.566 101.859 165.179 102.688 164.921C103.516 164.664 102.852 162.292 101.961 161.541C101.07 160.791 92.1961 156.552 92.1961 156.552L91.9343 141.176L76.9102 140.809Z" fill="#D3766A"/>
<path d="M77.0117 153.034C77.0117 153.034 77.0391 156.18 77.0391 156.191C77.0391 159.13 77.1094 161.709 77.2657 163.041C77.2633 163.047 77.2633 163.054 77.2657 163.061C77.3 163.373 77.3708 163.68 77.4767 163.975C78.3559 164.565 101.859 165.179 102.687 164.921C103.516 164.663 102.852 162.291 101.961 161.541C101.07 160.79 92.196 156.551 92.196 156.551V153.343L77.0117 153.034Z" fill="white"/>
<path d="M93.6339 156.552C92.0709 156.294 90.168 156.571 88.9997 157.724C88.9567 157.767 89.0192 157.833 89.07 157.814C90.5496 157.302 92.0795 156.95 93.6339 156.763C93.6619 156.763 93.6887 156.752 93.7085 156.732C93.7283 156.712 93.7394 156.685 93.7394 156.657C93.7394 156.629 93.7283 156.602 93.7085 156.583C93.6887 156.563 93.6619 156.552 93.6339 156.552Z" fill="#263238"/>
<path d="M94.7748 157.208C93.2118 156.95 91.3089 157.231 90.1405 158.38C90.0937 158.423 90.1405 158.485 90.207 158.47C91.6872 157.956 93.2187 157.603 94.7748 157.419C94.8027 157.419 94.8296 157.407 94.8494 157.388C94.8691 157.368 94.8803 157.341 94.8803 157.313C94.8803 157.285 94.8691 157.258 94.8494 157.238C94.8296 157.219 94.8027 157.208 94.7748 157.208Z" fill="#263238"/>
<path d="M95.9159 157.864C94.3529 157.606 92.45 157.884 91.2817 159.037C91.2348 159.08 91.2817 159.146 91.3481 159.126C92.8276 158.614 94.3576 158.262 95.912 158.075C95.94 158.076 95.967 158.065 95.9871 158.046C96.0073 158.026 96.0189 158 96.0194 157.972C96.0199 157.944 96.0093 157.917 95.9899 157.897C95.9705 157.876 95.9439 157.865 95.9159 157.864Z" fill="#263238"/>
<path d="M102.715 164.94C101.886 165.194 78.3832 164.585 77.504 163.991C77.168 163.772 77.0547 160.341 77.0391 156.176V156.047L92.2038 156.27V156.527C92.2038 156.527 101.097 160.783 101.996 161.537C102.895 162.291 103.543 164.686 102.715 164.94Z" fill="#0660A0"/>
<path d="M102.484 164.022C98.5261 163.819 82.5368 163.385 78.606 163.491C78.5747 163.491 78.5747 163.514 78.606 163.514C82.5134 163.8 98.5339 164.104 102.484 164.085C102.555 164.085 102.555 164.026 102.484 164.022Z" fill="#263238"/>
<path d="M74.1282 91.6094C74.1282 91.6094 76.7189 117.043 76.7618 117.641C76.7618 117.879 76.4141 151.217 76.4141 151.217L92.501 151.675C92.501 151.675 92.6378 120.493 92.376 116.898C92.3447 116.48 90.7856 89.9644 85.7958 75.3271H66.751C66.751 75.3271 66.919 83.9235 70.8303 90.1441C71.9562 90.5704 73.0572 91.0596 74.1282 91.6094Z" fill="#455A64"/>
<path d="M88.2535 120.489C88.1793 115.8 87.9839 111.088 87.6166 106.399C87.2493 101.71 86.6749 97.1384 85.9169 92.5432C85.1911 87.9163 84.1811 83.3386 82.8925 78.8359C82.7245 78.2732 82.5565 77.7106 82.3845 77.1479C82.3777 77.1353 82.3667 77.1254 82.3534 77.1199C82.3401 77.1145 82.3254 77.1137 82.3116 77.1179C82.2979 77.122 82.286 77.1307 82.2779 77.1426C82.2698 77.1545 82.2661 77.1688 82.2673 77.1831C83.4786 81.6923 84.5258 86.2366 85.319 90.8357C86.1122 95.4347 86.6358 100.12 87.0305 104.789C87.4251 109.459 87.6518 114.167 87.769 118.856C87.8862 123.545 87.8979 128.234 87.851 132.923C87.8041 137.612 87.6244 139.44 87.6088 144.129C87.6088 144.719 87.6088 145.301 87.5892 145.891C87.5892 145.934 87.6518 145.931 87.6518 145.891C87.7377 143.547 87.8784 141.203 87.9565 138.831C88.0347 136.459 88.105 136.975 88.1597 134.615C88.2691 129.93 88.3277 125.209 88.2535 120.489Z" fill="#263238"/>
<path d="M76.6716 92.7781C75.7338 92.2663 74.7765 91.8052 73.7957 91.3871C72.815 90.969 71.8068 90.5861 70.83 90.1484C70.7909 90.1484 70.7596 90.1875 70.7987 90.207C71.7599 90.7033 72.7016 91.2347 73.6746 91.7036C74.631 92.1622 75.618 92.5539 76.6286 92.8758C76.695 92.9032 76.7263 92.8094 76.6716 92.7781Z" fill="#263238"/>
<path d="M75.4877 102.918C75.2494 100.519 74.9915 98.1237 74.7062 95.7324C74.6203 95.0564 74.5343 94.3804 74.4445 93.7083C74.3789 93.0574 74.2719 92.4114 74.124 91.7741C74.124 91.739 74.0654 91.7507 74.0654 91.7741C74.0687 92.3882 74.1091 93.0015 74.1866 93.6106C74.2452 94.189 74.296 94.7829 74.3546 95.3455C74.4679 96.5178 74.5734 97.7252 74.6945 98.913C74.9368 101.297 75.1478 103.68 75.3901 106.06C75.5307 107.416 75.6558 108.768 75.8511 110.116C75.8511 110.136 75.8594 110.156 75.874 110.171C75.8887 110.186 75.9085 110.194 75.9293 110.194C75.95 110.194 75.9699 110.186 75.9845 110.171C75.9992 110.156 76.0074 110.136 76.0074 110.116C75.9527 107.709 75.7222 105.31 75.4877 102.918Z" fill="#263238"/>
<path d="M77.5078 147.955C77.9377 147.916 78.4066 147.955 78.8442 147.955C79.3404 147.955 79.8367 147.974 80.3329 147.974C81.2863 147.974 82.2411 147.985 83.1971 148.006C85.1195 148.049 87.0459 148.135 88.9645 148.271L90.5509 148.389C91.1135 148.432 91.6762 148.502 92.2389 148.521C92.2819 148.521 92.278 148.576 92.2389 148.572C91.2698 148.533 90.2852 148.572 89.32 148.572C88.3549 148.572 87.4093 148.549 86.4559 148.525C84.5334 148.478 82.6031 148.389 80.6885 148.244C80.1571 148.201 79.6296 148.174 79.1021 148.139L78.2581 148.068C78.0041 148.049 77.754 148.068 77.5039 148.017C77.4766 147.998 77.4766 147.955 77.5078 147.955Z" fill="#263238"/>
<path d="M78.3753 56.2549C79.1802 58.9902 83.455 67.2388 87.8157 68.368C91.7231 69.3722 102.273 60.4203 105.165 55.9424C106.185 54.3794 98.272 52.4257 96.6348 52.8711C95.2281 53.2618 89.0856 59.5137 88.5425 59.3145C87.6242 58.9628 85.4829 57.0755 82.0014 54.1332C78.727 51.3589 77.8087 54.3286 78.3753 56.2549Z" fill="#D3766A"/>
<path d="M94.7397 53.6532L104.481 57.7521C104.481 57.7521 93.3877 69.8965 87.7063 68.7203C86.3973 68.4507 80.6378 64.0001 78.2894 57.0527C77.5626 54.8997 77.6955 50.4101 82.5641 54.3956C87.4328 58.3812 88.4448 58.9713 88.6363 58.9517C88.8278 58.9322 94.7397 53.6532 94.7397 53.6532Z" fill="#A6A6A6"/>
<path d="M102.484 59.1897C101.765 58.7677 100.984 58.4395 100.23 58.0918C99.4756 57.744 98.741 57.408 97.9946 57.0719C96.4825 56.3959 94.9781 55.677 93.4268 55.1182C93.4199 55.1164 93.4126 55.117 93.406 55.12C93.3995 55.1229 93.3942 55.1281 93.391 55.1345C93.3878 55.1409 93.3869 55.1482 93.3884 55.1552C93.39 55.1622 93.3939 55.1684 93.3995 55.1729C94.8491 56.0013 96.3887 56.6812 97.9087 57.3728C98.6667 57.7166 99.4313 58.0527 100.202 58.3809C100.939 58.7176 101.695 59.0125 102.465 59.264C102.484 59.2562 102.508 59.2054 102.484 59.1897Z" fill="#263238"/>
<path d="M126.82 63.3942L126.957 62.8393C127.076 62.3456 126.994 61.8248 126.73 61.3912C126.465 60.9576 126.04 60.6465 125.546 60.5261L75.7264 48.4131L74.687 52.6917L124.507 64.8048C124.751 64.8642 125.005 64.8749 125.254 64.8361C125.502 64.7974 125.741 64.71 125.956 64.579C126.171 64.448 126.358 64.2759 126.506 64.0726C126.654 63.8693 126.761 63.6388 126.82 63.3942Z" fill="#0660A0"/>
<path opacity="0.2" d="M126.82 63.3942L126.957 62.8393C127.076 62.3456 126.994 61.8248 126.73 61.3912C126.465 60.9576 126.04 60.6465 125.546 60.5261L75.7264 48.4131L74.687 52.6917L124.507 64.8048C124.751 64.8642 125.005 64.8749 125.254 64.8361C125.502 64.7974 125.741 64.71 125.956 64.579C126.171 64.448 126.358 64.2759 126.506 64.0726C126.654 63.8693 126.761 63.6388 126.82 63.3942Z" fill="black"/>
<path opacity="0.1" d="M75.7223 48.4209L74.6831 52.7002L80.7167 54.1654L81.7559 49.8861L75.7223 48.4209Z" fill="black"/>
<path d="M62.2141 61.71C63.489 62.0201 64.8125 62.0759 66.109 61.8743C67.4055 61.6727 68.6495 61.2176 69.7701 60.5351C70.8906 59.8525 71.8657 58.9558 72.6395 57.8963C73.4134 56.8368 73.971 55.6352 74.2803 54.3601L76.1246 46.7718C76.4629 45.4871 76.5416 44.1478 76.3561 42.8323C76.1705 41.5168 75.7245 40.2515 75.0441 39.1104C74.3636 37.9694 73.4625 36.9755 72.3933 36.1869C71.3241 35.3983 70.1084 34.8309 68.8173 34.5178C67.5262 34.2047 66.1856 34.1522 64.874 34.3634C63.5624 34.5747 62.306 35.0454 61.1785 35.748C60.051 36.4506 59.0749 37.371 58.3074 38.4554C57.5399 39.5398 56.9963 40.7664 56.7085 42.0634L54.8642 49.6555C54.2415 52.2286 54.6659 54.9437 56.0441 57.2041C57.4223 59.4644 59.6415 61.0851 62.2141 61.71ZM62.9448 58.7052C59.4281 57.8533 57.1735 54.7157 57.9081 51.6952C58.4591 49.4367 60.5222 47.8855 62.9878 47.6041C60.9169 46.217 59.7915 43.8921 60.3425 41.6336C61.0732 38.617 64.5156 36.8548 68.0323 37.7066C71.549 38.5584 73.7997 41.7078 73.069 44.74C72.522 46.9985 70.4588 48.5458 67.9893 48.8311C70.0642 50.2182 71.1856 52.5431 70.6386 54.8016C69.904 57.8065 66.4576 59.5609 62.9448 58.7052Z" fill="#0660A0"/>
<path opacity="0.2" d="M62.2141 61.71C63.489 62.0201 64.8125 62.0759 66.109 61.8743C67.4055 61.6727 68.6495 61.2176 69.7701 60.5351C70.8906 59.8525 71.8657 58.9558 72.6395 57.8963C73.4134 56.8368 73.971 55.6352 74.2803 54.3601L76.1246 46.7718C76.4629 45.4871 76.5416 44.1478 76.3561 42.8323C76.1705 41.5168 75.7245 40.2515 75.0441 39.1104C74.3636 37.9694 73.4625 36.9755 72.3933 36.1869C71.3241 35.3983 70.1084 34.8309 68.8173 34.5178C67.5262 34.2047 66.1856 34.1522 64.874 34.3634C63.5624 34.5747 62.306 35.0454 61.1785 35.748C60.051 36.4506 59.0749 37.371 58.3074 38.4554C57.5399 39.5398 56.9963 40.7664 56.7085 42.0634L54.8642 49.6555C54.2415 52.2286 54.6659 54.9437 56.0441 57.2041C57.4223 59.4644 59.6415 61.0851 62.2141 61.71ZM62.9448 58.7052C59.4281 57.8533 57.1735 54.7157 57.9081 51.6952C58.4591 49.4367 60.5222 47.8855 62.9878 47.6041C60.9169 46.217 59.7915 43.8921 60.3425 41.6336C61.0732 38.617 64.5156 36.8548 68.0323 37.7066C71.549 38.5584 73.7997 41.7078 73.069 44.74C72.522 46.9985 70.4588 48.5458 67.9893 48.8311C70.0642 50.2182 71.1856 52.5431 70.6386 54.8016C69.904 57.8065 66.4576 59.5609 62.9448 58.7052Z" fill="black"/>
<path d="M76.2072 55.0537L78.152 47.0456C78.267 46.5717 77.9762 46.0942 77.5022 45.9791L77.244 45.9164C76.7701 45.8013 76.2926 46.0922 76.1775 46.5661L74.2327 54.5742C74.1176 55.0481 74.4085 55.5256 74.8825 55.6407L75.1407 55.7034C75.6146 55.8185 76.0921 55.5276 76.2072 55.0537Z" fill="#0660A0"/>
<path opacity="0.2" d="M76.2072 55.0537L78.152 47.0456C78.267 46.5717 77.9762 46.0942 77.5022 45.9791L77.244 45.9164C76.7701 45.8013 76.2926 46.0922 76.1775 46.5661L74.2327 54.5742C74.1176 55.0481 74.4085 55.5256 74.8825 55.6407L75.1407 55.7034C75.6146 55.8185 76.0921 55.5276 76.2072 55.0537Z" fill="black"/>
<path d="M78.1813 55.5293L80.1261 47.5212C80.2412 47.0473 79.9503 46.5698 79.4763 46.4547L79.2181 46.392C78.7442 46.2769 78.2667 46.5678 78.1516 47.0417L76.2069 55.0498C76.0918 55.5237 76.3827 56.0012 76.8566 56.1163L77.1148 56.179C77.5887 56.2941 78.0662 56.0032 78.1813 55.5293Z" fill="#0660A0"/>
<path opacity="0.2" d="M78.1813 55.5293L80.1261 47.5212C80.2412 47.0473 79.9503 46.5698 79.4763 46.4547L79.2181 46.392C78.7442 46.2769 78.2667 46.5678 78.1516 47.0417L76.2069 55.0498C76.0918 55.5237 76.3827 56.0012 76.8566 56.1163L77.1148 56.179C77.5887 56.2941 78.0662 56.0032 78.1813 55.5293Z" fill="black"/>
<path d="M111.94 63.613L113.429 63.9764L112.378 68.298L113.648 68.6067L114.199 66.3521L115.68 66.7155L115.137 68.9662L116.262 69.2397L117.126 65.68L118.614 66.0395L117.751 69.6031L119.349 69.9899L120.505 65.2307L121.994 65.594L120.838 70.3533L122.346 70.7206L123.827 64.6367L110.53 61.4092L109.053 67.4892L110.889 67.9385L111.94 63.613Z" fill="#0660A0"/>
<path opacity="0.2" d="M111.94 63.613L113.429 63.9764L112.378 68.298L113.648 68.6067L114.199 66.3521L115.68 66.7155L115.137 68.9662L116.262 69.2397L117.126 65.68L118.614 66.0395L117.751 69.6031L119.349 69.9899L120.505 65.2307L121.994 65.594L120.838 70.3533L122.346 70.7206L123.827 64.6367L110.53 61.4092L109.053 67.4892L110.889 67.9385L111.94 63.613Z" fill="black"/>
<path d="M93.0127 51.3205C94.5483 50.8556 96.588 49.4098 97.7798 49.445C98.0744 49.4427 98.3619 49.5353 98.5998 49.7091C98.8376 49.8829 99.0132 50.1287 99.1005 50.4101C99.1005 50.4101 99.8585 49.3317 100.937 49.5427C101.488 49.6482 101.804 50.6289 101.804 50.6289C101.989 50.3933 102.236 50.2133 102.516 50.1085C102.797 50.0037 103.101 49.9783 103.395 50.035C104.149 50.2343 104.352 51.1877 104.352 51.1877C104.352 51.1877 105.348 50.668 106.052 51.1173C107.478 52.02 106.486 58.6392 103.895 59.2917C102.688 59.6004 103.016 57.9944 103.016 57.9944C103.016 57.9944 101.984 60.1865 100.617 60.0146C99.249 59.8427 99.8038 57.7873 99.8038 57.7873C99.8038 57.7873 98.784 59.9013 97.3812 59.5809C95.9784 59.2605 96.8303 57.2872 96.8303 57.2872C96.8303 57.2872 95.6111 58.6079 94.5952 58.1195C92.915 57.3106 95.5486 54.8568 95.4236 53.3524L93.1455 52.1802L93.0127 51.3205Z" fill="#D3766A"/>
<path d="M95.2947 50.3084C93.8021 50.621 92.3172 48.6086 90.8441 48.7024C88.8552 48.8313 90.4182 51.2852 93.1456 52.1878L95.3885 52.5161L95.2947 50.3084Z" fill="#D3766A"/>
<path d="M104.407 51.332C104.407 51.3086 104.438 51.3086 104.442 51.332C104.661 53.6762 104.161 56.0315 103.008 58.0841C102.973 58.1505 102.852 58.1154 102.879 58.0372C103.71 55.888 104.225 53.6293 104.407 51.332Z" fill="#263238"/>
<path d="M101.824 50.6011C101.824 50.5738 101.867 50.5777 101.871 50.6011C102.087 53.1884 101.37 55.7677 99.8508 57.8729C99.7961 57.9432 99.675 57.951 99.7297 57.8729C100.695 56.3919 101.703 52.758 101.824 50.6011Z" fill="#263238"/>
<path d="M96.6664 57.4042C98.1317 55.3332 98.7842 53.0005 99.1124 50.5075C99.1124 50.4724 99.1632 50.4841 99.1672 50.5075C99.3391 51.7696 98.964 53.3365 98.5693 54.5322C98.2235 55.6484 97.5918 56.6546 96.7367 57.4511C96.7016 57.4862 96.6234 57.4472 96.6664 57.4042Z" fill="#263238"/>
<path d="M81.5407 57.6499C80.5091 57.603 78.5554 55.4969 77.8716 53.805C78.0125 52.9184 78.1977 52.0395 78.4264 51.1714C78.6062 50.3274 78.7859 49.3857 78.8875 48.5143C78.8875 48.3346 79.4775 48.7332 79.4775 48.7332L80.5755 49.1239L84.2055 50.4681C83.7667 51.5222 83.4571 52.6256 83.2834 53.7542C83.2737 53.8752 83.2737 53.9967 83.2834 54.1176C83.2834 54.1176 83.2834 54.1528 83.2834 54.1762C83.3146 54.8874 83.1505 57.7281 81.5407 57.6499Z" fill="#D3766A"/>
<path d="M83.2793 54.1334C83.2793 54.1334 83.2793 54.1686 83.2793 54.192C83.0898 54.1951 82.9003 54.1833 82.7127 54.1569C79.0358 53.645 79.1218 48.9053 79.1218 48.9053L80.5714 49.1397L84.2014 50.4839C83.7626 51.5381 83.453 52.6415 83.2793 53.77C83.2696 53.891 83.2696 54.0125 83.2793 54.1334Z" fill="#263238"/>
<path d="M79.6532 41.1057C78.6138 42.8641 78.2895 48.5924 79.3445 50.1436C80.8762 52.3904 84.0334 53.3321 86.1161 51.3432C88.1284 49.4168 88.4176 41.9458 87.175 40.4688C85.3502 38.2924 81.1888 38.5073 79.6532 41.1057Z" fill="#D3766A"/>
<path d="M84.549 45.6465C84.549 45.6465 84.5216 45.6465 84.5216 45.6777C84.5216 46.0685 84.4669 46.51 84.1309 46.6312C84.1309 46.6312 84.1309 46.6546 84.1309 46.6507C84.545 46.5999 84.6193 46.0099 84.549 45.6465Z" fill="#263238"/>
<path d="M84.2134 45.2364C83.5921 45.1778 83.5217 46.4086 84.0961 46.4751C84.6705 46.5415 84.733 45.2833 84.2134 45.2364Z" fill="#263238"/>
<path d="M86.6082 45.6934C86.6082 45.6934 86.6356 45.7129 86.6356 45.7285C86.6004 46.1193 86.6356 46.5608 86.9677 46.7093C86.9677 46.7093 86.9677 46.7327 86.9677 46.7288C86.5418 46.6468 86.5144 46.0528 86.6082 45.6934Z" fill="#263238"/>
<path d="M86.9757 45.3105C87.597 45.3105 87.5775 46.5453 86.9992 46.557C86.4209 46.5687 86.4639 45.3223 86.9757 45.3105Z" fill="#263238"/>
<path d="M83.752 44.6383C83.9184 44.5984 84.0828 44.5502 84.2443 44.4938C84.4251 44.4687 84.5926 44.385 84.7211 44.2554C84.7535 44.2068 84.7684 44.1486 84.7634 44.0904C84.7585 44.0322 84.7339 43.9774 84.6937 43.935C84.6042 43.8609 84.4965 43.8121 84.3818 43.7935C84.2671 43.775 84.1495 43.7874 84.0411 43.8295C83.8059 43.882 83.5993 44.0216 83.4629 44.2203C83.4363 44.2664 83.4233 44.3191 83.4255 44.3723C83.4277 44.4255 83.445 44.4769 83.4752 44.5207C83.5055 44.5645 83.5476 44.5988 83.5966 44.6196C83.6456 44.6404 83.6995 44.6469 83.752 44.6383Z" fill="#263238"/>
<path d="M87.4369 44.8497C87.2715 44.8058 87.1085 44.7537 86.9484 44.6934C86.7691 44.6608 86.6048 44.5719 86.4796 44.4394C86.4495 44.3895 86.4366 44.3312 86.443 44.2733C86.4493 44.2154 86.4746 44.1612 86.5147 44.119C86.6063 44.047 86.7156 44.0011 86.8311 43.986C86.9467 43.9708 87.0641 43.9871 87.1712 44.033C87.4016 44.0892 87.6033 44.2283 87.7377 44.4238C87.768 44.4709 87.7835 44.526 87.7823 44.582C87.781 44.638 87.7631 44.6923 87.7308 44.7381C87.6985 44.7838 87.6532 44.8189 87.6009 44.8388C87.5485 44.8587 87.4914 44.8625 87.4369 44.8497Z" fill="#263238"/>
<path d="M83.7598 49.2022C83.8496 49.2998 83.9317 49.4288 84.0724 49.4483C84.2168 49.4545 84.3608 49.4291 84.4944 49.3741C84.4944 49.3741 84.5178 49.3741 84.4944 49.3741C84.435 49.4476 84.3567 49.5036 84.2679 49.536C84.1791 49.5683 84.0831 49.5759 83.9903 49.5577C83.9126 49.5326 83.8441 49.4851 83.7934 49.4211C83.7426 49.3571 83.7119 49.2796 83.7051 49.1982C83.7285 49.1943 83.7481 49.1904 83.7598 49.2022Z" fill="#263238"/>
<path d="M84.2327 48.073C84.3224 48.2309 84.4436 48.3686 84.5888 48.4775C84.734 48.5864 84.9001 48.6642 85.0767 48.706C85.2298 48.7453 85.3879 48.7611 85.5456 48.7529C85.5768 48.7567 85.6083 48.7567 85.6394 48.7529H85.7215C85.7426 48.7511 85.7625 48.7419 85.7775 48.7269C85.7925 48.7119 85.8017 48.692 85.8035 48.6709C85.8074 48.6581 85.8074 48.6445 85.8035 48.6318V48.6005C85.8309 48.3036 85.827 47.8503 85.827 47.8503C85.9325 47.9089 86.4717 48.1903 86.4717 48.034C86.5133 46.6889 86.4191 45.3432 86.1904 44.0171C86.1878 44.0093 86.1828 44.0025 86.1762 43.9977C86.1695 43.9928 86.1615 43.9902 86.1532 43.9902C86.145 43.9902 86.137 43.9928 86.1303 43.9977C86.1237 44.0025 86.1187 44.0093 86.1161 44.0171C86.0731 45.2558 86.2451 46.4944 86.2177 47.7409C86.026 47.6374 85.8209 47.5611 85.6081 47.5143C85.5652 47.5143 85.6316 48.3934 85.6081 48.5224C85.3638 48.533 85.1199 48.4941 84.8909 48.4082C84.662 48.3223 84.4527 48.191 84.2757 48.0222C84.2445 48.0144 84.2093 48.0379 84.2327 48.073Z" fill="#263238"/>
<path d="M85.3815 48.5929C85.2054 48.7955 84.9809 48.9501 84.7289 49.0423C84.5905 49.0874 84.4414 49.0874 84.303 49.0423C83.9982 48.9446 84.006 48.6515 84.0764 48.4249C84.1151 48.2978 84.1689 48.1759 84.2366 48.0615C84.5519 48.3559 84.953 48.5421 85.3815 48.5929Z" fill="#263238"/>
<path d="M84.7289 49.0422C84.5905 49.0873 84.4414 49.0873 84.303 49.0422C83.9982 48.9445 84.006 48.6514 84.0764 48.4248C84.2388 48.439 84.3917 48.5077 84.5102 48.6198C84.6286 48.7319 84.7057 48.8808 84.7289 49.0422Z" fill="#D3766A"/>
<path d="M78.7741 47.1154C79.8603 46.8223 80.4621 43.2079 80.4621 43.2079C80.4621 43.2079 80.4308 44.7514 80.72 44.7162C81.0091 44.681 82.2243 42.6062 82.3767 41.1096C83.2251 41.6845 84.1445 42.1468 85.1119 42.485C86.4756 42.9149 87.9956 42.8445 87.9995 42.6101C87.9995 41.9146 87.4017 40.0937 86.4678 39.4372C85.7866 38.9077 84.9779 38.5672 84.1231 38.4499C83.2684 38.3326 82.3978 38.4427 81.5991 38.7691C79.3445 39.5975 78.7389 41.0315 78.3911 42.1412C78.0434 43.2509 78.3755 47.2248 78.7741 47.1154Z" fill="#263238"/>
<path d="M83.3377 47.6631C83.0054 47.5947 82.6991 47.4345 82.4533 47.2007C82.2076 46.9669 82.0324 46.6688 81.9477 46.3404C81.8629 46.0119 81.872 45.6663 81.9738 45.3428C82.0757 45.0193 82.2662 44.7308 82.5239 44.5102C82.7815 44.2895 83.0959 44.1456 83.4312 44.0947C83.7666 44.0439 84.1095 44.0881 84.4209 44.2223C84.7324 44.3566 85 44.5756 85.1932 44.8543C85.3865 45.1331 85.4976 45.4605 85.5141 45.7992C85.5364 46.28 85.3671 46.7499 85.0433 47.1059C84.7195 47.4619 84.2677 47.675 83.787 47.6983C83.6363 47.7064 83.4852 47.6946 83.3377 47.6631ZM84.0175 44.3418C83.8889 44.3169 83.7577 44.3077 83.6268 44.3144C83.2299 44.3366 82.8563 44.5091 82.5821 44.797C82.308 45.0849 82.1538 45.4664 82.151 45.8639C82.1481 46.2614 82.2969 46.6451 82.567 46.9368C82.8371 47.2285 83.2082 47.4064 83.6048 47.4341C84.0013 47.4619 84.3936 47.3375 84.7017 47.0862C85.0097 46.835 85.2105 46.4758 85.2631 46.0818C85.3157 45.6877 85.2162 45.2884 84.9848 44.9652C84.7534 44.6419 84.4075 44.419 84.0175 44.3418Z" fill="#0660A0"/>
<path d="M87.4878 47.9944C86.8079 47.8538 86.3156 47.0332 86.4132 46.0876C86.4432 45.6363 86.6141 45.2058 86.9017 44.8567C87.0164 44.6995 87.1698 44.5745 87.3469 44.4937C87.5241 44.4129 87.719 44.3792 87.913 44.3957C88.107 44.4122 88.2934 44.4784 88.4544 44.5879C88.6153 44.6974 88.7454 44.8465 88.832 45.0209C89.0546 45.4148 89.1501 45.8679 89.1055 46.3181C89.0195 47.3145 88.3474 48.0765 87.605 48.0101C87.5655 48.0087 87.5263 48.0035 87.4878 47.9944ZM87.984 44.6497C87.9529 44.6459 87.9214 44.6459 87.8903 44.6497C87.7345 44.645 87.5799 44.6781 87.4398 44.7461C87.2996 44.8142 87.178 44.9151 87.0853 45.0404C86.8317 45.3518 86.6803 45.7339 86.6516 46.1345C86.5813 46.998 87.015 47.7443 87.6246 47.7951C88.2341 47.8459 88.7968 47.1895 88.8632 46.326C88.9083 45.9199 88.8249 45.5099 88.6249 45.1537C88.5596 45.0293 88.4688 44.92 88.3584 44.8331C88.2479 44.7463 88.1204 44.6837 87.984 44.6497Z" fill="#0660A0"/>
<path d="M85.4322 46.0021L85.2915 45.8028C85.5885 45.5957 86.2488 45.3417 86.6474 45.8497L86.4598 46.0021C86.1003 45.5449 85.4595 45.9708 85.4322 46.0021Z" fill="#0660A0"/>
<path d="M77.3321 45.7796L77.1289 45.6506C77.1875 45.5568 77.7346 44.7128 78.2816 44.6738C78.8286 44.6347 82.0093 45.2169 82.1461 45.2403L82.0992 45.4787C81.1809 45.3107 78.6958 44.8848 78.2972 44.916C77.8987 44.9473 77.4767 45.549 77.3321 45.7796Z" fill="#0660A0"/>
<path d="M79.7431 45.8618C79.7431 45.8618 78.8913 43.8026 77.9847 44.0722C77.0782 44.3418 77.4455 47.1278 78.3169 47.6905C78.4237 47.7701 78.5454 47.8273 78.6749 47.8586C78.8043 47.89 78.9388 47.8949 79.0702 47.873C79.2015 47.8511 79.3271 47.8029 79.4394 47.7312C79.5517 47.6596 79.6483 47.566 79.7235 47.456L79.7431 45.8618Z" fill="#D3766A"/>
<path d="M78.1095 44.8691C78.1095 44.8691 78.0861 44.8691 78.1095 44.8926C78.7191 45.3068 78.9301 46.0023 79.0356 46.6978C79.0122 46.6203 78.9719 46.549 78.9176 46.489C78.8633 46.429 78.7964 46.3818 78.7216 46.3507C78.6469 46.3197 78.5661 46.3057 78.4853 46.3096C78.4045 46.3135 78.3255 46.3354 78.2541 46.3735C78.2346 46.3735 78.2541 46.4126 78.2541 46.4165C78.3787 46.4043 78.504 46.4312 78.6126 46.4935C78.7211 46.5558 78.8075 46.6505 78.8598 46.7643C78.9477 46.9557 79.0145 47.1562 79.0591 47.3621C79.0591 47.4285 79.188 47.4207 79.1841 47.3621V47.3426C79.399 46.4868 79.0004 45.1544 78.1095 44.8691Z" fill="#263238"/>
<path d="M85.319 38.7221C84.6329 38.2786 83.885 37.9389 83.0996 37.7139C82.2204 37.4795 79.3641 37.3232 78.606 37.7843C77.848 38.2454 77.3087 40.9102 77.2384 41.301C77.1681 41.6917 77.0196 44.0674 77.7933 44.7512C78.5669 45.435 79.196 41.4455 80.7238 40.3046C82.2517 39.1636 85.319 38.7221 85.319 38.7221Z" fill="#0660A0"/>
<path opacity="0.1" d="M85.3189 38.7226C85.3189 38.7226 82.2516 39.1446 80.7277 40.2856C79.2038 41.4266 78.5708 45.4161 77.7932 44.7323C77.4415 44.3737 77.2462 43.8904 77.2501 43.3881C77.59 42.2432 78.309 40.4927 79.4578 39.3713C80.5284 38.3202 82.193 37.9372 83.8888 37.9763C84.3853 38.1851 84.8637 38.4348 85.3189 38.7226Z" fill="black"/>
<path d="M77.7034 47.1431C77.9261 46.0881 79.3992 43.3802 80.759 41.8993C82.1188 40.4184 85.5925 39.9221 86.0575 40.012C87.1828 40.2347 87.3079 40.8365 87.5032 40.7583C87.6986 40.6802 86.8546 39.4611 86.5615 39.2266C86.2685 38.9922 85.4714 38.4256 84.979 38.3709C84.4867 38.3162 81.3998 38.199 80.1182 39.3477C78.8365 40.4965 76.7734 43.9116 76.9336 44.8846C76.9727 45.1151 77.2501 45.2988 77.3009 45.6309C77.3673 46.0607 77.3869 46.5531 77.4728 46.8617C77.5432 47.1118 77.6838 47.233 77.7034 47.1431Z" fill="#0660A0"/>
<path d="M81.1225 41.2034C80.8823 41.0088 80.66 40.793 80.4583 40.5587C80.2483 40.329 80.0672 40.0744 79.919 39.8007C79.919 39.7811 79.876 39.8007 79.8878 39.8007C79.9964 40.1036 80.1549 40.3862 80.3567 40.6369C80.561 40.8819 80.8087 41.0872 81.0873 41.2425C81.1186 41.2816 81.146 41.223 81.1225 41.2034Z" fill="#263238"/>
<path d="M77.8361 46.0759C77.8116 45.9963 77.7829 45.918 77.7502 45.8414C77.7196 45.7514 77.6987 45.6584 77.6876 45.564C77.6903 45.3843 77.6733 45.2047 77.6368 45.0287C77.5843 44.8911 77.5161 44.76 77.4337 44.6379C77.332 44.5062 77.2795 44.3432 77.2852 44.1769C77.2852 44.1534 77.2539 44.1456 77.25 44.1769C77.2565 44.4843 77.3398 44.7851 77.4923 45.0521C77.5354 45.2393 77.5589 45.4305 77.5626 45.6226C77.5825 45.804 77.6607 45.974 77.7853 46.1071C77.8049 46.1189 77.8439 46.1032 77.8361 46.0759Z" fill="#263238"/>
<path d="M78.3638 44.9748C78.2735 44.8492 78.19 44.7187 78.1137 44.5841C78.0454 44.445 77.9867 44.3014 77.9379 44.1543C77.891 44.0097 77.8519 43.8612 77.805 43.7166C77.7581 43.5721 77.6761 43.3767 77.6331 43.2048C77.6331 43.1813 77.594 43.2048 77.5979 43.2048C77.6448 43.3845 77.6605 43.5721 77.7034 43.7557C77.7403 43.914 77.7886 44.0694 77.848 44.2207C77.9009 44.3661 77.9676 44.5061 78.0473 44.6388C78.1225 44.7742 78.2249 44.8927 78.3482 44.9865C78.3482 44.9865 78.3677 44.9865 78.3638 44.9748Z" fill="#263238"/>
<path d="M78.8912 43.9857C78.694 43.7655 78.5295 43.5181 78.4027 43.2511C78.2816 42.9893 78.1722 42.7197 78.0706 42.4696C78.0706 42.4501 78.0315 42.4696 78.0354 42.4696C78.0837 42.7661 78.1704 43.0551 78.2933 43.3293C78.3518 43.4679 78.4266 43.599 78.5161 43.72C78.6195 43.8385 78.7362 43.9447 78.8638 44.0365C78.8638 44.0365 78.9068 44.017 78.8912 43.9857Z" fill="#263238"/>
<path d="M79.45 43.044C79.3491 42.9525 79.2668 42.8424 79.2077 42.7196C79.1335 42.5907 79.0593 42.4539 78.9889 42.3289C78.9186 42.2039 78.8561 42.071 78.7896 41.9382C78.7141 41.8104 78.6674 41.6677 78.6529 41.5201C78.6529 41.5005 78.6177 41.4966 78.6177 41.5201C78.6088 41.6674 78.63 41.815 78.6802 41.9538C78.7289 42.1102 78.7916 42.262 78.8678 42.407C78.9409 42.549 79.0231 42.6861 79.114 42.8173C79.186 42.9416 79.2954 43.04 79.4266 43.0987C79.4301 43.1002 79.434 43.101 79.4379 43.1011C79.4418 43.1011 79.4457 43.1004 79.4493 43.0989C79.453 43.0975 79.4563 43.0953 79.4591 43.0926C79.4619 43.0899 79.4641 43.0866 79.4656 43.083C79.4672 43.0794 79.468 43.0756 79.468 43.0717C79.4681 43.0678 79.4674 43.0639 79.4659 43.0603C79.4645 43.0566 79.4623 43.0533 79.4596 43.0505C79.4568 43.0477 79.4536 43.0455 79.45 43.044Z" fill="#263238"/>
<path d="M79.9307 41.8213C79.8447 41.7119 79.7587 41.6025 79.6806 41.4853C79.6024 41.368 79.536 41.2469 79.4657 41.1258C79.3953 41.0046 79.3172 40.8718 79.2547 40.735C79.2547 40.7116 79.2156 40.735 79.2195 40.735C79.2577 40.8764 79.306 41.0148 79.3641 41.1492C79.4254 41.2841 79.4959 41.4147 79.5751 41.54C79.6517 41.6606 79.7352 41.7767 79.8252 41.8877C79.9109 42.0037 80.0184 42.1019 80.1417 42.1769C80.1417 42.1769 80.1846 42.1769 80.1729 42.1456C80.1033 42.0296 80.0222 41.921 79.9307 41.8213Z" fill="#263238"/>
<path d="M82.0212 40.7075C81.9374 40.5622 81.8461 40.4213 81.7477 40.2855C81.6453 40.1484 81.5343 40.0179 81.4155 39.8947C81.1901 39.6446 80.9386 39.4193 80.6653 39.2227C80.6653 39.2227 80.6262 39.2227 80.6419 39.25C81.0834 39.7502 81.5523 40.2308 81.9938 40.7387C82.0056 40.7466 82.0329 40.727 82.0212 40.7075Z" fill="#263238"/>
<path d="M82.7907 39.8831C82.7007 39.741 82.5945 39.6099 82.4742 39.4924C82.2179 39.2499 81.9347 39.0375 81.6302 38.8594C81.6106 38.8594 81.5911 38.8594 81.6106 38.8867C81.8607 39.1055 82.1147 39.3244 82.3531 39.5588C82.4703 39.676 82.5875 39.7972 82.693 39.9261C82.7985 40.055 82.8688 40.2035 82.9704 40.3364H82.9939C82.9551 40.1739 82.8861 40.0202 82.7907 39.8831Z" fill="#263238"/>
<path d="M84.4475 39.1447C84.3498 39.0392 84.2443 38.9376 84.1388 38.836C84.0389 38.7337 83.9243 38.6468 83.7989 38.5781C83.7793 38.5781 83.7637 38.5781 83.7793 38.6094C83.9747 38.8126 84.1701 39.0197 84.3537 39.2268C84.5164 39.4298 84.6566 39.6499 84.7718 39.8832C84.7718 39.8832 84.7953 39.8832 84.7914 39.8832C84.7561 39.6073 84.636 39.3492 84.4475 39.1447Z" fill="#263238"/>
<path d="M85.2917 39.0822C85.1113 38.8622 84.8913 38.678 84.6431 38.5391C84.6236 38.5391 84.6079 38.5586 84.6236 38.5703C84.8444 38.7313 85.0394 38.925 85.2019 39.1447C85.3682 39.3635 85.5109 39.5993 85.6278 39.8481C85.6278 39.8481 85.6551 39.8481 85.6512 39.8481C85.5946 39.5676 85.4713 39.3049 85.2917 39.0822Z" fill="#263238"/>
<path d="M86.2569 39.7191C86.2382 39.6587 86.2147 39.5999 86.1865 39.5432C86.13 39.4294 86.0633 39.3208 85.9873 39.2189C85.8267 39.0186 85.646 38.8353 85.448 38.6719C85.448 38.6719 85.409 38.6719 85.4246 38.6992C85.6133 38.8631 85.7813 39.0494 85.9247 39.2541C85.9959 39.3549 86.0599 39.4607 86.1162 39.5706C86.1436 39.6253 86.167 39.68 86.1904 39.7347C86.2068 39.7916 86.2291 39.8466 86.2569 39.8988H86.2881C86.2885 39.8375 86.2779 39.7766 86.2569 39.7191Z" fill="#263238"/>
<path d="M86.8895 39.8479C86.7898 39.665 86.6705 39.4934 86.534 39.336C86.4636 39.2579 86.3894 39.1836 86.3191 39.1016C86.3191 39.1016 86.2761 39.1016 86.2956 39.125C86.3672 39.2045 86.4325 39.2894 86.491 39.379L86.659 39.6291L86.827 39.8791C86.8762 39.9694 86.9323 40.0556 86.995 40.137C86.995 40.137 87.0224 40.137 87.0185 40.137C86.9885 40.0354 86.9452 39.9381 86.8895 39.8479Z" fill="#263238"/>
<path d="M63.7223 83.0911C63.7731 83.1614 88.0969 85.1503 88.3392 84.9158C88.4291 84.8299 89.1949 83.0286 88.9214 80.2894C88.1634 72.7911 85.2758 58.439 82.6695 54.3636C81.7825 52.9725 78.3713 51.8472 76.863 53.1093C73.7136 55.7156 67.3758 69.7628 64.582 77.6715C63.4801 80.8482 63.6715 83.0325 63.7223 83.0911Z" fill="#A6A6A6"/>
<path d="M79.7859 57.3807C80.9933 60.5652 87.0772 72.397 91.5083 73.1941C96.8771 74.1592 103.844 73.4559 106.95 72.2133C108.693 71.5178 104.926 62.9722 103.281 63.402C100.691 64.078 95.74 64.1445 94.7553 64.1445C93.7707 64.1445 87.3781 58.084 83.7793 54.9581C80.5401 52.1525 79.0748 55.5051 79.7859 57.3807Z" fill="#D3766A"/>
<path d="M105.27 72.6239C110.225 71.5767 114.453 67.8685 115.039 67.0909C115.531 66.4267 115.777 66.0828 115.777 66.0828C116.684 64.9106 116.524 64.047 116.524 64.047C116.524 64.047 117.969 62.9999 117.481 62.023C116.938 60.925 115.015 62.6091 113.39 62.8865C109.666 63.5274 104.196 63.3945 103.105 63.4726L105.27 72.6239Z" fill="#D3766A"/>
<path d="M109.948 66.2897C111.039 66.1146 112.117 65.8666 113.175 65.5473C114.309 65.1222 115.41 64.6142 116.469 64.0273C116.475 64.0257 116.482 64.0262 116.488 64.0287C116.495 64.0312 116.5 64.0356 116.503 64.0412C116.507 64.0469 116.508 64.0535 116.508 64.0602C116.507 64.0668 116.505 64.0731 116.5 64.0781C114.573 65.4302 112.312 66.2289 109.963 66.3874C109.908 66.3952 109.908 66.3093 109.948 66.2897Z" fill="#263238"/>
<path d="M110.006 68.5984C111.057 68.3366 112.902 67.8638 115.746 66.0508C114.12 67.4436 112.138 68.3568 110.022 68.6883C109.971 68.7157 109.936 68.6336 110.006 68.5984Z" fill="#263238"/>
<path d="M108.842 63.3743C108.326 63.2649 108.381 62.9836 109.232 62.5929C110.084 62.2021 113.769 61.2409 113.331 59.9827C112.894 58.7245 107.708 60.1155 106.36 60.9205C105.206 61.6855 104.117 62.5455 103.105 63.4916C104.157 63.4017 106.755 63.4798 108.842 63.3743Z" fill="#D3766A"/>
<path d="M101.226 63.2889L104.161 73.7452C104.161 73.7452 94.3923 75.062 90.6567 73.3349C86.9212 71.6078 82.373 63.664 80.2864 59.061C78.1998 54.4581 79.7393 50.832 85.581 56.2203C91.4226 61.6087 94.2789 63.7226 94.7048 63.8437C95.1307 63.9649 101.226 63.2889 101.226 63.2889Z" fill="#A6A6A6"/>
<path d="M86.6711 69.7553C86.3897 69.2904 84.0335 65.8479 83.8108 65.4572C83.3537 64.703 82.9004 63.9489 82.4589 63.1869C81.564 61.6513 80.7005 60.0922 79.7236 58.6152L79.6963 58.6348C80.1496 59.6781 80.6692 60.6979 81.2241 61.6982L81.0912 61.5614C80.6942 61.1911 80.3173 60.7998 79.962 60.3892C79.9386 60.3619 79.8956 60.3892 79.919 60.4322C80.2746 60.8229 80.5911 61.2723 80.935 61.6826C81.0991 61.8858 81.2671 62.0733 81.4468 62.2687L81.6696 62.4875C81.8454 62.7923 82.0251 63.0971 82.2088 63.3979C82.6698 64.1794 83.1778 64.9062 83.6584 65.6643C84.5024 66.9967 86.3936 69.431 86.6398 69.7866C86.6515 69.8296 86.6945 69.8061 86.6711 69.7553Z" fill="#263238"/>
<path d="M101.976 73.5929C101.847 72.7723 101.586 71.9635 101.386 71.1586C101.187 70.3536 100.96 69.5761 100.742 68.7868C100.296 67.1925 99.8859 65.5748 99.3389 64.0158C99.3406 64.011 99.3412 64.006 99.3406 64.001C99.34 63.996 99.3381 63.9912 99.3352 63.987C99.3324 63.9829 99.3285 63.9795 99.3241 63.9772C99.3196 63.9749 99.3146 63.9736 99.3096 63.9736C99.3045 63.9736 99.2996 63.9749 99.2951 63.9772C99.2906 63.9795 99.2868 63.9829 99.2839 63.987C99.281 63.9912 99.2792 63.996 99.2786 64.001C99.2779 64.006 99.2785 64.011 99.2803 64.0158C99.5694 65.6608 100.027 67.2785 100.453 68.8883C100.675 69.6972 100.906 70.4982 101.144 71.2992C101.357 72.0807 101.611 72.8503 101.906 73.6046C101.933 73.6515 101.984 73.6281 101.976 73.5929Z" fill="#263238"/>
<path d="M98.37 63.5233C97.4049 63.5506 96.4476 63.6835 95.4824 63.7069C95.0537 63.7277 94.6299 63.6084 94.275 63.367C93.8843 63.1013 89.6916 59.9011 88.9726 59.272C88.9453 59.2446 88.9023 59.2915 88.9297 59.315C89.6877 59.9441 92.3877 62.3003 93.1692 62.9333C93.5099 63.2329 93.873 63.5059 94.2555 63.7499C94.6154 63.9587 95.0362 64.0374 95.4473 63.9726C96.4241 63.8554 97.401 63.7616 98.3818 63.6014C98.4247 63.5936 98.413 63.5233 98.37 63.5233Z" fill="#263238"/>
<path d="M81.7005 53.4649C79.8327 52.2927 74.5538 51.5112 72.3226 52.8202C69.5093 54.4613 66.3677 64.8004 67.4305 65.4881C69.3256 66.7189 76.5075 61.0492 78.1447 58.6384C79.7819 56.2275 81.7005 53.4649 81.7005 53.4649Z" fill="#A6A6A6"/>
<path d="M80.13 56.5213C79.7627 56.8613 79.3798 57.1973 79.0164 57.5451C79.5166 56.8457 80.0245 56.1501 80.5052 55.439C80.5052 55.4155 80.4856 55.3843 80.4661 55.4077C79.8162 56.1226 79.2044 56.8712 78.6335 57.6506C78.0279 58.4321 77.4144 59.2136 76.7657 59.9403C76.1298 60.6902 75.4389 61.3916 74.6987 62.0386C73.9015 62.6988 73.058 63.3008 72.1745 63.84C71.677 64.1474 71.1742 64.4456 70.6662 64.7348C70.1193 65.0387 69.5497 65.3 68.9626 65.5163C68.8571 65.5514 68.9235 65.5905 68.9626 65.5788C69.4628 65.4299 69.948 65.235 70.4122 64.9966C70.8968 64.7582 71.3852 64.5199 71.8658 64.2698C72.7923 63.8096 73.6785 63.2724 74.5151 62.6638C76.1406 61.4486 77.3714 59.8661 78.528 58.2172C78.5524 58.1862 78.5746 58.1535 78.5944 58.1195C78.8132 57.9124 79.0282 57.6975 79.2352 57.4748C79.5361 57.1543 79.8487 56.8535 80.173 56.5565C80.1742 56.5509 80.1738 56.5451 80.1719 56.5397C80.17 56.5343 80.1667 56.5295 80.1622 56.5258C80.1578 56.5222 80.1525 56.5199 80.1468 56.5191C80.1411 56.5183 80.1353 56.5191 80.13 56.5213Z" fill="#263238"/>
</svg>
