<svg width="24" height="25" viewBox="0 0 24 25" fill="none" xmlns="http://www.w3.org/2000/svg">
<path fill-rule="evenodd" clip-rule="evenodd" d="M22 12.5C22 18.023 17.523 22.5 12 22.5H3.5C3.10218 22.5 2.72064 22.342 2.43934 22.0607C2.15804 21.7794 2 21.3978 2 21V12.5C2 6.977 6.477 2.5 12 2.5C17.523 2.5 22 6.977 22 12.5ZM8 9.484C7.80109 9.484 7.61032 9.56302 7.46967 9.70367C7.32902 9.84432 7.25 10.0351 7.25 10.234C7.25 10.4329 7.32902 10.6237 7.46967 10.7643C7.61032 10.905 7.80109 10.984 8 10.984H16C16.1989 10.984 16.3897 10.905 16.5303 10.7643C16.671 10.6237 16.75 10.4329 16.75 10.234C16.75 10.0351 16.671 9.84432 16.5303 9.70367C16.3897 9.56302 16.1989 9.484 16 9.484H8ZM8 14.016C7.80109 14.016 7.61032 14.095 7.46967 14.2357C7.32902 14.3763 7.25 14.5671 7.25 14.766C7.25 14.9649 7.32902 15.1557 7.46967 15.2963C7.61032 15.437 7.80109 15.516 8 15.516H12.508C12.7069 15.516 12.8977 15.437 13.0383 15.2963C13.179 15.1557 13.258 14.9649 13.258 14.766C13.258 14.5671 13.179 14.3763 13.0383 14.2357C12.8977 14.095 12.7069 14.016 12.508 14.016H8Z" fill="url(#paint0_linear_2294_18117)"/>
<defs>
<linearGradient id="paint0_linear_2294_18117" x1="2" y1="12.5" x2="22" y2="12.5" gradientUnits="userSpaceOnUse">
<stop stop-color="#123499"/>
<stop offset="1" stop-color="#2A57DE"/>
</linearGradient>
</defs>
</svg>
