<svg width="30" height="30" viewBox="0 0 30 30" fill="none" xmlns="http://www.w3.org/2000/svg">
<g clip-path="url(#clip0_5077_957)">
<path d="M3.46001 23.3988C2.45756 23.3988 1.4782 23.143 0.590623 22.6446C0.13395 22.4094 -0.0429276 21.821 0.229888 21.3783C1.13633 19.9299 1.46365 18.1594 1.04863 16.4942C0.618469 14.768 -0.00394328 13.3142 0.000512067 11.4867C0.0159573 5.07541 5.35235 -0.122192 11.7571 0.00218671C17.9434 0.126788 23.0417 5.32707 23.0418 11.5149C23.0419 19.5964 14.5724 25.2703 7.09535 22.1496C6.06476 22.9585 4.76937 23.3988 3.46001 23.3988ZM2.24192 21.4256C3.65041 21.8631 5.2345 21.5136 6.32064 20.4636C6.45131 20.3372 6.6175 20.2539 6.79692 20.2247C6.97633 20.1955 7.16038 20.2219 7.32436 20.3003C13.7257 23.3609 21.2596 18.5637 21.2596 11.5149C21.2596 6.25512 16.9807 1.88984 11.7213 1.78395C6.30119 1.67628 1.79572 6.06599 1.78265 11.491C1.77842 13.2268 2.45563 14.6139 2.82572 16.2582C3.21564 17.9909 3.01025 19.8233 2.24192 21.4256Z" fill="white"/>
<path d="M26.5404 30.0002C25.2312 30.0002 23.9357 29.5598 22.9052 28.751C18.9288 30.4106 14.1989 29.6548 10.9386 26.8392C10.5661 26.5175 10.5249 25.9549 10.8465 25.5823C11.1682 25.2099 11.7309 25.1687 12.1033 25.4904C14.995 27.9876 19.2299 28.5494 22.6762 26.9018C22.8401 26.8233 23.0242 26.797 23.2036 26.8261C23.383 26.8553 23.5492 26.9387 23.6799 27.0651C24.7659 28.115 26.3501 28.4647 27.7586 28.0271C26.8522 26.1366 26.7267 23.9708 27.4291 21.9657C27.4354 21.9477 27.4423 21.9299 27.4497 21.9122C27.9627 20.703 28.2211 19.4178 28.2179 18.0925C28.2123 15.7558 27.435 13.5943 25.9699 11.8415C25.6543 11.4638 25.7046 10.9019 26.0822 10.5863C26.4597 10.2706 27.0218 10.321 27.3373 10.6986C29.0479 12.7451 29.9935 15.3694 30.0001 18.0881C30.0039 19.6454 29.7017 21.1566 29.1021 22.5805C28.4723 24.4037 28.7619 26.3559 29.7706 27.9796C30.0436 28.4223 29.8666 29.0108 29.4097 29.2461C28.5223 29.7443 27.5427 30.0001 26.5404 30.0002Z" fill="white"/>
<path d="M11.5213 12.9688C12.3 12.9688 12.9313 12.3379 12.9313 11.5596C12.9313 10.7813 12.3 10.1504 11.5213 10.1504C10.7426 10.1504 10.1113 10.7813 10.1113 11.5596C10.1113 12.3379 10.7426 12.9688 11.5213 12.9688Z" fill="white"/>
<path d="M6.32647 12.9688C7.10518 12.9688 7.73644 12.3379 7.73644 11.5596C7.73644 10.7813 7.10518 10.1504 6.32647 10.1504C5.54777 10.1504 4.9165 10.7813 4.9165 11.5596C4.9165 12.3379 5.54777 12.9688 6.32647 12.9688Z" fill="white"/>
<path d="M16.7156 12.9688C17.4943 12.9688 18.1256 12.3379 18.1256 11.5596C18.1256 10.7813 17.4943 10.1504 16.7156 10.1504C15.9369 10.1504 15.3057 10.7813 15.3057 11.5596C15.3057 12.3379 15.9369 12.9688 16.7156 12.9688Z" fill="white"/>
</g>
<defs>
<clipPath id="clip0_5077_957">
<rect width="30" height="30" fill="white"/>
</clipPath>
</defs>
</svg>
