<svg width="20" height="20" viewBox="0 0 20 20" fill="none" xmlns="http://www.w3.org/2000/svg">
<path d="M13.2 18.5404H6.80003C6.15972 18.5311 5.54649 18.2805 5.08299 17.8386C4.61948 17.3967 4.33986 16.7962 4.30003 16.157L3.5417 4.6237C3.53781 4.54008 3.55054 4.45652 3.57915 4.37785C3.60775 4.29918 3.65167 4.22696 3.70837 4.16537C3.76677 4.10153 3.83748 4.05017 3.91625 4.01437C3.99501 3.97857 4.0802 3.95906 4.1667 3.95703H15.8334C15.9191 3.95684 16.0039 3.97428 16.0826 4.00826C16.1613 4.04224 16.2321 4.09204 16.2907 4.15457C16.3493 4.21709 16.3945 4.291 16.4233 4.37171C16.4521 4.45241 16.4641 4.53819 16.4584 4.6237L15.7334 16.157C15.6931 16.8019 15.4088 17.4072 14.9382 17.8499C14.4676 18.2926 13.8461 18.5395 13.2 18.5404ZM4.8667 5.20703L5.50837 16.082C5.52957 16.41 5.67496 16.7175 5.91493 16.942C6.15491 17.1665 6.47142 17.291 6.80003 17.2904H13.2C13.5281 17.2891 13.8435 17.1638 14.083 16.9397C14.3226 16.7156 14.4686 16.4093 14.4917 16.082L15.1667 5.2487L4.8667 5.20703Z" fill="#EB0000"/>
<path d="M17.5 5.20703H2.5C2.33424 5.20703 2.17527 5.14118 2.05806 5.02397C1.94085 4.90676 1.875 4.74779 1.875 4.58203C1.875 4.41627 1.94085 4.2573 2.05806 4.14009C2.17527 4.02288 2.33424 3.95703 2.5 3.95703H17.5C17.6658 3.95703 17.8247 4.02288 17.9419 4.14009C18.0592 4.2573 18.125 4.41627 18.125 4.58203C18.125 4.74779 18.0592 4.90676 17.9419 5.02397C17.8247 5.14118 17.6658 5.20703 17.5 5.20703Z" fill="#EB0000"/>
<path d="M12.5 5.20703H7.5C7.33491 5.20487 7.17719 5.13833 7.06045 5.02159C6.9437 4.90484 6.87716 4.74712 6.875 4.58203V3.08203C6.88556 2.65438 7.06016 2.24717 7.36265 1.94468C7.66513 1.64219 8.07235 1.4676 8.5 1.45703H11.5C11.9348 1.4679 12.3481 1.64829 12.6517 1.95968C12.9553 2.27107 13.1251 2.6888 13.125 3.1237V4.58203C13.1228 4.74712 13.0563 4.90484 12.9396 5.02159C12.8228 5.13833 12.6651 5.20487 12.5 5.20703ZM8.125 3.95703H11.875V3.1237C11.875 3.02424 11.8355 2.92886 11.7652 2.85853C11.6948 2.78821 11.5995 2.7487 11.5 2.7487H8.5C8.40054 2.7487 8.30516 2.78821 8.23483 2.85853C8.16451 2.92886 8.125 3.02424 8.125 3.1237V3.95703ZM12.5 15.207C12.3349 15.2049 12.1772 15.1383 12.0604 15.0216C11.9437 14.9048 11.8772 14.7471 11.875 14.582V7.91536C11.875 7.7496 11.9408 7.59063 12.0581 7.47342C12.1753 7.35621 12.3342 7.29036 12.5 7.29036C12.6658 7.29036 12.8247 7.35621 12.9419 7.47342C13.0592 7.59063 13.125 7.7496 13.125 7.91536V14.582C13.1228 14.7471 13.0563 14.9048 12.9396 15.0216C12.8228 15.1383 12.6651 15.2049 12.5 15.207ZM7.5 15.207C7.33491 15.2049 7.17719 15.1383 7.06045 15.0216C6.9437 14.9048 6.87716 14.7471 6.875 14.582V7.91536C6.875 7.7496 6.94085 7.59063 7.05806 7.47342C7.17527 7.35621 7.33424 7.29036 7.5 7.29036C7.66576 7.29036 7.82473 7.35621 7.94194 7.47342C8.05915 7.59063 8.125 7.7496 8.125 7.91536V14.582C8.12284 14.7471 8.0563 14.9048 7.93955 15.0216C7.82281 15.1383 7.66509 15.2049 7.5 15.207ZM10 15.207C9.83491 15.2049 9.67719 15.1383 9.56045 15.0216C9.4437 14.9048 9.37716 14.7471 9.375 14.582V7.91536C9.375 7.7496 9.44085 7.59063 9.55806 7.47342C9.67527 7.35621 9.83424 7.29036 10 7.29036C10.1658 7.29036 10.3247 7.35621 10.4419 7.47342C10.5592 7.59063 10.625 7.7496 10.625 7.91536V14.582C10.6228 14.7471 10.5563 14.9048 10.4396 15.0216C10.3228 15.1383 10.1651 15.2049 10 15.207Z" fill="#EB0000"/>
</svg>
