<svg width="16" height="16" viewBox="0 0 16 16" fill="none" xmlns="http://www.w3.org/2000/svg">
<path d="M14.3678 9.64844C14.2352 9.64844 14.108 9.70112 14.0143 9.79488C13.9205 9.88865 13.8678 10.0158 13.8678 10.1484V11.8559C13.8678 12.2584 13.7079 12.6444 13.4233 12.929C13.1388 13.2136 12.7528 13.3734 12.3503 13.3734H3.65031C3.24785 13.3734 2.86186 13.2136 2.57728 12.929C2.29269 12.6444 2.13281 12.2584 2.13281 11.8559V10.1484C2.13281 10.0158 2.08013 9.88865 1.98637 9.79488C1.8926 9.70112 1.76542 9.64844 1.63281 9.64844C1.5002 9.64844 1.37303 9.70112 1.27926 9.79488C1.18549 9.88865 1.13281 10.0158 1.13281 10.1484V11.8559C1.13347 12.5234 1.39892 13.1634 1.8709 13.6353C2.34288 14.1073 2.98283 14.3728 3.65031 14.3734H12.3503C13.0178 14.3728 13.6577 14.1073 14.1297 13.6353C14.6017 13.1634 14.8672 12.5234 14.8678 11.8559V10.1484C14.8678 10.0158 14.8151 9.88865 14.7214 9.79488C14.6276 9.70112 14.5004 9.64844 14.3678 9.64844Z" fill="white"/>
<path d="M7.64356 11.11C7.69004 11.1569 7.74534 11.1941 7.80627 11.2194C7.8672 11.2448 7.93255 11.2579 7.99856 11.2579C8.06457 11.2579 8.12992 11.2448 8.19085 11.2194C8.25178 11.1941 8.30708 11.1569 8.35356 11.11L11.1986 8.265C11.2779 8.16948 11.3189 8.04784 11.3136 7.92376C11.3082 7.79968 11.2568 7.68205 11.1695 7.59376C11.0821 7.50547 10.965 7.45286 10.841 7.44615C10.717 7.43945 10.5949 7.47914 10.4986 7.5575L8.49856 9.5575V2.125C8.49856 1.99239 8.44588 1.86521 8.35211 1.77145C8.25835 1.67768 8.13117 1.625 7.99856 1.625C7.86595 1.625 7.73877 1.67768 7.64501 1.77145C7.55124 1.86521 7.49856 1.99239 7.49856 2.125V9.55L5.49856 7.55C5.40474 7.45618 5.27749 7.40347 5.14481 7.40347C5.01213 7.40347 4.88488 7.45618 4.79106 7.55C4.69724 7.64382 4.64453 7.77107 4.64453 7.90375C4.64453 8.03643 4.69724 8.16368 4.79106 8.2575L7.64356 11.11Z" fill="white"/>
</svg>
