<svg width="297" height="221" viewBox="0 0 297 221" fill="none" xmlns="http://www.w3.org/2000/svg">
<path d="M296.3 194.018H0V194.166H296.3V194.018Z" fill="#EBEBEB"/>
<path d="M187.066 198.053H171.979V198.201H187.066V198.053Z" fill="#EBEBEB"/>
<path d="M269.894 201.259H234.143V201.407H269.894V201.259Z" fill="#EBEBEB"/>
<path d="M168.767 198.124H131.83V198.272H168.767V198.124Z" fill="#EBEBEB"/>
<path d="M107.877 202.557H100.149V202.705H107.877V202.557Z" fill="#EBEBEB"/>
<path d="M150.574 202.557H115.385V202.705H150.574V202.557Z" fill="#EBEBEB"/>
<path d="M53.8734 200.056H31.0879V200.204H53.8734V200.056Z" fill="#EBEBEB"/>
<path d="M140.446 167.587H26.0209C25.1245 167.586 24.2653 167.229 23.632 166.594C22.9988 165.96 22.6431 165.1 22.6431 164.204V3.35412C22.6509 2.46286 23.01 1.61068 23.6425 0.982661C24.2749 0.354647 25.1296 0.00152677 26.0209 0H140.446C141.344 0 142.204 0.356501 142.839 0.991077C143.473 1.62565 143.83 2.48632 143.83 3.38375V164.204C143.83 165.101 143.473 165.962 142.839 166.596C142.204 167.231 141.344 167.587 140.446 167.587ZM26.0209 0.118521C25.1638 0.12009 24.3423 0.461674 23.7368 1.0683C23.1313 1.67492 22.7912 2.49701 22.7912 3.35412V164.204C22.7912 165.061 23.1313 165.883 23.7368 166.489C24.3423 167.096 25.1638 167.438 26.0209 167.439H140.446C141.304 167.438 142.126 167.096 142.732 166.49C143.339 165.883 143.68 165.061 143.682 164.204V3.35412C143.68 2.49647 143.339 1.67439 142.732 1.06793C142.126 0.461482 141.304 0.120087 140.446 0.118521H26.0209Z" fill="#EBEBEB"/>
<path d="M268.632 167.587H154.201C153.304 167.586 152.444 167.229 151.81 166.595C151.175 165.96 150.818 165.101 150.817 164.204V3.35412C150.826 2.46232 151.187 1.61014 151.82 0.98229C152.453 0.354439 153.309 0.00151012 154.201 0H268.632C269.522 0.00308419 270.375 0.356893 271.006 0.984741C271.638 1.61259 271.996 2.46389 272.004 3.35412V164.204C272.004 165.099 271.649 165.958 271.017 166.592C270.385 167.226 269.527 167.584 268.632 167.587ZM154.201 0.118521C153.343 0.120087 152.521 0.461482 151.914 1.06793C151.308 1.67439 150.967 2.49647 150.965 3.35412V164.204C150.967 165.061 151.308 165.883 151.914 166.49C152.521 167.096 153.343 167.438 154.201 167.439H268.632C269.489 167.438 270.312 167.096 270.918 166.49C271.524 165.883 271.866 165.061 271.867 164.204V3.35412C271.866 2.49647 271.524 1.67439 270.918 1.06793C270.312 0.461482 269.489 0.120087 268.632 0.118521H154.201Z" fill="#EBEBEB"/>
<path d="M116.126 142.621H76.7773L74.3892 115.065H113.738L116.126 142.621Z" fill="#E6E6E6"/>
<path d="M118.165 142.621H78.8159L76.4277 115.065H115.776L118.165 142.621Z" fill="#F0F0F0"/>
<path d="M84.1964 136.701L82.8809 120.979H110.395L111.711 136.701H84.1964Z" fill="white"/>
<path d="M124.973 142.621H120.357V194.017H124.973V142.621Z" fill="#E6E6E6"/>
<path d="M126.431 142.621H123.225V194.017H126.431V142.621Z" fill="#F0F0F0"/>
<path d="M81.7432 148.292H126.431V142.621H81.7432V148.292Z" fill="#F0F0F0"/>
<path d="M83.3195 148.292H78.7031V194.018H83.3195V148.292Z" fill="#E6E6E6"/>
<path d="M84.7773 148.292H81.5713V194.018H84.7773V148.292Z" fill="#F0F0F0"/>
<path d="M50.4601 148.292H45.8438V194.018H50.4601V148.292Z" fill="#E6E6E6"/>
<path d="M51.9179 148.292H48.7119V194.018H51.9179V148.292Z" fill="#F0F0F0"/>
<path d="M95.7584 148.292H91.1421V194.018H95.7584V148.292Z" fill="#E6E6E6"/>
<path d="M97.2104 148.292H94.0044V194.018H97.2104V148.292Z" fill="#F0F0F0"/>
<path d="M81.7435 142.621H45.8438V148.292H81.7435V142.621Z" fill="#E6E6E6"/>
<path d="M215.612 14.4653H76.7476V91.776H215.612V14.4653Z" fill="#E0E0E0"/>
<path d="M223.238 14.4653H77.4468V91.776H223.238V14.4653Z" fill="#F5F5F5"/>
<path d="M220.856 89.3938V16.8477L79.8294 16.8477V89.3938L220.856 89.3938Z" fill="white"/>
<path d="M136.932 89.3938L163.558 16.8477H119.616L92.9907 89.3938H136.932Z" fill="#F5F5F5"/>
<path d="M179.226 89.3938L205.852 16.8477H172.702L146.076 89.3938H179.226Z" fill="#F5F5F5"/>
<path d="M259.624 120.179H247.82V194.017H259.624V120.179Z" fill="#E6E6E6"/>
<path d="M256.519 194.018H259.624V188.334H253.266L256.519 194.018Z" fill="#FAFAFA"/>
<path d="M150.787 120.179H138.982V194.017H150.787V120.179Z" fill="#E6E6E6"/>
<path d="M259.624 120.179H148.079V192.482H259.624V120.179Z" fill="#FAFAFA"/>
<path d="M257.515 143.51H150.195V123.089H257.515V143.51ZM150.787 142.917H256.922V123.681H150.787V142.917Z" fill="#E6E6E6"/>
<path d="M238.623 133.003H171.167C168.038 133.003 165.022 130.479 162.87 126.07L162.669 125.649H247.115L246.913 126.07C244.744 130.479 241.781 133.003 238.623 133.003ZM163.641 126.224C165.644 130.153 168.382 132.393 171.167 132.393H238.623C241.42 132.393 244.146 130.153 246.149 126.224H163.641Z" fill="#E6E6E6"/>
<path d="M151.184 194.018H148.079V188.334H154.438L151.184 194.018Z" fill="#FAFAFA"/>
<path d="M257.515 166.521H150.195V146.124H257.515V166.521ZM150.787 165.928H256.922V146.716H150.787V165.928Z" fill="#E6E6E6"/>
<path d="M238.623 156.038H171.167C168.038 156.038 165.022 153.507 162.87 149.104L162.669 148.678H247.115L246.913 149.104C244.744 153.484 241.781 156.038 238.623 156.038ZM163.641 149.27C165.644 153.199 168.382 155.445 171.167 155.445H238.623C241.42 155.445 244.146 153.199 246.149 149.27H163.641Z" fill="#E6E6E6"/>
<path d="M257.515 189.573H150.195V169.152H257.515V189.573ZM150.787 188.98H256.922V169.744H150.787V188.98Z" fill="#E6E6E6"/>
<path d="M238.623 179.066H171.167C168.038 179.066 165.022 176.542 162.87 172.139L162.669 171.712H247.115L246.913 172.139C244.744 176.542 241.781 179.066 238.623 179.066ZM163.641 172.305C165.644 176.233 168.382 178.473 171.167 178.473H238.623C241.42 178.473 244.146 176.233 246.149 172.305H163.641Z" fill="#E6E6E6"/>
<path d="M71.6929 129.945V131.379H70.7803L70.0218 142.621H58.8572L58.1046 131.379H57.186V129.945H71.6929Z" fill="#E6E6E6"/>
<path d="M68.0185 102.052C67.1059 95.3554 58.0687 93.4472 46.6019 93.1983C35.6921 92.9672 32.1958 89.1094 32.1958 89.1094C32.1958 89.1094 32.2314 104.736 47.953 110.402C62.8806 115.77 68.937 108.76 68.0185 102.052Z" fill="#E6E6E6"/>
<path d="M62.4484 117.228C62.6381 114.479 67.0352 109.418 77.6131 111.717C85.2576 113.382 88.1021 109.418 88.1021 109.418C88.1021 109.418 87.391 120.606 75.8945 123.966C64.9729 127.16 62.1106 122.076 62.4484 117.228Z" fill="#E6E6E6"/>
<path d="M64.8601 134.165C64.9197 134.165 64.9786 134.153 65.0329 134.128C65.0871 134.104 65.1354 134.068 65.1742 134.022C65.9387 133.116 65.3105 130.947 64.4453 127.942C63.3312 124.09 61.9445 119.29 63.1179 115.812C63.7683 113.974 64.5282 112.178 65.3935 110.431C67.0528 106.923 68.4868 103.912 67.2898 100.724C67.2711 100.673 67.2426 100.627 67.2058 100.587C67.169 100.548 67.1248 100.516 67.0756 100.493C67.0264 100.471 66.9733 100.458 66.9193 100.457C66.8652 100.455 66.8114 100.464 66.7609 100.483C66.7104 100.502 66.6641 100.531 66.6249 100.569C66.5857 100.606 66.5542 100.65 66.5323 100.7C66.5104 100.749 66.4985 100.802 66.4973 100.856C66.4961 100.91 66.5056 100.964 66.5253 101.015C67.5979 103.853 66.3001 106.603 64.6527 110.087C63.7764 111.862 63.0047 113.686 62.3416 115.551C61.0912 119.273 62.5134 124.209 63.6572 128.167C64.3327 130.538 65.032 132.908 64.552 133.501C64.5139 133.542 64.4847 133.59 64.4663 133.643C64.4479 133.696 64.4408 133.752 64.4452 133.808C64.4497 133.863 64.4657 133.918 64.4922 133.967C64.5188 134.016 64.5553 134.059 64.5994 134.093C64.6751 134.147 64.7675 134.173 64.8601 134.165Z" fill="#E6E6E6"/>
<path d="M148.15 220.779C211.607 220.779 263.05 217.776 263.05 214.071C263.05 210.366 211.607 207.363 148.15 207.363C84.6931 207.363 33.251 210.366 33.251 214.071C33.251 217.776 84.6931 220.779 148.15 220.779Z" fill="#F5F5F5"/>
<path d="M148.126 181.365H63.9771L59.3726 46.0332H143.522L148.126 181.365Z" fill="#0660A0"/>
<path d="M152.328 177.164H68.1788L63.5684 41.8315H147.718L152.328 177.164Z" fill="#0660A0"/>
<path opacity="0.3" d="M152.328 177.164H68.1788L63.5684 41.8315H147.718L152.328 177.164Z" fill="white"/>
<path d="M124.134 97.5205C133.144 88.355 132.76 73.368 123.277 64.0459C113.794 54.7239 98.8031 54.597 89.7931 63.7624C80.7831 72.9278 81.1664 87.9149 90.6492 97.2369C100.132 106.559 115.124 106.686 124.134 97.5205Z" fill="#0660A0"/>
<path d="M126.503 80.6466C126.624 83.8714 125.92 87.0737 124.458 89.9505C122.88 93.0507 120.47 95.65 117.497 97.4566C114.524 99.2633 111.107 100.206 107.628 100.179C104.068 100.16 100.575 99.2044 97.5006 97.4091C94.426 95.6139 91.8776 93.0416 90.1109 89.9505C88.4637 87.1179 87.5435 83.9215 87.4324 80.6466C87.3231 78.1074 87.7312 75.5724 88.6318 73.1958C89.5325 70.8191 90.907 68.6504 92.6717 66.8213C94.4365 64.9923 96.5547 63.5411 98.8976 62.556C101.241 61.5709 103.759 61.0724 106.301 61.0908C111.537 61.1279 116.557 63.1804 120.319 66.8221C124.081 70.4639 126.295 75.4148 126.503 80.6466Z" fill="white"/>
<path opacity="0.6" d="M124.446 89.9509C122.868 93.0511 120.458 95.6504 117.485 97.457C114.512 99.2637 111.095 100.206 107.616 100.179C104.056 100.16 100.563 99.2048 97.4888 97.4095C94.4142 95.6143 91.8657 93.042 90.0991 89.9509C95.1108 86.534 101.041 84.7177 107.107 84.7419C113.27 84.7553 119.296 86.5655 124.446 89.9509Z" fill="#0660A0"/>
<path opacity="0.6" d="M113.051 80.1594C116.365 76.7892 116.224 71.2783 112.737 67.8505C109.25 64.4227 103.737 64.3761 100.424 67.7463C97.1111 71.1165 97.252 76.6274 100.739 80.0552C104.226 83.483 109.738 83.5297 113.051 80.1594Z" fill="#0660A0"/>
<path d="M135.421 128.156H81.7433L81.3818 117.489H135.06L135.421 128.156Z" fill="white"/>
<path d="M136.073 147.22H82.3893L82.0278 136.553H135.712L136.073 147.22Z" fill="white"/>
<path d="M115.355 138.022L102.419 139.8C102.295 139.814 102.176 139.854 102.069 139.916C101.961 139.978 101.868 140.062 101.794 140.162C101.721 140.263 101.669 140.377 101.642 140.498C101.615 140.619 101.613 140.745 101.637 140.867L103.337 149.536C103.393 149.791 103.542 150.015 103.755 150.166C103.967 150.316 104.229 150.381 104.487 150.348L117.424 148.571C117.547 148.555 117.665 148.514 117.772 148.451C117.879 148.388 117.972 148.303 118.044 148.203C118.117 148.102 118.168 147.988 118.195 147.866C118.222 147.745 118.224 147.62 118.2 147.498L116.505 138.828C116.449 138.574 116.3 138.35 116.087 138.201C115.874 138.052 115.613 137.988 115.355 138.022ZM111.64 146.805L109.269 147.119L109.038 144.322C108.794 144.216 108.579 144.053 108.411 143.847C108.242 143.641 108.126 143.397 108.072 143.136C108.029 142.935 108.028 142.726 108.07 142.524C108.112 142.322 108.197 142.131 108.317 141.963C108.438 141.795 108.592 141.655 108.771 141.551C108.949 141.447 109.147 141.381 109.352 141.359C109.773 141.304 110.199 141.41 110.546 141.655C110.893 141.899 111.135 142.265 111.225 142.68C111.276 142.931 111.261 143.19 111.179 143.433C111.098 143.675 110.954 143.892 110.763 144.061L111.64 146.805Z" fill="#0660A0"/>
<path d="M114.075 137.554C113.847 137.583 113.615 137.526 113.427 137.393C113.238 137.261 113.106 137.062 113.056 136.837L112.89 135.99C112.653 134.833 112.005 133.802 111.066 133.087C110.126 132.372 108.96 132.022 107.782 132.102C107.188 132.136 106.608 132.298 106.081 132.576C105.555 132.854 105.094 133.242 104.731 133.713C104.368 134.185 104.111 134.729 103.976 135.309C103.842 135.889 103.835 136.491 103.954 137.074L104.143 138.052C104.165 138.16 104.165 138.272 104.141 138.38C104.117 138.488 104.072 138.59 104.006 138.679C103.941 138.769 103.858 138.843 103.762 138.899C103.666 138.954 103.56 138.988 103.45 139C103.221 139.032 102.988 138.976 102.799 138.843C102.61 138.71 102.478 138.51 102.431 138.283L102.271 137.46C102.108 136.69 102.103 135.895 102.255 135.123C102.407 134.351 102.714 133.618 103.157 132.967C103.6 132.317 104.169 131.763 104.832 131.338C105.494 130.914 106.236 130.627 107.012 130.496C108.694 130.214 110.42 130.59 111.833 131.547C113.245 132.503 114.235 133.967 114.597 135.634L114.786 136.606C114.809 136.716 114.807 136.829 114.783 136.938C114.758 137.047 114.71 137.15 114.643 137.24C114.576 137.329 114.491 137.403 114.393 137.458C114.295 137.512 114.187 137.545 114.075 137.554Z" fill="#0660A0"/>
<path d="M127.213 162.159H92.2677L92.0366 155.214H126.976L127.213 162.159Z" fill="#0660A0"/>
<path d="M110.354 122.822C110.365 123.076 110.323 123.328 110.233 123.565C110.143 123.802 110.006 124.018 109.83 124.201C109.653 124.383 109.442 124.528 109.208 124.626C108.974 124.724 108.723 124.774 108.47 124.772C107.947 124.768 107.446 124.563 107.07 124.2C106.694 123.838 106.472 123.344 106.449 122.822C106.438 122.569 106.48 122.316 106.57 122.079C106.66 121.842 106.797 121.626 106.973 121.444C107.15 121.261 107.361 121.117 107.595 121.019C107.829 120.92 108.08 120.871 108.333 120.873C108.856 120.875 109.358 121.079 109.734 121.442C110.111 121.806 110.333 122.3 110.354 122.822Z" fill="#263238"/>
<path d="M101.927 122.822C101.939 123.076 101.898 123.329 101.808 123.566C101.718 123.804 101.581 124.02 101.405 124.203C101.228 124.385 101.017 124.53 100.782 124.628C100.548 124.725 100.297 124.775 100.043 124.772C99.5209 124.768 99.0205 124.563 98.6454 124.2C98.2703 123.837 98.0492 123.344 98.028 122.822C98.0175 122.569 98.0586 122.316 98.1488 122.079C98.239 121.842 98.3763 121.626 98.5525 121.444C98.7287 121.261 98.9401 121.117 99.1739 121.019C99.4076 120.92 99.6589 120.871 99.9124 120.873C100.435 120.875 100.936 121.08 101.311 121.443C101.687 121.806 101.907 122.3 101.927 122.822Z" fill="#263238"/>
<path d="M93.5537 122.822C93.5642 123.076 93.5231 123.328 93.4329 123.565C93.3427 123.802 93.2054 124.018 93.0292 124.201C92.853 124.383 92.6416 124.528 92.4078 124.626C92.1741 124.724 91.9228 124.774 91.6693 124.772C91.1469 124.769 90.6457 124.565 90.2703 124.202C89.8949 123.838 89.6743 123.344 89.6544 122.822C89.644 122.569 89.6851 122.316 89.7753 122.079C89.8654 121.842 90.0028 121.626 90.179 121.444C90.3552 121.261 90.5666 121.117 90.8003 121.019C91.0341 120.92 91.2854 120.871 91.5389 120.873C92.0613 120.875 92.5624 121.08 92.9378 121.443C93.3132 121.806 93.5339 122.3 93.5537 122.822Z" fill="#263238"/>
<path d="M118.751 122.822C118.761 123.076 118.72 123.328 118.63 123.565C118.54 123.802 118.403 124.018 118.226 124.201C118.05 124.383 117.839 124.528 117.605 124.626C117.371 124.724 117.12 124.774 116.867 124.772C116.344 124.769 115.843 124.565 115.468 124.202C115.092 123.838 114.872 123.344 114.852 122.822C114.843 122.57 114.885 122.318 114.977 122.082C115.068 121.847 115.206 121.632 115.383 121.451C115.56 121.271 115.771 121.128 116.005 121.031C116.239 120.935 116.489 120.887 116.742 120.89C117.261 120.894 117.758 121.097 118.131 121.456C118.505 121.815 118.727 122.304 118.751 122.822Z" fill="#263238"/>
<path d="M127.148 122.822C127.16 123.076 127.119 123.329 127.029 123.566C126.94 123.804 126.802 124.02 126.626 124.203C126.449 124.385 126.238 124.53 126.004 124.628C125.769 124.725 125.518 124.775 125.264 124.772C124.742 124.768 124.242 124.563 123.867 124.2C123.492 123.837 123.27 123.344 123.249 122.822C123.239 122.569 123.28 122.316 123.37 122.079C123.46 121.842 123.598 121.626 123.774 121.444C123.95 121.261 124.161 121.117 124.395 121.019C124.629 120.92 124.88 120.871 125.134 120.873C125.656 120.875 126.157 121.08 126.533 121.443C126.908 121.806 127.129 122.3 127.148 122.822Z" fill="#263238"/>
<path d="M197.875 70.6855C198.663 71.9537 199.321 73.1626 199.996 74.4249C200.672 75.6871 201.282 76.9553 201.881 78.2531C203.102 80.8809 204.113 83.6016 204.903 86.3895C205.01 86.7391 205.087 87.1124 205.176 87.4739L205.306 88.025L205.371 88.2976L205.448 88.748C205.582 89.7697 205.52 90.8075 205.265 91.8058C204.855 93.3559 204.233 94.8417 203.416 96.2207C201.953 98.7267 200.186 101.042 198.153 103.113L195.658 101.228C196.911 98.9261 198.025 96.5515 198.995 94.117C199.427 93.0443 199.731 91.9245 199.901 90.7806C199.956 90.4313 199.94 90.0747 199.854 89.7317L199.617 89.0088C199.522 88.7125 199.433 88.4162 199.321 88.1139C198.419 85.6692 197.377 83.279 196.198 80.9553C195.013 78.5849 193.738 76.2145 192.464 73.9508L197.875 70.6855Z" fill="#FF8B7B"/>
<path d="M196.293 100.404L193.567 101.844L196.696 105.507C196.696 105.507 198.651 104.185 198.74 102.17L196.293 100.404Z" fill="#FF8B7B"/>
<path d="M189.911 104.102L193.259 106.763L196.696 105.507L193.567 101.844L189.911 104.102Z" fill="#FF8B7B"/>
<path d="M178.461 51.2955C178.396 51.6274 178.165 51.8585 177.952 51.817C177.738 51.7755 177.614 51.4674 177.679 51.1415C177.744 50.8155 177.975 50.5489 178.195 50.62C178.414 50.6911 178.526 50.9637 178.461 51.2955Z" fill="#263238"/>
<path d="M178.195 51.8643C177.598 52.7925 176.876 53.634 176.049 54.365C176.245 54.5673 176.481 54.725 176.743 54.8273C177.005 54.9296 177.286 54.9741 177.566 54.9576L178.195 51.8643Z" fill="#FF5652"/>
<path d="M177.128 63.491V59.6035L182.272 60.1961C182.272 60.1961 182.189 63.5384 179.309 64.5221L177.128 63.491Z" fill="#FF8B7B"/>
<path d="M178.61 56.8066L182.23 57.8496L182.296 60.2259L177.152 59.6037L178.61 56.8066Z" fill="#FF8B7B"/>
<path opacity="0.2" d="M182.23 57.8496L178.609 56.8066L177.904 58.1578C177.943 59.2224 178.275 60.2556 178.865 61.1426C179.455 62.0296 180.28 62.7359 181.247 63.183C181.869 62.3141 182.232 61.2868 182.295 60.22L182.23 57.8496Z" fill="black"/>
<path d="M180.038 49.7132C180.076 49.7122 180.113 49.7005 180.144 49.6794C180.176 49.6583 180.201 49.6286 180.216 49.5939C180.232 49.5593 180.237 49.5209 180.232 49.4833C180.227 49.4457 180.211 49.4103 180.186 49.3814C179.978 49.1463 179.716 48.9645 179.424 48.8511C179.131 48.7377 178.815 48.696 178.503 48.7295C178.452 48.7382 178.406 48.7668 178.376 48.809C178.346 48.8512 178.334 48.9036 178.343 48.9547C178.352 49.0061 178.38 49.0522 178.422 49.0831C178.464 49.1141 178.516 49.1275 178.568 49.1206C178.815 49.0964 179.065 49.1316 179.296 49.2233C179.527 49.3151 179.732 49.4607 179.896 49.648C179.914 49.6678 179.936 49.6838 179.96 49.695C179.985 49.7062 180.011 49.7124 180.038 49.7132Z" fill="#263238"/>
<path d="M187.611 57.2925C187.018 60.3444 186.651 64.5696 188.796 66.6022C188.796 66.6022 187.967 69.6956 182.278 69.6956C176.049 69.6956 179.285 66.9815 179.285 66.9815C181.875 66.1756 181.851 63.2303 181.258 60.8599L187.611 57.2925Z" fill="#FF8B7B"/>
<path d="M189.952 68.6409C190.509 67.8586 190.485 65.3756 189.892 64.9371C188.938 64.2319 184.843 64.066 179.338 65.3342C179.931 67.7401 178.657 68.9964 178.657 68.9964L189.952 68.6409Z" fill="#0660A0"/>
<path d="M208.477 209.33C208.307 209.39 208.128 209.415 207.949 209.405C207.77 209.395 207.595 209.349 207.434 209.271C207.373 209.214 207.331 209.14 207.314 209.058C207.297 208.976 207.305 208.891 207.339 208.815C207.358 208.751 207.39 208.691 207.434 208.641C207.478 208.591 207.533 208.551 207.594 208.524C208.157 208.252 209.449 208.779 209.508 208.803C209.525 208.81 209.541 208.822 209.551 208.838C209.562 208.854 209.567 208.873 209.567 208.892C209.567 208.911 209.562 208.929 209.553 208.946C209.543 208.963 209.53 208.977 209.514 208.987C209.18 209.133 208.832 209.248 208.477 209.33ZM207.795 208.661C207.756 208.67 207.718 208.684 207.683 208.702C207.646 208.716 207.612 208.738 207.586 208.767C207.559 208.795 207.539 208.83 207.528 208.868C207.475 209.046 207.528 209.105 207.564 209.123C207.789 209.312 208.619 209.123 209.206 208.904C208.759 208.719 208.277 208.636 207.795 208.661Z" fill="#0660A0"/>
<path d="M209.49 208.992H209.443C208.968 208.856 207.961 208.139 207.949 207.671C207.949 207.596 207.974 207.524 208.02 207.466C208.067 207.407 208.131 207.367 208.204 207.351C208.274 207.324 208.35 207.314 208.424 207.32C208.499 207.326 208.572 207.349 208.637 207.386C209.194 207.671 209.549 208.82 209.561 208.874C209.569 208.888 209.574 208.904 209.574 208.921C209.574 208.938 209.569 208.954 209.561 208.968C209.552 208.978 209.541 208.985 209.528 208.989C209.516 208.993 209.503 208.994 209.49 208.992ZM208.305 207.517H208.257C208.139 207.558 208.139 207.617 208.139 207.647C208.139 207.925 208.814 208.488 209.324 208.714C209.2 208.382 208.927 207.724 208.566 207.528C208.485 207.492 208.394 207.488 208.311 207.517H208.305Z" fill="#0660A0"/>
<path d="M177.697 210.029C177.164 210.029 176.648 209.952 176.476 209.715C176.431 209.652 176.407 209.577 176.407 209.499C176.407 209.421 176.431 209.346 176.476 209.283C176.51 209.225 176.555 209.174 176.609 209.135C176.663 209.095 176.725 209.067 176.79 209.052C177.484 208.862 178.941 209.692 179.001 209.727C179.019 209.736 179.034 209.751 179.042 209.769C179.051 209.787 179.053 209.808 179.048 209.828C179.046 209.848 179.037 209.867 179.023 209.882C179.009 209.897 178.991 209.907 178.971 209.911C178.551 209.988 178.124 210.028 177.697 210.029ZM177.039 209.218C176.976 209.207 176.912 209.207 176.85 209.218C176.809 209.226 176.771 209.242 176.738 209.266C176.704 209.289 176.676 209.319 176.654 209.354C176.583 209.478 176.613 209.538 176.654 209.573C176.85 209.846 177.899 209.852 178.675 209.739C178.168 209.462 177.613 209.285 177.039 209.218Z" fill="#0660A0"/>
<path d="M178.965 209.911H178.924C178.42 209.686 177.424 208.785 177.501 208.311C177.501 208.199 177.596 208.062 177.869 208.039C177.966 208.027 178.065 208.036 178.159 208.065C178.252 208.093 178.339 208.141 178.414 208.204C178.794 208.659 179.022 209.22 179.066 209.81C179.066 209.827 179.062 209.844 179.055 209.859C179.047 209.875 179.037 209.888 179.024 209.899C179.006 209.909 178.985 209.913 178.965 209.911ZM177.946 208.222H177.886C177.709 208.222 177.697 208.305 177.697 208.329C177.649 208.613 178.325 209.324 178.841 209.633C178.795 209.157 178.603 208.707 178.289 208.347C178.192 208.264 178.068 208.219 177.94 208.222H177.946Z" fill="#0660A0"/>
<path d="M183.54 209.816H179.374L178.959 200.163H183.125L183.54 209.816Z" fill="#FF8B7B"/>
<path d="M214.136 207.884L210.065 208.767L205.97 199.778L210.047 198.895L214.136 207.884Z" fill="#FF8B7B"/>
<path d="M209.668 208.358L214.249 207.369C214.329 207.352 214.412 207.362 214.485 207.399C214.558 207.436 214.617 207.496 214.652 207.57L216.24 211.019C216.282 211.103 216.304 211.195 216.304 211.289C216.303 211.382 216.281 211.474 216.238 211.558C216.195 211.641 216.133 211.713 216.057 211.768C215.982 211.822 215.894 211.858 215.801 211.872C214.201 212.187 213.401 212.264 211.392 212.696C210.154 212.969 207.357 213.65 205.644 214.018C203.931 214.385 203.345 212.744 204.014 212.441C207.007 211.072 208.251 209.869 209.063 208.749C209.21 208.55 209.425 208.41 209.668 208.358Z" fill="#263238"/>
<path d="M179.404 209.33H183.955C184.037 209.331 184.117 209.359 184.182 209.411C184.246 209.462 184.292 209.534 184.31 209.615L185.134 213.318C185.158 213.408 185.161 213.502 185.142 213.593C185.124 213.683 185.084 213.768 185.026 213.841C184.968 213.914 184.895 213.972 184.81 214.011C184.726 214.05 184.634 214.068 184.541 214.065C182.9 214.035 180.53 213.941 178.467 213.941C176.049 213.941 173.969 214.071 171.137 214.071C169.424 214.071 168.95 212.34 169.667 212.18C172.926 211.469 175.593 211.392 178.408 209.656C178.704 209.458 179.048 209.345 179.404 209.33Z" fill="#263238"/>
<path d="M196.251 67.5562C200.156 68.4511 203.362 78.4245 203.362 78.4245L195.558 84.392C193.532 82.2261 192.103 79.5717 191.41 76.6882C190.029 71.4615 192.257 66.6318 196.251 67.5562Z" fill="#0660A0"/>
<path opacity="0.4" d="M196.251 67.5562C200.156 68.4511 203.362 78.4245 203.362 78.4245L195.558 84.392C193.532 82.2261 192.103 79.5717 191.41 76.6882C190.029 71.4615 192.257 66.6318 196.251 67.5562Z" fill="black"/>
<path d="M175.706 79.4499C174.734 80.4988 173.762 81.4351 172.743 82.4129C172.239 82.8869 171.729 83.361 171.208 83.8173L170.42 84.5107L170.224 84.6825L169.886 84.9551C169.539 85.2329 169.154 85.4603 168.743 85.6307C168.285 85.8248 167.794 85.9256 167.297 85.927C166.872 85.9288 166.451 85.8545 166.052 85.7077C165.611 85.5394 165.207 85.2834 164.867 84.9551C164.433 84.5308 164.115 84.0024 163.943 83.4203C163.853 83.1333 163.795 82.8371 163.771 82.5373C163.74 82.1864 163.74 81.8334 163.771 81.4825C163.8 81.198 163.836 80.9491 163.883 80.718C164.046 79.91 164.276 79.117 164.571 78.3476C164.837 77.6162 165.144 76.9001 165.489 76.2024C165.869 75.4498 166.23 74.8987 166.592 74.2705C168.06 71.8653 169.735 69.5929 171.599 67.4793C173.444 65.3782 175.477 63.4502 177.673 61.7192L179.854 63.9652C178.325 66.0156 176.82 68.2141 175.427 70.3771C174.041 72.5279 172.775 74.7535 171.635 77.0439C171.38 77.6009 171.042 78.2291 170.882 78.6795C170.67 79.2026 170.486 79.7367 170.331 80.2795C170.182 80.7682 170.069 81.2674 169.993 81.7728C169.989 81.8518 169.989 81.9309 169.993 82.0099C169.993 82.0573 169.993 82.081 169.993 81.9565C169.983 81.8235 169.958 81.6922 169.916 81.5654C169.788 81.1453 169.553 80.7656 169.235 80.4632C168.951 80.2028 168.619 80.0014 168.257 79.8706C167.939 79.7501 167.601 79.6878 167.261 79.6869C166.934 79.6829 166.61 79.7454 166.307 79.8706C166.205 79.9124 166.106 79.9619 166.011 80.0187L166.236 79.8113L166.953 79.1595L168.369 77.832C169.306 76.9491 170.248 76.0068 171.137 75.1298L175.706 79.4499Z" fill="#FF8B7B"/>
<path opacity="0.2" d="M192.903 74.8809C195.025 76.9787 195.718 80.8069 195.866 84.1254L195.523 84.3921C193.497 82.2262 192.067 79.5718 191.374 76.6883C191.297 76.3801 191.226 76.0957 191.173 75.7579L192.903 74.8809Z" fill="black"/>
<path d="M171.563 71.7046C170.71 76.2084 170.177 85.4589 172.648 103.77H194.965C195.119 100.351 192.968 83.6514 196.269 67.5268C193.803 67.0532 191.309 66.7385 188.802 66.5846C185.644 66.4035 182.478 66.4035 179.32 66.5846C178.277 66.6794 177.246 66.8334 176.357 66.9935C175.175 67.2008 174.084 67.7623 173.228 68.6036C172.372 69.4449 171.791 70.5262 171.563 71.7046Z" fill="#0660A0"/>
<path opacity="0.4" d="M171.563 71.7046C170.71 76.2084 170.177 85.4589 172.648 103.77H194.965C195.119 100.351 192.968 83.6514 196.269 67.5268C193.803 67.0532 191.309 66.7385 188.802 66.5846C185.644 66.4035 182.478 66.4035 179.32 66.5846C178.277 66.6794 177.246 66.8334 176.357 66.9935C175.175 67.2008 174.084 67.7623 173.228 68.6036C172.372 69.4449 171.791 70.5262 171.563 71.7046Z" fill="black"/>
<path opacity="0.2" d="M174.977 78.3834L170.947 77.4175C170.823 79.859 170.811 82.8813 170.989 86.6206C172.844 84.5109 175.214 81.2161 174.977 78.3834Z" fill="black"/>
<path opacity="0.2" d="M178.959 200.163L179.172 205.14H183.344L183.131 200.163H178.959Z" fill="black"/>
<path opacity="0.2" d="M210.047 198.895L205.97 199.778L208.079 204.412L212.156 203.529L210.047 198.895Z" fill="black"/>
<path d="M189.59 52.8363C188.524 56.8304 188.097 59.2245 185.632 60.8838C181.928 63.4082 177.306 60.5164 177.187 56.297C177.057 52.4866 178.829 46.5902 183.113 45.7843C184.055 45.6076 185.026 45.6736 185.935 45.976C186.844 46.2784 187.661 46.8073 188.309 47.5128C188.957 48.2183 189.415 49.0773 189.639 50.0086C189.863 50.94 189.846 51.9131 189.59 52.8363Z" fill="#FF8B7B"/>
<path d="M180.239 52.9843C180.038 52.4509 179.119 48.3205 179.985 47.2479C180.85 46.1753 190.717 46.9516 192.174 48.3857C194.598 50.7561 192.915 52.8894 190.266 55.6332C188.275 57.6954 188.198 60.0184 187.191 60.374C185.413 60.9666 182.699 60.4095 182.153 58.531C181.608 56.6525 180.239 52.9843 180.239 52.9843Z" fill="#263238"/>
<path d="M190.977 43.6865C187.493 42.205 180.956 43.8465 177.425 42.9932C177.38 44.3065 177.811 45.5917 178.64 46.6113C179.469 47.6309 180.639 48.3159 181.934 48.5399C184.864 49.0983 187.841 49.3741 190.823 49.3636C194.699 49.1858 193.94 44.9487 190.977 43.6865Z" fill="#263238"/>
<path d="M191.522 48.5104C192.795 48.6356 194.077 48.3907 195.214 47.8052C195.866 49.3815 192.281 49.8141 191.522 48.5104Z" fill="#263238"/>
<path d="M182.136 53.1504C182.056 54.1781 181.639 55.1507 180.95 55.9178C180.038 56.9193 179.09 56.2911 178.93 55.0763C178.787 53.9741 179.084 52.1133 180.198 51.58C181.312 51.0466 182.213 51.9118 182.136 53.1504Z" fill="#FF8B7B"/>
<path d="M180.559 103.788C180.559 103.788 185.3 135.64 187.89 147.575C190.728 160.642 205.982 203.873 205.982 203.873L213.442 202.255C213.442 202.255 202.776 167.019 200.405 148.749C198.568 134.716 194.959 103.776 194.959 103.776L180.559 103.788Z" fill="#0660A0"/>
<path d="M204.192 201.39C204.163 201.39 205.585 204.092 205.585 204.092L213.976 202.273L213.271 199.748L204.192 201.39Z" fill="#263238"/>
<path opacity="0.3" d="M183.552 115.137C189.022 116.209 188.441 136.606 187.783 147.101C186.207 139.682 183.896 125.412 182.319 115.285C182.701 115.096 183.136 115.044 183.552 115.137Z" fill="black"/>
<path d="M172.648 103.788C172.648 103.788 172.055 134.953 172.53 147.64C173.004 160.861 177.62 204.151 177.62 204.151H184.684C184.684 204.151 184.939 161.632 185.276 148.648C185.62 134.496 187.327 103.764 187.327 103.764L172.648 103.788Z" fill="#0660A0"/>
<path d="M176.263 201.366C176.227 201.366 176.66 204.293 176.66 204.293H185.247L185.484 201.68L176.263 201.366Z" fill="#263238"/>
<path d="M180.299 73.0914C182.296 78.4782 170.556 84.8249 170.556 84.8249L165.472 78.3063C165.472 78.3063 168.891 71.5388 173.039 68.4929C178.165 64.7358 178.776 68.9906 180.299 73.0914Z" fill="#0660A0"/>
<path opacity="0.4" d="M180.299 73.0914C182.296 78.4782 170.556 84.8249 170.556 84.8249L165.472 78.3063C165.472 78.3063 168.891 71.5388 173.039 68.4929C178.165 64.7358 178.776 68.9906 180.299 73.0914Z" fill="black"/>
<path d="M226.296 32.1961C238.108 32.1961 247.683 26.0939 247.683 18.5663C247.683 11.0388 238.108 4.93652 226.296 4.93652C214.484 4.93652 204.909 11.0388 204.909 18.5663C204.909 26.0939 214.484 32.1961 226.296 32.1961Z" fill="#0660A0"/>
<path d="M218.581 25.4287C217.172 25.4242 215.81 24.9232 214.733 24.0139C213.657 23.1046 212.936 21.8451 212.696 20.4568C212.46 18.9529 212.8 17.4154 213.646 16.1504C214.493 14.8853 215.785 13.9855 217.265 13.63C218.48 13.3501 219.752 13.458 220.902 13.9385C222.052 14.4189 223.022 15.2478 223.677 16.3086L237.408 13.4759C237.935 13.3604 238.487 13.4481 238.953 13.7217C239.419 13.9952 239.764 14.4344 239.92 14.9515C239.992 15.2234 240.008 15.5071 239.966 15.7852C239.925 16.0633 239.827 16.3301 239.679 16.5691C239.531 16.8082 239.335 17.0145 239.105 17.1756C238.874 17.3366 238.613 17.4489 238.338 17.5056L237.982 17.5767C237.93 17.5862 237.88 17.6077 237.837 17.6396C237.793 17.6714 237.758 17.7128 237.733 17.7604C237.712 17.8089 237.7 17.8614 237.7 17.9145C237.7 17.9677 237.712 18.0202 237.733 18.0686L237.976 18.6968C238.058 18.9004 238.066 19.126 237.999 19.3348C237.932 19.5435 237.794 19.7224 237.609 19.8405C237.463 19.9305 237.34 20.0525 237.249 20.1973C237.157 20.3421 237.1 20.5058 237.082 20.676C237.064 20.8714 236.985 21.0562 236.857 21.2042C236.728 21.3521 236.556 21.4556 236.365 21.4998L236.086 21.559C235.893 21.5947 235.694 21.568 235.517 21.4827C235.34 21.3975 235.195 21.2582 235.102 21.0849C234.979 20.8782 234.795 20.7151 234.575 20.6182C234.355 20.5213 234.11 20.4955 233.874 20.5445C233.639 20.5934 233.424 20.7146 233.261 20.8911C233.098 21.0677 232.994 21.2908 232.963 21.5294C232.947 21.7235 232.869 21.9073 232.741 22.0543C232.613 22.2013 232.442 22.3039 232.252 22.3472L231.973 22.4064C231.78 22.4412 231.581 22.414 231.405 22.3289C231.228 22.2438 231.083 22.105 230.99 21.9324C230.901 21.7854 230.781 21.6594 230.639 21.5633C230.497 21.4671 230.335 21.403 230.166 21.3753C229.938 21.3479 229.728 21.2382 229.575 21.0669C229.423 20.8956 229.338 20.6744 229.336 20.4449V19.7694C229.334 19.7165 229.32 19.6648 229.296 19.6178C229.272 19.5707 229.238 19.5295 229.196 19.4969C229.154 19.4642 229.106 19.441 229.055 19.4287C229.003 19.4164 228.95 19.4154 228.898 19.4257L224.518 20.3264C224.34 21.5397 223.792 22.6684 222.949 23.5591C222.106 24.4498 221.009 25.0592 219.807 25.3042C219.404 25.3868 218.993 25.4285 218.581 25.4287ZM217.395 14.1693C216.051 14.4833 214.876 15.2948 214.106 16.4406C213.337 17.5863 213.03 18.9812 213.247 20.3442C213.48 21.6123 214.159 22.7551 215.162 23.5659C216.164 24.3767 217.424 24.8019 218.713 24.7647C220.002 24.7275 221.234 24.2302 222.188 23.3629C223.142 22.4956 223.755 21.3155 223.914 20.036V19.8227L228.744 18.8449C228.882 18.8114 229.027 18.8091 229.166 18.8383C229.306 18.8675 229.437 18.9274 229.55 19.0137C229.664 19.0999 229.757 19.2104 229.822 19.337C229.888 19.4636 229.924 19.6032 229.929 19.7457V20.4212C229.93 20.5017 229.959 20.5792 230.011 20.6407C230.063 20.7022 230.134 20.744 230.213 20.759C230.472 20.7961 230.72 20.8917 230.936 21.0385C231.153 21.1853 231.333 21.3796 231.464 21.6064C231.495 21.6704 231.546 21.723 231.608 21.757C231.671 21.7909 231.743 21.8046 231.813 21.7961L232.086 21.7368C232.155 21.719 232.217 21.6794 232.261 21.6239C232.306 21.5684 232.332 21.4999 232.335 21.4286C232.372 21.0597 232.526 20.7123 232.774 20.4364C233.022 20.1606 233.351 19.9707 233.713 19.8942C234.076 19.8177 234.454 19.8585 234.792 20.0108C235.13 20.163 235.411 20.4188 235.594 20.7412C235.625 20.8047 235.674 20.8571 235.736 20.8911C235.797 20.9251 235.868 20.939 235.938 20.9309L236.222 20.8716C236.29 20.8527 236.351 20.8127 236.394 20.7573C236.438 20.7019 236.463 20.634 236.465 20.5634C236.495 20.3033 236.583 20.0532 236.724 19.8324C236.864 19.6116 237.054 19.4258 237.277 19.2894C237.342 19.2423 237.39 19.1747 237.413 19.0974C237.435 19.0201 237.431 18.9375 237.402 18.8627L237.159 18.2345C237.108 18.105 237.087 17.9661 237.096 17.8275C237.105 17.6889 237.144 17.5539 237.211 17.432C237.277 17.3101 237.37 17.2042 237.482 17.1218C237.593 17.0393 237.722 16.9822 237.858 16.9545L238.219 16.8775C238.415 16.8358 238.6 16.755 238.764 16.6401C238.928 16.5251 239.066 16.3783 239.172 16.2085C239.278 16.0387 239.348 15.8492 239.379 15.6516C239.41 15.4539 239.4 15.2521 239.351 15.0582C239.236 14.6853 238.983 14.3699 238.645 14.1753C238.306 13.9808 237.907 13.9215 237.526 14.0093L223.41 16.9427L223.304 16.759C222.736 15.7493 221.856 14.9517 220.796 14.4867C219.735 14.0216 218.552 13.9144 217.425 14.1811L217.395 14.1693ZM218.581 23.2242C217.845 23.2324 217.122 23.0265 216.501 22.6316C215.766 22.1492 215.221 21.4268 214.959 20.5876C214.697 19.7485 214.735 18.8445 215.065 18.0298C215.395 17.215 215.997 16.54 216.769 16.1198C217.542 15.6996 218.436 15.5601 219.299 15.7253C220.162 15.8904 220.942 16.3499 221.504 17.0254C222.067 17.7009 222.378 18.5506 222.384 19.4297C222.39 20.3087 222.091 21.1627 221.538 21.846C220.985 22.5293 220.212 22.9996 219.351 23.1768C219.099 23.2225 218.843 23.2423 218.587 23.2361L218.581 23.2242ZM218.581 16.2256C218.36 16.2269 218.14 16.2487 217.923 16.2908C217.51 16.3787 217.119 16.5471 216.771 16.7864C216.423 17.0256 216.126 17.331 215.896 17.6851C215.666 18.0392 215.509 18.4351 215.432 18.8501C215.355 19.2652 215.361 19.6913 215.449 20.1042C215.537 20.517 215.705 20.9085 215.944 21.2563C216.184 21.604 216.489 21.9013 216.843 22.131C217.197 22.3608 217.593 22.5185 218.008 22.5952C218.423 22.672 218.849 22.6662 219.262 22.5783C219.882 22.4493 220.45 22.1397 220.894 21.6885C221.338 21.2373 221.638 20.6648 221.757 20.043C221.877 19.4213 221.809 18.7782 221.563 18.1948C221.317 17.6114 220.904 17.1139 220.376 16.7649C219.852 16.416 219.234 16.2323 218.604 16.2375L218.581 16.2256Z" fill="white"/>
<path opacity="0.6" d="M208.892 40.1901C212.773 40.1901 215.92 38.1843 215.92 35.71C215.92 33.2358 212.773 31.23 208.892 31.23C205.01 31.23 201.863 33.2358 201.863 35.71C201.863 38.1843 205.01 40.1901 208.892 40.1901Z" fill="#0660A0"/>
<path opacity="0.3" d="M197.709 42.0271C199.303 42.0271 200.595 41.2047 200.595 40.1901C200.595 39.1755 199.303 38.353 197.709 38.353C196.115 38.353 194.823 39.1755 194.823 40.1901C194.823 41.2047 196.115 42.0271 197.709 42.0271Z" fill="#0660A0"/>
</svg>
