<svg width="15" height="19" viewBox="0 0 15 19" fill="none" xmlns="http://www.w3.org/2000/svg">
<path d="M1.90312 7.18652C1.65562 7.40327 1.50302 7.70847 1.47812 8.03652L1.2875 11.249H9.3875V9.99902H6.875C6.70312 9.99902 6.5625 9.8584 6.5625 9.68652C6.5625 9.51465 6.70312 9.37402 6.875 9.37402H9.3875V8.74902H6.875C6.70312 8.74902 6.5625 8.6084 6.5625 8.43652C6.5625 8.26465 6.70312 8.12402 6.875 8.12402H9.3875V6.87402H3.15312L4.40625 2.65527C4.48438 2.37402 4.73438 2.18652 5.0125 2.18652H7.22813V1.56152H5.0125C4.45 1.56152 3.95937 1.93652 3.80937 2.47715L2.775 5.95527C2.64062 5.40527 2.15 4.99902 1.5625 4.99902H0.625C0.28125 4.99902 0 5.28027 0 5.62402V6.56152C0 6.90527 0.28125 7.18652 0.625 7.18652H1.90312ZM2.8125 8.43652C2.8125 8.26465 2.95312 8.12402 3.125 8.12402H5C5.17187 8.12402 5.3125 8.26465 5.3125 8.43652V9.68652C5.3125 9.8584 5.17187 9.99902 5 9.99902H3.75C3.23125 9.99902 2.8125 9.58027 2.8125 9.06152V8.43652ZM5.3125 11.874H1.25C0.90625 11.874 0.625 12.1553 0.625 12.499V13.124C0.625 13.4678 0.90625 13.749 1.25 13.749H1.5625V15.9365C1.5625 16.2803 1.84375 16.5615 2.1875 16.5615H4.0625C4.40625 16.5615 4.6875 16.2803 4.6875 15.9365V13.749H5.3125V11.874ZM9.3 11.874H5.9375V13.749H7.76875C8.05 12.9771 8.5875 12.3146 9.3 11.874ZM5.3125 14.999H7.5375C7.54062 14.7865 7.55937 14.5771 7.59687 14.374H5.3125V14.999Z" fill="black"/>
<path d="M14.353 1.03047L12.6405 0.0398437C12.5437 -0.0132813 12.4249 -0.0132813 12.328 0.0398437C12.2312 0.0960938 12.1718 0.199219 12.1718 0.311719V3.58672L11.2499 4.04609L10.3312 3.58672V0.311719C10.3312 0.199219 10.2687 0.0960938 10.1749 0.0398437C10.0749 -0.0132813 9.95615 -0.0132813 9.85928 0.0398437L8.14678 1.03047C7.96553 1.13672 7.85303 1.33359 7.85303 1.54297V4.78047C7.85303 4.99297 7.96553 5.18672 8.1499 5.29297L10.0124 6.37109V12.2055C9.46237 12.4467 8.9945 12.8429 8.66597 13.3457C8.33743 13.8485 8.16245 14.4361 8.1624 15.0367C8.1624 15.8773 8.49678 16.6648 9.0999 17.2523C9.67443 17.8138 10.4466 18.1269 11.2499 18.1242H11.3468C12.9499 18.0742 14.2905 16.7305 14.3374 15.1305C14.3586 14.5139 14.1938 13.9052 13.8644 13.3836C13.535 12.8619 13.0563 12.4514 12.4905 12.2055V6.37109L14.353 5.29297C14.5343 5.18672 14.6499 4.99297 14.6499 4.78047V1.54297C14.6499 1.33359 14.5343 1.13672 14.353 1.03047ZM12.453 15.7305L11.2499 16.4242L10.0468 15.7305V14.343L11.2499 13.6492L12.453 14.343V15.7305Z" fill="black"/>
</svg>
