<svg width="24" height="24" viewBox="0 0 24 24" fill="none" xmlns="http://www.w3.org/2000/svg">
<g clip-path="url(#clip0_2479_5299)">
<path d="M16.1652 4.20047H9.93992C9.65669 4.20047 9.4271 4.43011 9.4271 4.71329C9.4271 4.99647 9.65669 5.22611 9.93992 5.22611H16.1652C16.4484 5.22611 16.678 4.99647 16.678 4.71329C16.678 4.43011 16.4484 4.20047 16.1652 4.20047ZM16.678 9.16626C16.678 8.88309 16.4484 8.65344 16.1652 8.65344H9.93992C9.65669 8.65344 9.4271 8.88309 9.4271 9.16626C9.4271 9.44944 9.65669 9.67909 9.93992 9.67909H16.1652C16.4484 9.67909 16.678 9.4495 16.678 9.16626ZM9.91161 13.1065C9.62838 13.1065 9.39879 13.3361 9.39879 13.6193C9.39879 13.9025 9.62838 14.1321 9.91161 14.1321H13.3547C13.6379 14.1321 13.8675 13.9025 13.8675 13.6193C13.8675 13.3361 13.6379 13.1065 13.3547 13.1065H9.91161ZM8.2512 3.40232C8.05633 3.19662 7.73177 3.18801 7.52623 3.38278L5.82074 4.99888L5.11546 4.30206C4.91402 4.10298 4.58931 4.10498 4.39023 4.30642C4.19115 4.50791 4.1931 4.83257 4.39459 5.03165L5.45279 6.07724C5.68951 6.27211 5.92725 6.27457 6.16597 6.08473L8.23166 4.12734C8.43725 3.93247 8.44602 3.60791 8.2512 3.40232ZM8.2512 8.09996C8.05633 7.89437 7.73177 7.88565 7.52623 8.08042L5.82074 9.69652L5.11551 8.9997C4.91407 8.80062 4.58936 8.80257 4.39028 9.00406C4.1912 9.20555 4.19315 9.53021 4.39464 9.72929L5.45284 10.7749C5.68956 10.9698 5.92731 10.9722 6.16602 10.7824L8.23172 8.82498C8.43725 8.63011 8.44602 8.30555 8.2512 8.09996ZM7.52623 12.5334L5.82074 14.1495L5.11551 13.4527C4.91402 13.2536 4.58936 13.2556 4.39028 13.4571C4.19125 13.6586 4.1932 13.9833 4.39464 14.1823L5.45284 15.2279C5.68956 15.4227 5.92731 15.4252 6.16602 15.2353L8.23172 13.278C8.43731 13.0831 8.44608 12.7586 8.25125 12.553C8.05633 12.3473 7.73177 12.3386 7.52623 12.5334Z" fill="black"/>
<path d="M24 14.7808C24 14.4976 23.7704 14.268 23.4872 14.268C23.2039 14.268 22.9744 14.4976 22.9744 14.7808C22.9744 16.7511 21.3547 18.354 19.3638 18.354C17.373 18.354 15.7533 16.7511 15.7533 14.7808C15.7533 12.8106 17.373 11.2076 19.3638 11.2076C20.2361 11.2076 21.0648 11.5183 21.7113 12.066L21.2362 12.0696C20.953 12.0718 20.7252 12.3032 20.7274 12.5864C20.7295 12.8683 20.9587 13.0953 21.2401 13.0953H21.2442L22.8023 13.0833C23.0821 13.0811 23.3085 12.8551 23.3111 12.5754L23.326 11.0146C23.3287 10.7313 23.1013 10.4995 22.8181 10.4968H22.8131C22.5322 10.4968 22.3031 10.7232 22.3004 11.0047L22.2984 11.2207C21.4804 10.557 20.4483 10.1819 19.3639 10.1819C16.8075 10.1819 14.7277 12.245 14.7277 14.7808C14.7277 17.08 16.4376 18.9905 18.6622 19.327V21.1689C18.6622 21.9421 17.9881 22.5708 17.2184 22.519C16.5788 22.4144 16.0987 21.8519 16.0987 21.2034V19.5944C16.0987 19.3112 15.8691 19.0815 15.5858 19.0815L15.5849 19.0816H2.90031L2.93031 1.99066C2.93077 1.70836 3.16087 1.47877 3.44313 1.47877H18.1493C18.4321 1.47877 18.6622 1.70882 18.6622 1.99159V6.0842C18.6622 6.36738 18.8917 6.59702 19.175 6.59702C19.4582 6.59702 19.6878 6.36738 19.6878 6.0842V1.99159C19.6878 1.14328 18.9976 0.453125 18.1493 0.453125H3.44313C2.59626 0.453125 1.9061 1.1421 1.90467 1.98887L1.87467 19.0816H0.512821C0.22959 19.0816 0 19.3113 0 19.5945V21.1878C0 22.4892 1.06041 23.5479 2.3639 23.5479H17.305C18.6189 23.5479 19.6878 22.4807 19.6878 21.1689V19.3682C22.0936 19.2027 24 17.2086 24 14.7808Z" fill="black"/>
<path d="M19.3644 12.3906C19.0812 12.3906 18.8516 12.6203 18.8516 12.9034V14.7856C18.8516 14.9218 18.9058 15.0524 19.0021 15.1486L20.262 16.4059C20.5038 16.6059 20.7456 16.6057 20.9873 16.4051C21.1873 16.2046 21.187 15.88 20.9865 15.6799L19.8772 14.5728V12.9034C19.8772 12.6203 19.6476 12.3906 19.3644 12.3906Z" fill="black"/>
<path d="M19.1735 8.90682C19.483 8.90682 19.7338 8.65747 19.7338 8.34989C19.7338 8.04231 19.483 7.79297 19.1735 7.79297C18.8641 7.79297 18.6133 8.04231 18.6133 8.34989C18.6133 8.65747 18.8641 8.90682 19.1735 8.90682Z" fill="black"/>
</g>
<defs>
<clipPath id="clip0_2479_5299">
<rect width="24" height="24" fill="white"/>
</clipPath>
</defs>
</svg>
