<svg width="34" height="34" viewBox="0 0 34 34" fill="none" xmlns="http://www.w3.org/2000/svg">
<path d="M28.6844 31.6094H11.6844C10.9094 31.6094 10.1662 31.3015 9.61827 30.7536C9.07032 30.2056 8.76248 29.4624 8.76248 28.6875V28.2094C6.94969 27.7894 5.33261 26.7677 4.1748 25.311C3.01699 23.8543 2.38672 22.0483 2.38672 20.1875C2.38672 18.3267 3.01699 16.5207 4.1748 15.064C5.33261 13.6073 6.94969 12.5856 8.76248 12.1656V5.31251C8.76248 4.53758 9.07032 3.79439 9.61827 3.24643C10.1662 2.69847 10.9094 2.39063 11.6844 2.39063H23.5525C23.9376 2.38992 24.319 2.46562 24.6746 2.61335C25.0303 2.76107 25.3531 2.9779 25.6244 3.25125L30.7456 8.37251C31.0254 8.65002 31.246 8.98145 31.3939 9.34672C31.5418 9.71199 31.6141 10.1035 31.6062 10.4975V28.6875C31.6062 29.4624 31.2984 30.2056 30.7504 30.7536C30.2025 31.3015 29.4593 31.6094 28.6844 31.6094ZM10.3562 28.4219V28.6875C10.3562 29.0397 10.4962 29.3776 10.7452 29.6266C10.9943 29.8757 11.3321 30.0156 11.6844 30.0156H28.6844C29.0366 30.0156 29.3744 29.8757 29.6235 29.6266C29.8726 29.3776 30.0125 29.0397 30.0125 28.6875V11.4219H25.4969C24.7219 11.4219 23.9787 11.114 23.4308 10.5661C22.8828 10.0181 22.575 9.27493 22.575 8.50001V3.98438H11.6844C11.3321 3.98438 10.9943 4.12431 10.7452 4.37338C10.4962 4.62245 10.3562 4.96026 10.3562 5.31251V11.9531H10.6219C12.8057 11.9531 14.9002 12.8207 16.4444 14.3649C17.9887 15.9092 18.8562 18.0036 18.8562 20.1875C18.8562 22.3714 17.9887 24.4658 16.4444 26.0101C14.9002 27.5543 12.8057 28.4219 10.6219 28.4219H10.3562ZM10.6219 13.5469C9.30846 13.5469 8.02456 13.9363 6.93252 14.666C5.84047 15.3957 4.98933 16.4328 4.48672 17.6462C3.9841 18.8597 3.8526 20.1949 4.10883 21.483C4.36506 22.7712 4.99751 23.9544 5.92622 24.8831C6.85493 25.8118 8.03818 26.4443 9.32633 26.7005C10.6145 26.9568 11.9497 26.8253 13.1631 26.3226C14.3765 25.82 15.4136 24.9689 16.1433 23.8768C16.873 22.7848 17.2625 21.5009 17.2625 20.1875C17.2625 18.4263 16.5628 16.7372 15.3175 15.4919C14.0721 14.2465 12.3831 13.5469 10.6219 13.5469ZM24.1687 4.13313V8.50001C24.1687 8.85225 24.3087 9.19006 24.5577 9.43913C24.8068 9.6882 25.1446 9.82813 25.4969 9.82813H29.8637C29.798 9.70751 29.7157 9.59665 29.6194 9.49875L24.4981 4.3775C24.4002 4.28112 24.2894 4.19887 24.1687 4.13313ZM26.5594 24.1719H21.2469C21.0355 24.1719 20.8328 24.0879 20.6834 23.9385C20.5339 23.789 20.45 23.5863 20.45 23.375C20.45 23.1637 20.5339 22.961 20.6834 22.8115C20.8328 22.6621 21.0355 22.5781 21.2469 22.5781H26.5594C26.7707 22.5781 26.9734 22.6621 27.1228 22.8115C27.2723 22.961 27.3562 23.1637 27.3562 23.375C27.3562 23.5863 27.2723 23.789 27.1228 23.9385C26.9734 24.0879 26.7707 24.1719 26.5594 24.1719ZM9.0281 22.5781C8.8231 22.5625 8.63239 22.4671 8.49685 22.3125C8.36618 22.1664 8.29393 21.9773 8.29393 21.7813C8.29393 21.5852 8.36618 21.3961 8.49685 21.25L9.85685 19.89V17C9.85685 16.7887 9.94081 16.586 10.0903 16.4365C10.2397 16.2871 10.4424 16.2031 10.6537 16.2031C10.8651 16.2031 11.0678 16.2871 11.2172 16.4365C11.3666 16.586 11.4506 16.7887 11.4506 17V20.1875C11.4504 20.3988 11.3663 20.6013 11.2169 20.7506L9.55935 22.3125C9.42381 22.4671 9.2331 22.5625 9.0281 22.5781ZM26.5594 19.9219H22.3094C22.098 19.9219 21.8953 19.8379 21.7459 19.6885C21.5964 19.539 21.5125 19.3363 21.5125 19.125C21.5125 18.9137 21.5964 18.711 21.7459 18.5615C21.8953 18.4121 22.098 18.3281 22.3094 18.3281H26.5594C26.7707 18.3281 26.9734 18.4121 27.1228 18.5615C27.2723 18.711 27.3562 18.9137 27.3562 19.125C27.3562 19.3363 27.2723 19.539 27.1228 19.6885C26.9734 19.8379 26.7707 19.9219 26.5594 19.9219ZM26.5594 15.6719H21.2469C21.0355 15.6719 20.8328 15.5879 20.6834 15.4385C20.5339 15.289 20.45 15.0863 20.45 14.875C20.45 14.6637 20.5339 14.461 20.6834 14.3115C20.8328 14.1621 21.0355 14.0781 21.2469 14.0781H26.5594C26.7707 14.0781 26.9734 14.1621 27.1228 14.3115C27.2723 14.461 27.3562 14.6637 27.3562 14.875C27.3562 15.0863 27.2723 15.289 27.1228 15.4385C26.9734 15.5879 26.7707 15.6719 26.5594 15.6719ZM19.1219 11.4219H15.9344C15.723 11.4219 15.5203 11.3379 15.3709 11.1885C15.2214 11.039 15.1375 10.8363 15.1375 10.625C15.1375 10.4137 15.2214 10.211 15.3709 10.0615C15.5203 9.91209 15.723 9.82813 15.9344 9.82813H19.1219C19.3332 9.82813 19.5359 9.91209 19.6853 10.0615C19.8348 10.211 19.9187 10.4137 19.9187 10.625C19.9187 10.8363 19.8348 11.039 19.6853 11.1885C19.5359 11.3379 19.3332 11.4219 19.1219 11.4219Z" fill="white"/>
</svg>
