<svg width="30" height="30" viewBox="0 0 30 30" fill="none" xmlns="http://www.w3.org/2000/svg">
<g clip-path="url(#clip0_2139_5950)">
<path d="M24.8954 2.75776C25.0662 2.86124 25.2248 2.98375 25.368 3.12295L30.5558 8.31072C30.695 8.45395 30.8175 8.61249 30.921 8.78332H26.5065C26.0792 8.78332 25.6694 8.61357 25.3673 8.31143C25.0651 8.00929 24.8954 7.5995 24.8954 7.1722V2.75776ZM31.3398 9.85739H26.5065C25.7944 9.85739 25.1114 9.57449 24.6078 9.07092C24.1042 8.56735 23.8213 7.88436 23.8213 7.1722V2.37109H11.4695C10.7629 2.37104 10.0847 2.64952 9.58207 3.14614C9.07941 3.64276 8.79277 4.3175 8.78429 5.02406V11.0818C9.31565 10.9829 9.85491 10.9326 10.3954 10.9315C12.8167 10.9315 15.1389 11.8933 16.851 13.6055C18.5632 15.3176 19.525 17.6398 19.525 20.0611C19.525 22.4824 18.5632 24.8046 16.851 26.5167C15.1389 28.2289 12.8167 29.1907 10.3954 29.1907C9.86911 29.1902 9.34406 29.1398 8.82725 29.0403C8.91978 29.6762 9.23727 30.2579 9.72209 30.6796C10.2069 31.1014 10.8269 31.3353 11.4695 31.3389H28.6547C29.3668 31.3389 30.0498 31.056 30.5534 30.5524C31.0569 30.0488 31.3398 29.3658 31.3398 28.6537V10.2118C31.3398 10.0937 31.3184 9.97554 31.3076 9.85739H31.3398ZM18.988 10.9315H15.7658C15.6233 10.9315 15.4867 10.8749 15.386 10.7742C15.2853 10.6735 15.2287 10.5369 15.2287 10.3944C15.2287 10.252 15.2853 10.1154 15.386 10.0147C15.4867 9.91397 15.6233 9.85739 15.7658 9.85739H18.988C19.1304 9.85739 19.267 9.91397 19.3677 10.0147C19.4684 10.1154 19.525 10.252 19.525 10.3944C19.525 10.5369 19.4684 10.6735 19.3677 10.7742C19.267 10.8749 19.1304 10.9315 18.988 10.9315ZM27.5806 23.8203H21.1361C20.9937 23.8203 20.8571 23.7638 20.7564 23.6631C20.6557 23.5623 20.5991 23.4257 20.5991 23.2833C20.5991 23.1409 20.6557 23.0043 20.7564 22.9036C20.8571 22.8029 20.9937 22.7463 21.1361 22.7463H27.5806C27.723 22.7463 27.8596 22.8029 27.9603 22.9036C28.061 23.0043 28.1176 23.1409 28.1176 23.2833C28.1176 23.4257 28.061 23.5623 27.9603 23.6631C27.8596 23.7638 27.723 23.8203 27.5806 23.8203ZM27.5806 19.5241H22.2102C22.0678 19.5241 21.9312 19.4675 21.8305 19.3668C21.7298 19.266 21.6732 19.1294 21.6732 18.987C21.6732 18.8446 21.7298 18.708 21.8305 18.6073C21.9312 18.5066 22.0678 18.45 22.2102 18.45H27.5806C27.723 18.45 27.8596 18.5066 27.9603 18.6073C28.061 18.708 28.1176 18.8446 28.1176 18.987C28.1176 19.1294 28.061 19.266 27.9603 19.3668C27.8596 19.4675 27.723 19.5241 27.5806 19.5241ZM27.5806 15.2278H21.1361C20.9937 15.2278 20.8571 15.1712 20.7564 15.0705C20.6557 14.9698 20.5991 14.8332 20.5991 14.6907C20.5991 14.5483 20.6557 14.4117 20.7564 14.311C20.8571 14.2103 20.9937 14.1537 21.1361 14.1537H27.5806C27.723 14.1537 27.8596 14.2103 27.9603 14.311C28.061 14.4117 28.1176 14.5483 28.1176 14.6907C28.1176 14.8332 28.061 14.9698 27.9603 15.0705C27.8596 15.1712 27.723 15.2278 27.5806 15.2278ZM10.3954 12.0055C8.80216 12.0055 7.2447 12.478 5.91998 13.3631C4.59525 14.2483 3.56275 15.5064 2.95304 16.9784C2.34333 18.4503 2.18381 20.07 2.49463 21.6327C2.80546 23.1953 3.57268 24.6306 4.69926 25.7572C5.82585 26.8838 7.26122 27.651 8.82384 27.9619C10.3865 28.2727 12.0062 28.1132 13.4781 27.5035C14.9501 26.8937 16.2082 25.8612 17.0934 24.5365C17.9785 23.2118 18.451 21.6543 18.451 20.0611C18.451 19.0032 18.2426 17.9557 17.8378 16.9784C17.4329 16.001 16.8396 15.113 16.0915 14.365C15.3435 13.6169 14.4555 13.0236 13.4781 12.6187C12.5008 12.2139 11.4533 12.0055 10.3954 12.0055ZM10.9324 20.0611C10.9333 20.1315 10.9194 20.2014 10.8917 20.2661C10.8639 20.3308 10.8229 20.3891 10.7713 20.437L9.16022 22.0481C9.112 22.0995 9.05377 22.1404 8.98911 22.1684C8.92445 22.1964 8.85475 22.2109 8.78429 22.2109C8.71384 22.2109 8.64413 22.1964 8.57947 22.1684C8.51481 22.1404 8.45658 22.0995 8.40836 22.0481C8.35699 21.9999 8.31605 21.9417 8.28805 21.877C8.26006 21.8124 8.24562 21.7427 8.24562 21.6722C8.24562 21.6017 8.26006 21.532 8.28805 21.4674C8.31605 21.4027 8.35699 21.3445 8.40836 21.2963L9.85836 19.8355V16.8389C9.85836 16.6964 9.91494 16.5598 10.0157 16.4591C10.1164 16.3584 10.253 16.3018 10.3954 16.3018C10.5378 16.3018 10.6744 16.3584 10.7751 16.4591C10.8759 16.5598 10.9324 16.6964 10.9324 16.8389V20.0611Z" fill="white"/>
</g>
<defs>
<clipPath id="clip0_2139_5950">
<rect width="30" height="30" fill="white" transform="translate(-0.00390625)"/>
</clipPath>
</defs>
</svg>
