<svg width="30" height="30" viewBox="0 0 30 30" fill="none" xmlns="http://www.w3.org/2000/svg">
<path d="M25.3127 27.8906H10.3127C9.62892 27.8906 8.97316 27.619 8.48967 27.1355C8.00618 26.652 7.73456 25.9963 7.73456 25.3125V24.8906C6.13504 24.52 4.7082 23.6186 3.6866 22.3332C2.66501 21.0479 2.10889 19.4544 2.10889 17.8125C2.10889 16.1706 2.66501 14.5771 3.6866 13.2918C4.7082 12.0064 6.13504 11.105 7.73456 10.7344V4.6875C7.73456 4.00374 8.00618 3.34799 8.48967 2.86449C8.97316 2.381 9.62892 2.10938 10.3127 2.10938H20.7846C21.1244 2.10875 21.4609 2.17554 21.7747 2.30589C22.0885 2.43624 22.3733 2.62756 22.6127 2.86875L27.1314 7.3875C27.3783 7.63237 27.5729 7.92481 27.7035 8.24711C27.834 8.5694 27.8977 8.91485 27.8908 9.2625V25.3125C27.8908 25.9963 27.6192 26.652 27.1357 27.1355C26.6522 27.619 25.9964 27.8906 25.3127 27.8906ZM9.14081 25.0781V25.3125C9.14081 25.6233 9.26427 25.9214 9.48404 26.1411C9.70381 26.3609 10.0019 26.4844 10.3127 26.4844H25.3127C25.6235 26.4844 25.9216 26.3609 26.1413 26.1411C26.3611 25.9214 26.4846 25.6233 26.4846 25.3125V10.0781H22.5002C21.8164 10.0781 21.1607 9.80651 20.6772 9.32301C20.1937 8.83952 19.9221 8.18377 19.9221 7.5V3.51563H10.3127C10.0019 3.51563 9.70381 3.63909 9.48404 3.85886C9.26427 4.07863 9.14081 4.3767 9.14081 4.6875V10.5469H9.37518C11.3021 10.5469 13.1502 11.3124 14.5128 12.6749C15.8753 14.0375 16.6408 15.8855 16.6408 17.8125C16.6408 19.7395 15.8753 21.5875 14.5128 22.9501C13.1502 24.3126 11.3021 25.0781 9.37518 25.0781H9.14081ZM9.37518 11.9531C8.21631 11.9531 7.08346 12.2968 6.11989 12.9406C5.15632 13.5844 4.40531 14.4996 3.96182 15.5702C3.51834 16.6409 3.40231 17.819 3.62839 18.9556C3.85448 20.0922 4.41253 21.1363 5.23198 21.9557C6.05143 22.7752 7.09547 23.3332 8.23207 23.5593C9.36868 23.7854 10.5468 23.6693 11.6175 23.2259C12.6881 22.7824 13.6032 22.0314 14.2471 21.0678C14.8909 20.1042 15.2346 18.9714 15.2346 17.8125C15.2346 16.2585 14.6172 14.7681 13.5184 13.6693C12.4195 12.5705 10.9292 11.9531 9.37518 11.9531ZM21.3283 3.64688V7.5C21.3283 7.8108 21.4518 8.10888 21.6715 8.32865C21.8913 8.54841 22.1894 8.67188 22.5002 8.67188H26.3533C26.2953 8.56545 26.2227 8.46763 26.1377 8.38125L21.6189 3.8625C21.5326 3.77746 21.4347 3.70489 21.3283 3.64688ZM23.4377 21.3281H18.7502C18.5637 21.3281 18.3849 21.254 18.253 21.1222C18.1211 20.9903 18.0471 20.8115 18.0471 20.625C18.0471 20.4385 18.1211 20.2597 18.253 20.1278C18.3849 19.996 18.5637 19.9219 18.7502 19.9219H23.4377C23.6242 19.9219 23.803 19.996 23.9349 20.1278C24.0667 20.2597 24.1408 20.4385 24.1408 20.625C24.1408 20.8115 24.0667 20.9903 23.9349 21.1222C23.803 21.254 23.6242 21.3281 23.4377 21.3281ZM7.96893 19.9219C7.78805 19.908 7.61978 19.8239 7.50018 19.6875C7.38488 19.5586 7.32114 19.3917 7.32114 19.2188C7.32114 19.0458 7.38488 18.8789 7.50018 18.75L8.70018 17.55V15C8.70018 14.8135 8.77426 14.6347 8.90612 14.5028C9.03798 14.371 9.21683 14.2969 9.40331 14.2969C9.58979 14.2969 9.76863 14.371 9.90049 14.5028C10.0324 14.6347 10.1064 14.8135 10.1064 15V17.8125C10.1063 17.9989 10.0321 18.1776 9.90018 18.3094L8.43768 19.6875C8.31809 19.8239 8.14982 19.908 7.96893 19.9219ZM23.4377 17.5781H19.6877C19.5012 17.5781 19.3224 17.5041 19.1905 17.3722C19.0586 17.2403 18.9846 17.0615 18.9846 16.875C18.9846 16.6885 19.0586 16.5097 19.1905 16.3778C19.3224 16.246 19.5012 16.1719 19.6877 16.1719H23.4377C23.6242 16.1719 23.803 16.246 23.9349 16.3778C24.0667 16.5097 24.1408 16.6885 24.1408 16.875C24.1408 17.0615 24.0667 17.2403 23.9349 17.3722C23.803 17.5041 23.6242 17.5781 23.4377 17.5781ZM23.4377 13.8281H18.7502C18.5637 13.8281 18.3849 13.7541 18.253 13.6222C18.1211 13.4903 18.0471 13.3115 18.0471 13.125C18.0471 12.9385 18.1211 12.7597 18.253 12.6278C18.3849 12.496 18.5637 12.4219 18.7502 12.4219H23.4377C23.6242 12.4219 23.803 12.496 23.9349 12.6278C24.0667 12.7597 24.1408 12.9385 24.1408 13.125C24.1408 13.3115 24.0667 13.4903 23.9349 13.6222C23.803 13.7541 23.6242 13.8281 23.4377 13.8281ZM16.8752 10.0781H14.0627C13.8762 10.0781 13.6974 10.0041 13.5655 9.87219C13.4336 9.74033 13.3596 9.56148 13.3596 9.375C13.3596 9.18852 13.4336 9.00968 13.5655 8.87782C13.6974 8.74596 13.8762 8.67188 14.0627 8.67188H16.8752C17.0617 8.67188 17.2405 8.74596 17.3724 8.87782C17.5042 9.00968 17.5783 9.18852 17.5783 9.375C17.5783 9.56148 17.5042 9.74033 17.3724 9.87219C17.2405 10.0041 17.0617 10.0781 16.8752 10.0781Z" fill="white"/>
</svg>
