<svg width="20" height="20" viewBox="0 0 20 20" fill="none" xmlns="http://www.w3.org/2000/svg">
<g clip-path="url(#clip0_5322_4339)">
<path d="M17.386 5.1607C18.808 5.1607 19.9609 4.00544 19.9609 2.58035C19.9609 1.15526 18.808 0 17.386 0C15.9639 0 14.811 1.15526 14.811 2.58035C14.811 4.00544 15.9639 5.1607 17.386 5.1607Z" fill="black"/>
<path d="M14.0389 14.4672H15.6954V16.1271H14.0389V14.4672ZM11.0237 5.43914C11.345 5.15352 11.7585 4.99625 12.188 4.99625C12.6174 4.99625 13.0309 5.15355 13.3522 5.43914L13.8139 5.84953V4.38324C13.8139 1.96953 11.8543 0.00585938 9.44562 0.00585938C7.33578 0.00585938 5.57055 1.51262 5.16504 3.50871C5.82828 4.5182 6.99063 6.49145 7.48777 8.5825L11.0237 5.43914Z" fill="black"/>
<path d="M19.4152 18.8205H18.6075V13.2445L18.9881 13.5828C19.0949 13.678 19.2329 13.7306 19.376 13.7304C19.4587 13.7305 19.5406 13.713 19.6161 13.679C19.6915 13.645 19.7589 13.5953 19.8137 13.5333C20.028 13.2912 20.0059 12.9208 19.7643 12.706L18.0499 11.1821V8.14496C18.0499 7.82133 17.7881 7.55895 17.4651 7.55895C17.1421 7.55895 16.8803 7.82133 16.8803 8.14496V10.1423L12.5759 6.31594C12.469 6.22084 12.3309 6.16831 12.1879 6.16831C12.0448 6.16831 11.9067 6.22084 11.7998 6.31594L4.61152 12.706C4.36992 12.9207 4.34781 13.2911 4.56211 13.5332C4.77645 13.7754 5.14609 13.7975 5.38766 13.5827L5.76828 13.2444V18.8204H3.88094V16.2637C4.13074 16.1872 4.37113 16.0616 4.59875 15.8894V14.8559C4.24594 14.7728 3.92751 14.5825 3.68723 14.3111C3.04531 13.5859 3.11176 12.4726 3.83535 11.8293L6.47488 9.48285C6.03059 6.64246 3.86863 3.68098 3.76652 3.54246C3.65625 3.39293 3.48172 3.30469 3.29617 3.30469C3.11063 3.30469 2.93609 3.39293 2.82582 3.54246C2.71195 3.69687 0.0376172 7.35977 0.0376172 10.452C0.0376172 11.9613 0.337969 13.3894 0.883359 14.4733C1.36445 15.4294 1.99973 16.0462 2.71137 16.2638V18.8205H0.584805C0.261836 18.8205 0 19.0829 0 19.4065C0 19.7301 0.261836 19.9925 0.584805 20H19.4152C19.7382 19.9925 20 19.7301 20 19.4065C20 19.0829 19.7382 18.8205 19.4152 18.8205ZM12.8693 13.8812C12.8693 13.5576 13.1311 13.2952 13.4541 13.2952H16.2802C16.6031 13.2952 16.865 13.5576 16.865 13.8812V16.7132C16.865 17.0369 16.6031 17.2993 16.2802 17.2993H13.4541C13.1311 17.2993 12.8693 17.0369 12.8693 16.7132V13.8812ZM9.66699 18.8205V14.4673H8.49738V18.8205H7.32781V13.8812C7.32781 13.5576 7.58965 13.2952 7.91262 13.2952H10.2518C10.5748 13.2952 10.8366 13.5576 10.8366 13.8812V18.8205H9.66699Z" fill="black"/>
</g>
<defs>
<clipPath id="clip0_5322_4339">
<rect width="20" height="20" fill="white"/>
</clipPath>
</defs>
</svg>
