<svg width="27" height="27" viewBox="0 0 27 27" fill="none" xmlns="http://www.w3.org/2000/svg">
<path d="M23.5219 26.6215H18.3281C17.525 26.6215 16.7548 26.3024 16.1869 25.7346C15.619 25.1667 15.3 24.3965 15.3 23.5933V18.4652C15.3 18.3138 15.2702 18.1638 15.2122 18.0239C15.1543 17.884 15.0693 17.7569 14.9623 17.6498C14.8552 17.5428 14.7281 17.4578 14.5882 17.3999C14.4483 17.3419 14.2983 17.3121 14.1469 17.3121H12.4031C12.2517 17.3121 12.1017 17.3419 11.9618 17.3999C11.8219 17.4578 11.6948 17.5428 11.5877 17.6498C11.4807 17.7569 11.3957 17.884 11.3378 18.0239C11.2798 18.1638 11.25 18.3138 11.25 18.4652V23.5933C11.25 23.991 11.1717 24.3848 11.0195 24.7522C10.8673 25.1195 10.6443 25.4534 10.3631 25.7346C10.0819 26.0157 9.74808 26.2388 9.38069 26.391C9.0133 26.5431 8.61953 26.6215 8.22187 26.6215H3.02812C2.22502 26.6215 1.4548 26.3024 0.886917 25.7346C0.319034 25.1667 0 24.3965 0 23.5933V13.1871C0.000656445 12.4414 0.297403 11.7265 0.825 11.1996L11.1375 0.887097C11.4179 0.605904 11.7511 0.382804 12.1179 0.23058C12.4847 0.0783565 12.8779 0 13.275 0C13.6721 0 14.0653 0.0783565 14.4321 0.23058C14.7989 0.382804 15.1321 0.605904 15.4125 0.887097L25.6594 11.134C25.9416 11.4138 26.1656 11.7468 26.3185 12.1136C26.4714 12.4805 26.55 12.874 26.55 13.2715V23.584C26.5512 23.9824 26.4738 24.3772 26.3222 24.7457C26.1706 25.1141 25.9477 25.4491 25.6664 25.7312C25.3851 26.0134 25.0509 26.2373 24.6829 26.3901C24.3149 26.5428 23.9203 26.6215 23.5219 26.6215ZM12.4031 15.4371H14.1469C14.95 15.4371 15.7202 15.7561 16.2881 16.324C16.856 16.8919 17.175 17.6621 17.175 18.4652V23.5933C17.175 23.8992 17.2965 24.1925 17.5127 24.4087C17.729 24.625 18.0223 24.7465 18.3281 24.7465H23.5219C23.8277 24.7465 24.121 24.625 24.3373 24.4087C24.5535 24.1925 24.675 23.8992 24.675 23.5933V13.2808C24.6721 12.9756 24.5512 12.6833 24.3375 12.4652L14.0906 2.20897C13.9835 2.10182 13.8564 2.01682 13.7164 1.95883C13.5765 1.90084 13.4265 1.87099 13.275 1.87099C13.1235 1.87099 12.9735 1.90084 12.8336 1.95883C12.6936 2.01682 12.5665 2.10182 12.4594 2.20897L2.14687 12.5215C2.05999 12.6091 1.99124 12.713 1.94459 12.8272C1.89794 12.9414 1.87429 13.0637 1.875 13.1871V23.5933C1.875 23.8992 1.99649 24.1925 2.21274 24.4087C2.429 24.625 2.7223 24.7465 3.02812 24.7465H8.22187C8.5277 24.7465 8.821 24.625 9.03726 24.4087C9.25351 24.1925 9.375 23.8992 9.375 23.5933V18.4652C9.375 17.6621 9.69403 16.8919 10.2619 16.324C10.8298 15.7561 11.6 15.4371 12.4031 15.4371Z" fill="#0660A0"/>
</svg>
