<svg width="16" height="16" viewBox="0 0 16 16" fill="none" xmlns="http://www.w3.org/2000/svg">
<path d="M3.89552 3.04591C6.16246 0.778968 9.83792 0.778968 12.1049 3.04591C14.3718 5.31285 14.3718 8.98831 12.1049 11.2552L11.3135 12.0378C10.7303 12.6102 9.97352 13.3462 9.04292 14.2459C8.46146 14.8082 7.53892 14.8081 6.95752 14.2458L4.6301 11.9818C4.33759 11.6946 4.09274 11.4524 3.89552 11.2552C1.62858 8.98831 1.62858 5.31285 3.89552 3.04591ZM11.3977 3.75301C9.52132 1.87659 6.47904 1.87659 4.60262 3.75301C2.7262 5.62943 2.7262 8.67171 4.60262 10.5481L5.594 11.5264C6.13994 12.0607 6.82626 12.7276 7.65272 13.527C7.84652 13.7144 8.15399 13.7144 8.34786 13.527L10.6111 11.326C10.9237 11.0192 11.186 10.7598 11.3977 10.5481C13.2741 8.67171 13.2741 5.62943 11.3977 3.75301ZM8.00019 5.33301C9.10532 5.33301 10.0012 6.2289 10.0012 7.33405C10.0012 8.43918 9.10532 9.33505 8.00019 9.33505C6.89506 9.33505 5.99914 8.43918 5.99914 7.33405C5.99914 6.2289 6.89506 5.33301 8.00019 5.33301ZM8.00019 6.33301C7.44732 6.33301 6.99912 6.78118 6.99912 7.33405C6.99912 7.88691 7.44732 8.33505 8.00019 8.33505C8.55306 8.33505 9.00119 7.88691 9.00119 7.33405C9.00119 6.78118 8.55306 6.33301 8.00019 6.33301Z" fill="#212121"/>
</svg>
