<svg width="10" height="10" viewBox="0 0 10 10" fill="none" xmlns="http://www.w3.org/2000/svg">
<path d="M5.49486 0.974081C5.1912 0.784681 4.8062 0.784681 4.50253 0.974081L1.27338 2.98822C0.99886 3.15945 0.832031 3.46013 0.832031 3.78367V6.97855C0.832031 7.72643 1.43831 8.33272 2.1862 8.33272H7.8112C8.55907 8.33272 9.16536 7.72643 9.16536 6.97855V3.78367C9.16536 3.46013 8.99853 3.15945 8.72403 2.98822L5.49486 0.974081ZM4.83332 1.50438C4.93453 1.44125 5.06286 1.44125 5.16407 1.50438L8.18157 3.38649L4.9987 5.06168L1.81582 3.38649L4.83332 1.50438ZM1.45703 3.90394L4.85316 5.69139C4.94424 5.7393 5.05316 5.7393 5.14424 5.69139L8.54036 3.90394V6.97855C8.54036 7.38126 8.21391 7.70772 7.8112 7.70772H2.1862C1.78349 7.70772 1.45703 7.38126 1.45703 6.97855V3.90394Z" fill="#212121"/>
</svg>
