<svg width="20" height="20" viewBox="0 0 20 20" fill="none" xmlns="http://www.w3.org/2000/svg">
<path fill-rule="evenodd" clip-rule="evenodd" d="M10.0549 14.9109C7.4377 14.9109 5.29395 12.8434 5.1709 10.2555H1.11035V10.9785C1.11035 11.1387 1.23965 11.2687 1.40059 11.2687H3.04512C3.38652 11.2687 3.67988 11.4898 3.77402 11.8191C3.90957 12.2953 4.10098 12.7566 4.34199 13.1906C4.50957 13.4898 4.4584 13.8535 4.21582 14.0957L3.05293 15.259C2.99707 15.3137 2.96855 15.3863 2.96855 15.4641C2.96855 15.5418 2.99746 15.6148 3.05293 15.6691L4.40723 17.0234C4.52051 17.1367 4.70371 17.1367 4.81699 17.0234L5.97988 15.8602C6.12832 15.7129 6.31973 15.6363 6.51582 15.6363C6.64004 15.6363 6.76777 15.6684 6.88574 15.7336C7.31981 15.9749 7.7801 16.1656 8.25762 16.302C8.58613 16.3961 8.80801 16.6891 8.80801 17.0316V18.6762C8.80801 18.8363 8.9373 18.9664 9.09824 18.9664H11.0123C11.1732 18.9664 11.3025 18.8363 11.3025 18.6762V17.0316C11.3025 16.6891 11.5244 16.3961 11.8529 16.302C12.3299 16.166 12.7908 15.9746 13.2248 15.7336C13.5248 15.5672 13.8885 15.618 14.1307 15.8602L15.2936 17.0234C15.4068 17.1367 15.59 17.1367 15.7033 17.0234L17.0576 15.6695C17.1119 15.6148 17.142 15.5418 17.142 15.4641C17.142 15.3863 17.1115 15.3137 17.0576 15.259L15.8947 14.0957C15.6521 13.8535 15.6014 13.4898 15.7686 13.1902C16.0096 12.7566 16.201 12.2953 16.3365 11.8191C16.4307 11.4898 16.724 11.2687 17.0654 11.2687H18.71C18.8709 11.2687 19.0002 11.1387 19.0002 10.9785V10.2555H14.9389C14.8162 12.8434 12.6725 14.9109 10.0549 14.9109ZM12.4557 9.78594V2.94375L8.20645 1.19141V9.78594H7.7377V4.77891H5.30684V9.78711H9.51113V8.46641C9.51113 8.33711 9.61621 8.23203 9.74551 8.23203H10.9162C11.0455 8.23203 11.1506 8.33711 11.1506 8.46641V9.78711H15.3549V4.77891H12.924V9.78633H12.4557V9.78594ZM10.9803 5.98086C10.9803 6.11016 10.8752 6.21523 10.7459 6.21523H9.9166C9.78574 6.21523 9.68223 6.11016 9.68223 5.98086C9.68223 5.85117 9.78574 5.74648 9.9166 5.74648H10.7459C10.8748 5.74648 10.9803 5.85117 10.9803 5.98086ZM10.9803 4.4707C10.9803 4.6 10.8752 4.70508 10.7459 4.70508H9.9166C9.78574 4.70508 9.68223 4.6 9.68223 4.4707C9.68223 4.34141 9.78574 4.23633 9.9166 4.23633H10.7459C10.8748 4.23633 10.9803 4.34141 10.9803 4.4707ZM15.824 6.48047V9.78711H17.3646V6.48047H15.824ZM9.97988 8.70039H10.6818V9.78672H9.97988V8.70039ZM4.8377 9.78594V6.48008H2.74512V9.78672H4.8377V9.78594Z" fill="black"/>
</svg>
