<svg width="305" height="273" viewBox="0 0 305 273" fill="none" xmlns="http://www.w3.org/2000/svg">
<path d="M150.746 272.604C180.705 272.604 204.99 270.065 204.99 266.932C204.99 263.799 180.705 261.259 150.746 261.259C120.788 261.259 96.5024 263.799 96.5024 266.932C96.5024 270.065 120.788 272.604 150.746 272.604Z" fill="#0660A0"/>
<path opacity="0.5" d="M150.746 272.604C180.705 272.604 204.99 270.065 204.99 266.932C204.99 263.799 180.705 261.259 150.746 261.259C120.788 261.259 96.5024 263.799 96.5024 266.932C96.5024 270.065 120.788 272.604 150.746 272.604Z" fill="white"/>
<path d="M273.324 220.062V211.404H263.666V194.606H249.789V126.379H236.516V167.619H224.447V152.856H208.16V191.04H201.523V203.257H185.838V198.676H190.66V196.131H170.749V199.187H173.167V212.425H162.907V187.473H126.709V205.292H100.757V192.054H91.1062V206.824H70.5927V179.836H62.1477V170.675H47.0586V212.425H31.9766V221.587H22.3262V249.588H292.029V220.062H273.324Z" stroke="#2E353A" stroke-miterlimit="10"/>
<path d="M52.9937 179.716H49.7319V182.978H52.9937V179.716Z" fill="#2E353A"/>
<path d="M59.7866 179.716H56.5249V182.978H59.7866V179.716Z" fill="#2E353A"/>
<path d="M52.9937 186.516H49.7319V189.777H52.9937V186.516Z" fill="#2E353A"/>
<path d="M59.7866 186.516H56.5249V189.777H59.7866V186.516Z" fill="#2E353A"/>
<path d="M67.1255 186.516H63.8638V189.777H67.1255V186.516Z" fill="#2E353A"/>
<path d="M67.1255 193.309H63.8638V196.57H67.1255V193.309Z" fill="#2E353A"/>
<path d="M67.1255 200.109H63.8638V203.371H67.1255V200.109Z" fill="#2E353A"/>
<path d="M67.1255 206.902H63.8638V210.164H67.1255V206.902Z" fill="#2E353A"/>
<path d="M67.1255 213.702H63.8638V216.963H67.1255V213.702Z" fill="#2E353A"/>
<path d="M67.1255 220.501H63.8638V223.763H67.1255V220.501Z" fill="#2E353A"/>
<path d="M52.9937 193.309H49.7319V196.57H52.9937V193.309Z" fill="#2E353A"/>
<path d="M59.7866 193.309H56.5249V196.57H59.7866V193.309Z" fill="#2E353A"/>
<path d="M52.9937 200.109H49.7319V203.371H52.9937V200.109Z" fill="#2E353A"/>
<path d="M59.7866 200.109H56.5249V203.371H59.7866V200.109Z" fill="#2E353A"/>
<path d="M52.9937 206.902H49.7319V210.164H52.9937V206.902Z" fill="#2E353A"/>
<path d="M59.7866 206.902H56.5249V210.164H59.7866V206.902Z" fill="#2E353A"/>
<path d="M52.9937 213.702H49.7319V216.963H52.9937V213.702Z" fill="#2E353A"/>
<path d="M38.0391 217.509H34.7773V220.771H38.0391V217.509Z" fill="#2E353A"/>
<path d="M85.0718 210.164H81.8101V213.425H85.0718V210.164Z" fill="#2E353A"/>
<path d="M91.5952 210.164H88.3335V213.425H91.5952V210.164Z" fill="#2E353A"/>
<path d="M241.947 130.229H238.686V133.491H241.947V130.229Z" fill="#2E353A"/>
<path d="M246.024 130.229H242.763V133.491H246.024V130.229Z" fill="#2E353A"/>
<path d="M241.947 137.03H238.686V140.292H241.947V137.03Z" fill="#2E353A"/>
<path d="M246.024 137.03H242.763V140.292H246.024V137.03Z" fill="#2E353A"/>
<path d="M241.947 143.83H238.686V147.091H241.947V143.83Z" fill="#2E353A"/>
<path d="M246.024 143.83H242.763V147.091H246.024V143.83Z" fill="#2E353A"/>
<path d="M241.947 150.623H238.686V153.884H241.947V150.623Z" fill="#2E353A"/>
<path d="M246.024 150.623H242.763V153.884H246.024V150.623Z" fill="#2E353A"/>
<path d="M241.947 157.422H238.686V160.684H241.947V157.422Z" fill="#2E353A"/>
<path d="M246.024 157.422H242.763V160.684H246.024V157.422Z" fill="#2E353A"/>
<path d="M241.947 164.215H238.686V167.477H241.947V164.215Z" fill="#2E353A"/>
<path d="M246.024 164.215H242.763V167.477H246.024V164.215Z" fill="#2E353A"/>
<path d="M241.947 171.016H238.686V174.277H241.947V171.016Z" fill="#2E353A"/>
<path d="M246.024 171.016H242.763V174.277H246.024V171.016Z" fill="#2E353A"/>
<path d="M241.947 177.815H238.686V181.077H241.947V177.815Z" fill="#2E353A"/>
<path d="M246.024 177.815H242.763V181.077H246.024V177.815Z" fill="#2E353A"/>
<path d="M241.947 184.608H238.686V187.87H241.947V184.608Z" fill="#2E353A"/>
<path d="M246.024 184.608H242.763V187.87H246.024V184.608Z" fill="#2E353A"/>
<path d="M214.215 184.608H210.954V187.87H214.215V184.608Z" fill="#2E353A"/>
<path d="M221.285 184.608H218.023V187.87H221.285V184.608Z" fill="#2E353A"/>
<path d="M228.354 184.608H225.092V187.87H228.354V184.608Z" fill="#2E353A"/>
<path d="M214.215 199.293H210.954V202.555H214.215V199.293Z" fill="#2E353A"/>
<path d="M221.285 199.293H218.023V202.555H221.285V199.293Z" fill="#2E353A"/>
<path d="M228.354 199.293H225.092V202.555H228.354V199.293Z" fill="#2E353A"/>
<path d="M214.215 213.971H210.954V217.233H214.215V213.971Z" fill="#2E353A"/>
<path d="M221.285 213.971H218.023V217.233H221.285V213.971Z" fill="#2E353A"/>
<path d="M228.354 213.971H225.092V217.233H228.354V213.971Z" fill="#2E353A"/>
<path d="M241.947 191.408H238.686V194.67H241.947V191.408Z" fill="#2E353A"/>
<path d="M246.024 191.408H242.763V194.67H246.024V191.408Z" fill="#2E353A"/>
<path d="M241.947 198.201H238.686V201.463H241.947V198.201Z" fill="#2E353A"/>
<path d="M246.024 198.201H242.763V201.463H246.024V198.201Z" fill="#2E353A"/>
<path d="M241.947 205.001H238.686V208.263H241.947V205.001Z" fill="#2E353A"/>
<path d="M246.024 205.001H242.763V208.263H246.024V205.001Z" fill="#2E353A"/>
<path d="M252.824 198.201H249.562V201.463H252.824V198.201Z" fill="#2E353A"/>
<path d="M260.44 198.201H257.178V201.463H260.44V198.201Z" fill="#2E353A"/>
<path d="M252.824 204.732H249.562V207.994H252.824V204.732Z" fill="#2E353A"/>
<path d="M260.44 204.732H257.178V207.994H260.44V204.732Z" fill="#2E353A"/>
<path d="M252.824 211.255H249.562V214.517H252.824V211.255Z" fill="#2E353A"/>
<path d="M260.44 211.255H257.178V214.517H260.44V211.255Z" fill="#2E353A"/>
<path d="M252.824 217.779H249.562V221.041H252.824V217.779Z" fill="#2E353A"/>
<path d="M260.44 217.779H257.178V221.041H260.44V217.779Z" fill="#2E353A"/>
<path d="M241.947 211.801H238.686V215.063H241.947V211.801Z" fill="#2E353A"/>
<path d="M246.024 211.801H242.763V215.063H246.024V211.801Z" fill="#2E353A"/>
<path d="M241.947 218.594H238.686V221.856H241.947V218.594Z" fill="#2E353A"/>
<path d="M246.024 218.594H242.763V221.856H246.024V218.594Z" fill="#2E353A"/>
<path d="M59.7866 213.702H56.5249V216.963H59.7866V213.702Z" fill="#2E353A"/>
<path d="M52.9937 220.501H49.7319V223.763H52.9937V220.501Z" fill="#2E353A"/>
<path d="M59.7866 220.501H56.5249V223.763H59.7866V220.501Z" fill="#2E353A"/>
<path d="M52.9937 227.294H49.7319V230.556H52.9937V227.294Z" fill="#2E353A"/>
<path d="M59.7866 227.294H56.5249V230.556H59.7866V227.294Z" fill="#2E353A"/>
<path d="M52.9937 234.095H49.7319V237.356H52.9937V234.095Z" fill="#2E353A"/>
<path d="M59.7866 234.095H56.5249V237.356H59.7866V234.095Z" fill="#2E353A"/>
<path d="M231.616 236.137V249.588H204.43V222.842H231.616V233.74" stroke="#2E353A" stroke-miterlimit="10"/>
<path d="M281.648 245.525V249.588H254.455V235.449H260.071" stroke="#2E353A" stroke-miterlimit="10"/>
<path d="M263.382 235.449H281.648V243.319" stroke="#2E353A" stroke-miterlimit="10"/>
<path d="M81.2572 235.449H100.572V249.588H73.3794V235.449H78.6762" stroke="#2E353A" stroke-miterlimit="10"/>
<path d="M38.72 235.449H41.301V249.588H31.2393V235.449H36.692" stroke="#2E353A" stroke-miterlimit="10"/>
<path d="M220.193 222.842H215.846V249.588H220.193V222.842Z" stroke="#2E353A" stroke-miterlimit="10"/>
<path d="M186.405 226.479H182.137V219.41H196.545V226.479H190.277" stroke="#2E353A" stroke-miterlimit="10"/>
<path d="M110.088 214.517H93.5029V220.502H110.088V214.517Z" stroke="#2E353A" stroke-miterlimit="10"/>
<path d="M103.019 214.517H101.388V249.588H103.019V214.517Z" stroke="#2E353A" stroke-miterlimit="10"/>
<path d="M153.895 1.47656C129.635 1.47656 106.369 11.1136 89.2153 28.2676C72.0613 45.4216 62.4243 68.6874 62.4243 92.9469C62.4243 138.576 146.804 246.106 146.804 246.106H153.895C153.895 246.106 245.365 143.461 245.365 92.9469C245.365 68.6874 235.728 45.4216 218.574 28.2676C201.42 11.1136 178.154 1.47656 153.895 1.47656ZM153.895 137.618C145.059 137.618 136.423 134.998 129.076 130.09C121.73 125.181 116.005 118.205 112.624 110.042C109.242 101.879 108.358 92.8973 110.081 84.2319C111.805 75.5665 116.06 67.6067 122.307 61.3593C128.554 55.1119 136.514 50.8573 145.18 49.1337C153.845 47.41 162.827 48.2947 170.99 51.6757C179.152 55.0568 186.129 60.7825 191.038 68.1287C195.946 75.4749 198.566 84.1117 198.566 92.9469C198.566 98.8132 197.411 104.622 195.166 110.042C192.921 115.462 189.63 120.386 185.482 124.534C181.334 128.683 176.41 131.973 170.99 134.218C165.57 136.463 159.761 137.618 153.895 137.618Z" fill="#FF5B26"/>
<path d="M146.804 1.47656C122.544 1.47656 99.2785 11.1136 82.1245 28.2676C64.9705 45.4216 55.3335 68.6874 55.3335 92.9469C55.3335 143.461 146.804 246.106 146.804 246.106C146.804 246.106 238.274 143.461 238.274 92.9469C238.274 68.6874 228.637 45.4216 211.483 28.2676C194.329 11.1136 171.063 1.47656 146.804 1.47656ZM146.804 137.618C137.969 137.618 129.332 134.998 121.986 130.09C114.639 125.181 108.914 118.205 105.533 110.042C102.152 101.879 101.267 92.8973 102.991 84.2319C104.714 75.5665 108.969 67.6067 115.216 61.3593C121.464 55.1119 129.423 50.8573 138.089 49.1337C146.754 47.41 155.736 48.2947 163.899 51.6757C172.062 55.0568 179.038 60.7825 183.947 68.1287C188.855 75.4749 191.475 84.1117 191.475 92.9469C191.475 104.795 186.769 116.157 178.391 124.534C170.014 132.912 158.651 137.618 146.804 137.618Z" fill="#0660A0"/>
<path d="M118.037 148.694L128.141 131.499L128.319 137.703L122.292 149.758L118.037 148.694Z" fill="white" stroke="#2E353A" stroke-linecap="round" stroke-linejoin="round"/>
<path d="M128.319 206.781C127.75 209.775 126.443 212.58 124.518 214.943C121.292 218.935 116.924 226.72 116.718 234.123C116.513 241.526 107.975 262.011 108.918 263.528C109.861 265.046 118.221 267.137 121.448 267.137C123.142 267.137 125.95 267.79 127.071 266.138C127.134 266.046 120.441 262.592 119.98 262.259C119.519 261.926 115.789 259.302 115.91 258.969C115.91 258.969 124.66 235.258 129.028 229.188C133.396 223.118 136.622 218.552 137.948 214.758C139.274 210.965 140.465 207.37 140.465 207.37L128.319 206.781Z" fill="white"/>
<mask id="mask0_5077_1657" style="mask-type:luminance" maskUnits="userSpaceOnUse" x="108" y="206" width="33" height="62">
<path d="M128.319 206.781C127.75 209.775 126.443 212.58 124.518 214.943C121.292 218.935 116.924 226.72 116.718 234.123C116.513 241.526 107.975 262.011 108.918 263.528C109.861 265.046 118.221 267.137 121.448 267.137C123.142 267.137 125.95 267.79 127.071 266.138C127.134 266.046 120.441 262.592 119.98 262.259C119.519 261.926 115.789 259.302 115.91 258.969C115.91 258.969 124.66 235.258 129.028 229.188C133.396 223.118 136.622 218.552 137.948 214.758C139.274 210.965 140.465 207.37 140.465 207.37L128.319 206.781Z" fill="white"/>
</mask>
<g mask="url(#mask0_5077_1657)">
<g style="mix-blend-mode:multiply">
<path d="M125.943 212.914C129.618 214.488 133.478 215.587 137.43 216.183C137.643 215.694 137.834 215.219 137.998 214.765C139.331 210.965 140.465 207.355 140.465 207.355L128.319 206.788C127.913 208.96 127.108 211.037 125.943 212.914Z" fill="#0660A0"/>
</g>
</g>
<path d="M128.319 206.781C127.75 209.775 126.443 212.58 124.518 214.943C121.292 218.935 116.924 226.72 116.718 234.123C116.513 241.526 107.975 262.011 108.918 263.528C109.861 265.046 118.221 267.137 121.448 267.137C123.142 267.137 125.95 267.79 127.071 266.138C127.134 266.046 120.441 262.592 119.98 262.259C119.519 261.926 115.789 259.302 115.91 258.969C115.91 258.969 124.66 235.258 129.028 229.188C133.396 223.118 136.622 218.552 137.948 214.758C139.274 210.965 140.465 207.37 140.465 207.37L128.319 206.781Z" stroke="#2E353A" stroke-linecap="round" stroke-linejoin="round"/>
<path d="M155.795 208.334C157.647 210.757 158.865 213.604 159.34 216.616C160.142 221.686 163.006 230.138 168.388 235.236C173.77 240.334 183.279 261.777 185.037 262.082C187.1 262.45 190.249 259.813 191.78 258.742C193.73 257.381 198.205 254.601 198.871 252.197C199.672 249.432 196.829 250.822 195.631 251.715C194.078 252.871 186.328 253.842 186.328 253.842C186.328 253.842 174.55 230.06 172.962 222.757C171.373 215.453 170.125 209.993 168.204 206.448C166.282 202.903 164.353 199.662 164.353 199.662L155.795 208.334Z" fill="white"/>
<mask id="mask1_5077_1657" style="mask-type:luminance" maskUnits="userSpaceOnUse" x="155" y="199" width="45" height="64">
<path d="M155.795 208.334C157.647 210.757 158.865 213.604 159.34 216.616C160.142 221.686 163.006 230.138 168.388 235.236C173.77 240.334 183.279 261.777 185.037 262.082C187.1 262.45 190.249 259.813 191.78 258.742C193.73 257.381 198.205 254.601 198.871 252.197C199.672 249.432 196.829 250.822 195.631 251.715C194.078 252.871 186.328 253.842 186.328 253.842C186.328 253.842 174.55 230.06 172.962 222.757C171.373 215.453 170.125 209.993 168.204 206.448C166.282 202.903 164.353 199.662 164.353 199.662L155.795 208.334Z" fill="white"/>
</mask>
<g mask="url(#mask1_5077_1657)">
<g style="mix-blend-mode:multiply">
<path d="M168.204 206.469C166.268 202.924 164.346 199.684 164.346 199.684L155.795 208.334C157.247 210.233 158.305 212.403 158.908 214.716C162.767 214.028 166.562 213.02 170.253 211.702C169.75 209.893 169.063 208.139 168.204 206.469Z" fill="#0660A0"/>
</g>
</g>
<path d="M155.795 208.334C157.647 210.757 158.865 213.604 159.34 216.616C160.142 221.686 163.006 230.138 168.388 235.236C173.77 240.334 183.279 261.777 185.037 262.082C187.1 262.45 190.249 259.813 191.78 258.742C193.73 257.381 198.205 254.601 198.871 252.197C199.672 249.432 196.829 250.822 195.631 251.715C194.078 252.871 186.328 253.842 186.328 253.842C186.328 253.842 174.55 230.06 172.962 222.757C171.373 215.453 170.125 209.993 168.204 206.448C166.282 202.903 164.353 199.662 164.353 199.662L155.795 208.334Z" stroke="#2E353A" stroke-linecap="round" stroke-linejoin="round"/>
<path d="M198.878 252.197C199.679 249.432 196.836 250.822 195.638 251.715C194.085 252.871 186.335 253.842 186.335 253.842C186.335 253.842 185.498 251.999 184.278 249.219C182.768 250.414 181.097 251.39 179.315 252.119C181.974 257.359 184.179 261.961 185.044 262.11C187.108 262.479 190.256 259.841 191.788 258.77C193.716 257.381 198.19 254.601 198.878 252.197Z" fill="white" stroke="#2E353A" stroke-linecap="round" stroke-linejoin="round"/>
<path d="M128.574 168.888L121.986 205.243C124.957 207.144 128.121 208.727 131.424 209.965C136.614 211.851 145.606 211.383 145.606 211.383L149.151 193.692L150.569 210.206C150.569 210.206 157.412 210.915 162.368 209.972C167.324 209.029 175.344 203.832 175.344 203.832L159.744 174.816L156.199 167.974L128.595 167.265L128.574 168.888Z" fill="white"/>
<mask id="mask2_5077_1657" style="mask-type:luminance" maskUnits="userSpaceOnUse" x="121" y="167" width="55" height="45">
<path d="M128.574 168.888L121.986 205.243C124.957 207.144 128.121 208.727 131.424 209.965C136.614 211.851 145.606 211.383 145.606 211.383L149.151 193.692L150.569 210.206C150.569 210.206 157.412 210.915 162.368 209.972C167.324 209.029 175.344 203.832 175.344 203.832L159.744 174.816L156.199 167.974L128.595 167.265L128.574 168.888Z" fill="white"/>
</mask>
<g mask="url(#mask2_5077_1657)">
<g style="mix-blend-mode:multiply">
<path d="M149.378 189.757C151.775 186.757 152.64 169.123 152.64 169.123L128.574 167.3V168.889L125.567 185.389C132.304 187.558 147.513 192.082 149.378 189.757Z" fill="#0660A0"/>
</g>
</g>
<path d="M128.574 168.888L121.986 205.243C124.957 207.144 128.121 208.727 131.424 209.965C136.614 211.851 145.606 211.383 145.606 211.383L149.151 193.692L150.569 210.206C150.569 210.206 157.412 210.915 162.368 209.972C167.324 209.029 175.344 203.832 175.344 203.832L159.744 174.816L156.199 167.974L128.595 167.265L128.574 168.888Z" stroke="#2E353A" stroke-miterlimit="10"/>
<path d="M169.267 140.185L182.74 143.731L188.235 127.422L167.672 123.522L163.063 138.59L169.267 140.185Z" fill="#2E353A" stroke="#2E353A" stroke-linecap="round" stroke-linejoin="round"/>
<path d="M171.898 132.641L180.464 134.732" stroke="white" stroke-linecap="round" stroke-linejoin="round"/>
<path d="M171.068 134.732L179.634 136.824" stroke="white" stroke-linecap="round" stroke-linejoin="round"/>
<path d="M155.263 141.072C155.263 141.072 159.518 138.767 160.936 136.817C162.354 134.867 163.949 131.499 164.658 130.967C165.368 130.436 168.913 128.663 169.622 128.131C170.331 127.599 171.395 128.663 170.154 129.727C168.913 130.79 166.254 133.095 166.254 133.095C166.254 133.095 166.963 136.286 166.077 137.349C165.602 137.936 165.068 138.47 164.481 138.945L169.267 140.185C169.267 140.185 166.077 142.49 164.658 142.844C163.254 143.115 161.832 143.292 160.404 143.376L154.554 147.985L155.263 141.072Z" fill="white" stroke="#2E353A" stroke-linecap="round" stroke-linejoin="round"/>
<path d="M136.118 102.349C136.118 102.349 130.446 110.61 129.028 120.281C127.609 129.953 128.56 168.888 128.56 168.888C128.56 168.888 136.104 171.952 142.032 171.952C147.96 171.952 156.66 172.427 156.923 169.115C157.185 165.804 155.27 127.826 152.668 118.622C150.866 112.617 148.241 106.89 144.868 101.604C144.868 101.604 138.955 97.6266 136.118 102.349Z" fill="#2E353A" stroke="#2E353A" stroke-linecap="round" stroke-linejoin="round"/>
<path d="M149.059 109.518L141.437 158.09L148.173 160.571L151.186 113.95L149.059 109.518Z" fill="white" stroke="#2E353A" stroke-linecap="round" stroke-linejoin="round"/>
<path d="M132.183 83.5304C132.183 83.5304 133.126 88.0117 135.019 90.3729C136.913 92.7341 140.444 93.9183 140.444 93.9183L139.43 99.286L146.038 103.299L148.463 91.7911L149.172 78.106C149.172 78.106 132.623 80.9352 132.183 83.5304Z" fill="white" stroke="#2E353A" stroke-linecap="round" stroke-linejoin="round"/>
<path d="M132.183 83.5302C132.183 83.5302 133.126 88.0115 135.019 90.3728C136.913 92.734 140.444 93.9181 140.444 93.9181C140.444 93.9181 146.116 92.266 146.577 88.4937C146.918 85.7709 146.407 81.0981 146.088 78.6943C141.273 79.6445 132.523 81.6512 132.183 83.5302Z" fill="#2E353A" stroke="#2E353A" stroke-linecap="round" stroke-linejoin="round"/>
<path d="M141.841 84.7005C141.841 84.7005 139.48 81.8642 138.069 83.0484C136.657 84.2325 137.118 87.5368 138.778 89.1889C140.437 90.8411 142.557 89.4229 142.557 89.4229C142.557 89.4229 143.5 92.4861 145.152 93.9043C146.804 95.3224 152.463 96.2655 154.37 94.8473C156.277 93.4292 155.547 88.2388 155.547 88.2388C155.547 88.2388 158.851 86.5866 158.617 85.4025C158.383 84.2183 156.015 83.2753 156.015 82.3393C155.995 81.625 155.917 80.9136 155.781 80.2121V78.3188L144.932 80.6801C144.932 80.6801 143.507 86.1186 141.841 84.7005Z" fill="white"/>
<mask id="mask3_5077_1657" style="mask-type:luminance" maskUnits="userSpaceOnUse" x="137" y="78" width="22" height="18">
<path d="M141.841 84.7005C141.841 84.7005 139.48 81.8642 138.069 83.0484C136.657 84.2325 137.118 87.5368 138.778 89.1889C140.437 90.8411 142.557 89.4229 142.557 89.4229C142.557 89.4229 143.5 92.4861 145.152 93.9043C146.804 95.3224 152.463 96.2655 154.37 94.8473C156.277 93.4292 155.547 88.2388 155.547 88.2388C155.547 88.2388 158.851 86.5866 158.617 85.4025C158.383 84.2183 156.015 83.2753 156.015 82.3393C155.995 81.625 155.917 80.9136 155.781 80.2121V78.3188L144.932 80.6801C144.932 80.6801 143.507 86.1186 141.841 84.7005Z" fill="white"/>
</mask>
<g mask="url(#mask3_5077_1657)">
<g style="mix-blend-mode:multiply" opacity="0.5">
<g style="mix-blend-mode:multiply">
<path d="M144.925 80.7013C144.621 81.8407 144.178 82.9385 143.606 83.9702C147.861 83.7787 152.406 83.5093 156.476 83.1547C156.226 82.9554 156.059 82.6696 156.008 82.3535C155.988 81.6392 155.91 80.9278 155.774 80.2263V78.3188L144.925 80.7013Z" fill="#0660A0"/>
</g>
</g>
</g>
<path d="M141.841 84.7005C141.841 84.7005 139.48 81.8642 138.069 83.0484C136.657 84.2325 137.118 87.5368 138.778 89.1889C140.437 90.8411 142.557 89.4229 142.557 89.4229C142.557 89.4229 143.5 92.4861 145.152 93.9043C146.804 95.3224 152.463 96.2655 154.37 94.8473C156.277 93.4292 155.547 88.2388 155.547 88.2388C155.547 88.2388 158.851 86.5866 158.617 85.4025C158.383 84.2183 156.015 83.2753 156.015 82.3393C155.995 81.625 155.917 80.9136 155.781 80.2121V78.3188L144.932 80.6801C144.932 80.6801 143.507 86.1186 141.841 84.7005Z" stroke="#2E353A" stroke-linecap="round" stroke-linejoin="round"/>
<path d="M132.183 83.5304L155.774 78.3187C155.774 78.3187 152.47 66.7537 148.463 65.8107C144.457 64.8676 136.664 64.3925 132.417 68.647C128.17 72.9014 132.183 83.5304 132.183 83.5304Z" fill="white" stroke="#2E353A" stroke-linecap="round" stroke-linejoin="round"/>
<path d="M147.988 80.226C151.098 80.9165 154.251 81.3903 157.426 81.6441C161.68 81.8781 171.345 78.0987 168.991 77.8647C166.637 77.6308 155.774 78.3398 155.774 78.3398L147.988 80.226Z" fill="#2E353A" stroke="#2E353A" stroke-linecap="round" stroke-linejoin="round"/>
<path d="M137.069 97.3926L134.941 102.115L145.563 108.716L147.683 102.115L137.069 97.3926Z" fill="white" stroke="#2E353A" stroke-linecap="round" stroke-linejoin="round"/>
<path d="M115.201 146.744L152.959 156.494L149.038 184.105C148.974 184.557 148.815 184.989 148.572 185.375C148.328 185.761 148.006 186.091 147.627 186.343C147.247 186.595 146.818 186.765 146.369 186.84C145.919 186.915 145.458 186.894 145.017 186.778L110.691 177.858C110.047 177.692 109.492 177.282 109.146 176.714C108.799 176.146 108.687 175.465 108.833 174.816L115.201 146.744Z" fill="white" stroke="#2E353A" stroke-linecap="round" stroke-linejoin="round"/>
<path d="M115.201 146.744C115.201 146.744 124.114 168.371 129.574 171.207C135.033 174.043 152.973 156.515 152.973 156.515" stroke="#2E353A" stroke-linecap="round" stroke-linejoin="round"/>
<path d="M122.696 137.271C122.696 137.271 120.334 142.461 121.043 144.362C121.753 146.262 151.009 156.87 151.009 156.87C151.009 156.87 151.243 160.876 151.952 161.833C152.559 162.872 153.035 163.982 153.37 165.138C153.37 165.138 151.952 168.442 152.661 169.151C153.37 169.86 155.497 165.847 155.497 164.67C155.497 163.492 155.731 157.118 155.029 155.452C154.327 153.785 134.261 141.533 134.261 141.533L122.696 137.271Z" fill="white" stroke="#2E353A" stroke-linecap="round" stroke-linejoin="round"/>
<path d="M135.65 108.958L121.965 137.973L134.232 141.518L144.145 118.395" fill="#2E353A"/>
<path d="M135.65 108.958L121.965 137.973L134.232 141.518L144.145 118.395" stroke="#2E353A" stroke-linecap="round" stroke-linejoin="round"/>
<path d="M134.232 141.518L143.266 121.26" stroke="white" stroke-linecap="round" stroke-linejoin="round"/>
<path d="M140.167 128.698L144.712 124.153" stroke="white" stroke-linecap="round" stroke-linejoin="round"/>
<path d="M126.695 204.484C132.359 207.421 138.724 208.738 145.088 208.292" stroke="#2E353A" stroke-linecap="round" stroke-linejoin="round"/>
<path d="M123.617 202.626C123.617 202.626 124.163 203.037 125.177 203.647" stroke="#2E353A" stroke-linecap="round" stroke-linejoin="round"/>
<path d="M169.608 202.818C170.509 202.329 171.382 201.792 172.224 201.208" stroke="#2E353A" stroke-linecap="round" stroke-linejoin="round"/>
<path d="M151.456 207.37C156.991 207.296 162.455 206.11 167.523 203.881" stroke="#2E353A" stroke-linecap="round" stroke-linejoin="round"/>
<path d="M149.102 193.663L154.193 184.85" stroke="#2E353A" stroke-linecap="round" stroke-linejoin="round"/>
<path d="M149.378 193.203L157.866 183.581" stroke="#2E353A" stroke-linecap="round" stroke-linejoin="round"/>
<path d="M127.73 189.381L127.021 194.614C128.762 195.832 130.674 196.788 132.694 197.45C136.09 198.585 143.33 198.443 143.33 198.443L144.322 193.479C144.322 193.479 131.729 192.061 129.184 189.934" stroke="#2E353A" stroke-linecap="round" stroke-linejoin="round"/>
<path d="M126.886 196.592C126.886 196.592 124.901 201.406 126.177 202.541C127.453 203.675 136.501 207.065 138.94 206.795C141.379 206.526 142.755 200.57 142.755 200.57" stroke="#2E353A" stroke-linecap="round" stroke-linejoin="round"/>
<path d="M198.879 252.197C199.68 249.432 196.836 250.822 195.638 251.715C194.085 252.871 186.335 253.842 186.335 253.842L185.392 251.715C183.971 252.964 182.344 253.957 180.584 254.651C182.648 258.749 184.3 261.968 185.023 262.089C187.087 262.457 190.235 259.82 191.767 258.749C193.716 257.381 198.191 254.601 198.879 252.197Z" fill="#2E353A" stroke="#2E353A" stroke-linecap="round" stroke-linejoin="round"/>
<path d="M192.986 256.069C189.795 257.728 186.072 259.742 183.924 260.869C184.392 261.579 184.768 262.039 185.023 262.082C187.086 262.451 190.235 259.813 191.766 258.742C193.716 257.381 198.19 254.601 198.857 252.198C199.197 251.035 198.857 250.609 198.325 250.574C197.148 252.545 195.319 254.878 192.986 256.069Z" fill="white" stroke="#2E353A" stroke-linecap="round" stroke-linejoin="round"/>
<path d="M120.03 262.259C119.689 262.004 115.839 259.302 115.96 258.969C115.96 258.969 116.733 256.891 117.917 253.814C115.886 253.56 113.901 253.025 112.017 252.226C110.131 257.955 108.472 262.819 108.94 263.528C109.883 265.046 118.243 267.137 121.469 267.137C123.164 267.137 125.972 267.79 127.092 266.138C127.156 266.045 120.462 262.578 120.03 262.259Z" fill="white" stroke="#2E353A" stroke-linecap="round" stroke-linejoin="round"/>
<path d="M127.092 266.138C127.156 266.046 120.462 262.592 120.001 262.259C119.54 261.926 115.811 259.302 115.931 258.969L116.683 256.962C114.729 256.608 112.814 256.062 110.968 255.332C109.55 259.629 108.55 262.947 108.911 263.528C109.854 265.046 118.214 267.138 121.441 267.138C123.164 267.138 125.972 267.79 127.092 266.138Z" fill="#2E353A" stroke="#2E353A" stroke-linecap="round" stroke-linejoin="round"/>
<path d="M120.455 265.571C116.108 265.308 111.279 263.521 108.918 262.543C108.823 262.865 108.823 263.207 108.918 263.529C109.861 265.046 118.221 267.138 121.448 267.138C123.142 267.138 125.95 267.79 127.07 266.138C126.754 265.914 126.42 265.717 126.071 265.549C124.201 265.687 122.325 265.694 120.455 265.571Z" fill="white" stroke="#2E353A" stroke-linecap="round" stroke-linejoin="round"/>
<path d="M146.762 80.2476L142.975 71.2495" stroke="black" stroke-linecap="round" stroke-linejoin="round"/>
<path d="M142.5 69.5972C142.5 69.5972 141.316 66.9879 142.266 65.8037" stroke="black" stroke-linecap="round" stroke-linejoin="round"/>
</svg>
