<svg width="24" height="24" viewBox="0 0 24 24" fill="none" xmlns="http://www.w3.org/2000/svg">
<path d="M21.0438 7.8967V21.0349C21.0438 22.2583 20.0521 23.25 18.8287 23.25H5.16825C3.94486 23.25 2.95313 22.2583 2.95313 21.0349V2.96513C2.95308 1.74173 3.94481 0.75 5.16825 0.75H14.3177L21.0438 7.8967Z" fill="#E5252A"/>
<path d="M21.0425 7.8967H15.7932C14.9776 7.8967 14.3164 7.23553 14.3164 6.41995V0.75L21.0425 7.8967Z" fill="#ED676A"/>
<path d="M7.67222 16.5518V18.0488H6.60938V13.6387H8.36878C8.70623 13.6387 9.00478 13.7007 9.26437 13.8247C9.52397 13.9487 9.72441 14.1261 9.86719 14.3554C10.0085 14.5848 10.0806 14.8443 10.0806 15.1356C10.0806 15.5654 9.9263 15.9086 9.61767 16.1668C9.3105 16.4235 8.88792 16.5518 8.35003 16.5518H7.67222ZM7.67222 15.7312H8.36878C8.57503 15.7312 8.7322 15.6807 8.84034 15.5769C8.94848 15.4745 9.00187 15.3288 9.00187 15.1414C9.00187 14.9351 8.94562 14.7708 8.83458 14.6467C8.72353 14.5241 8.57212 14.4621 8.38031 14.4592H7.67222V15.7312ZM10.6459 18.0488V13.6387H12.0664C12.4558 13.6387 12.8062 13.7267 13.1177 13.904C13.4278 14.08 13.6715 14.3295 13.846 14.6525C14.0205 14.9741 14.1085 15.3347 14.1099 15.7341V15.9375C14.1099 16.3413 14.0249 16.7033 13.8547 17.0234C13.6845 17.3436 13.4437 17.5931 13.1336 17.7748C12.8235 17.9551 12.4774 18.0459 12.0967 18.0488H10.6459V18.0488ZM11.7088 14.4593V17.2311H12.078C12.3837 17.2311 12.6173 17.1229 12.7803 16.9052C12.9447 16.6888 13.0269 16.3658 13.0269 15.9375V15.7471C13.0269 15.3202 12.9447 15.0001 12.7803 14.7837C12.6173 14.5674 12.3794 14.4593 12.0665 14.4593H11.7088ZM17.4342 16.2922H15.7194V18.0488H14.6566V13.6387H17.6058V14.4593H15.7194V15.4745H17.4342V16.2922Z" fill="white"/>
</svg>
