<svg width="27" height="30" viewBox="0 0 27 30" fill="none" xmlns="http://www.w3.org/2000/svg">
<path d="M13.1836 0C8.82193 0 5.27344 3.5485 5.27344 7.91016C5.27344 12.2718 8.82193 15.8203 13.1836 15.8203C17.5453 15.8203 21.0938 12.2718 21.0938 7.91016C21.0938 3.5485 17.5453 0 13.1836 0ZM23.0254 20.988C20.8597 18.7891 17.9888 17.5781 14.9414 17.5781H11.4258C8.37844 17.5781 5.50746 18.7891 3.34184 20.988C1.18682 23.1761 0 26.0644 0 29.1211C0 29.6065 0.393516 30 0.878906 30H25.4883C25.9737 30 26.3672 29.6065 26.3672 29.1211C26.3672 26.0644 25.1804 23.1761 23.0254 20.988Z" fill="#FF8F27"/>
</svg>
