<svg width="21" height="18" viewBox="0 0 21 18" fill="none" xmlns="http://www.w3.org/2000/svg">
<path d="M20.0928 13.1639L19.1924 11.0856C19.0501 10.7574 18.8148 10.4781 18.5155 10.2822C18.2162 10.0862 17.866 9.98226 17.5083 9.98313H16.5592C16.3541 9.64572 16.1072 9.33563 15.8242 9.06026V7.03413C15.8242 6.72304 15.7584 6.41546 15.631 6.13164C15.5036 5.84783 15.3176 5.59422 15.0851 5.38751C15.3602 5.23213 15.5892 5.00652 15.7486 4.73369C15.9081 4.46087 15.9922 4.15063 15.9926 3.83463C15.9164 1.48226 12.4991 1.47813 12.4218 3.83463C12.4217 4.23354 12.5565 4.62075 12.8043 4.93338C12.2491 5.10444 11.7632 5.44868 11.4176 5.91573C11.0721 6.38279 10.8851 6.94816 10.8839 7.52913V7.97163C10.6908 8.03783 10.5028 8.11818 10.3214 8.21201V4.41626C10.3214 4.31675 10.2819 4.22132 10.2115 4.15096C10.1412 4.0806 10.0458 4.04107 9.94625 4.04107C9.84674 4.04107 9.75131 4.0806 9.68095 4.15096C9.61059 4.22132 9.57106 4.31675 9.57106 4.41626V5.52288C9.34128 5.38799 9.0753 5.32772 8.80981 5.35038C8.06693 5.41038 6.76156 5.33163 6.42744 4.09376C6.33737 3.7066 6.15172 3.34818 5.88743 3.05126C6.17602 2.87057 6.4017 2.6051 6.53358 2.29119C6.66547 1.97729 6.6971 1.63029 6.62416 1.29771C6.55122 0.965131 6.37727 0.663225 6.12612 0.433324C5.87498 0.203423 5.55891 0.0567663 5.22119 0.013432C4.88348 -0.0299024 4.54062 0.0322039 4.23957 0.191248C3.93851 0.350292 3.69397 0.5985 3.53943 0.90189C3.38488 1.20528 3.32789 1.54902 3.37624 1.88605C3.4246 2.22309 3.57595 2.53694 3.80956 2.78463C3.44386 3.01043 3.17002 3.35854 3.03669 3.76713C2.65794 4.91163 2.04669 7.31201 2.67294 9.41651L2.24544 11.9673C1.81156 12.5088 0.495311 14.134 0.133436 14.7018C0.022258 14.8603 -0.0219788 15.0562 0.0103093 15.2472C0.0425974 15.4381 0.14881 15.6086 0.305936 15.7218L2.08006 16.9863C2.12612 17.0199 2.17853 17.0438 2.2341 17.0565C2.28967 17.0693 2.34726 17.0706 2.40336 17.0604C2.45946 17.0502 2.51291 17.0288 2.56047 16.9974C2.60804 16.9659 2.64872 16.9251 2.68006 16.8775C2.84845 16.639 2.95246 16.361 2.98202 16.0705C3.01158 15.78 2.9657 15.4868 2.84881 15.2193L3.95956 13.9855V15.3505C3.95646 15.3628 3.9552 15.3754 3.95581 15.388V16.4121C3.95611 16.606 4.03325 16.7918 4.17032 16.9289C4.30739 17.0659 4.49321 17.1431 4.68706 17.1434H6.86656C6.97935 17.1436 7.08764 17.0991 7.16775 17.0197C7.24785 16.9403 7.29327 16.8324 7.29406 16.7196C7.29419 16.3644 7.1833 16.018 6.97688 15.7289C6.77046 15.4397 6.47885 15.2224 6.14281 15.1071L6.51031 12.8448C6.71969 11.5394 6.59982 10.2025 6.16156 8.95526C5.93751 8.3514 5.82321 7.71234 5.82406 7.06826V6.97451C6.84856 7.57601 8.40969 7.97951 9.57106 7.36451V8.68488C8.98637 9.133 8.51223 9.70924 8.1851 10.3693C7.85797 11.0293 7.68657 11.7556 7.68406 12.4923C7.92444 18.7109 16.7426 18.9123 17.2646 12.7173L18.1571 14.5893C18.2156 14.7128 18.308 14.8171 18.4235 14.8901C18.539 14.9631 18.6729 15.0019 18.8096 15.0018H20.3066C21.4728 14.8979 21.0056 13.3011 20.0928 13.1639ZM12.4818 15.403C11.8559 15.4044 11.2462 15.2036 10.7437 14.8304C10.2412 14.4572 9.87265 13.9317 9.69303 13.3321C9.51341 12.7325 9.5323 12.0909 9.7469 11.5029C9.9615 10.9149 10.3603 10.412 10.8839 10.069V10.7103C10.883 10.8104 10.8956 10.9102 10.9214 11.0069C10.6286 11.312 10.4321 11.6964 10.3563 12.1124C10.2805 12.5284 10.3288 12.9575 10.4952 13.3463C10.6615 13.735 10.9386 14.0662 11.2919 14.2986C11.6451 14.5309 12.059 14.6542 12.4818 14.653C14.7329 14.65 15.4574 11.584 13.4643 10.5794V9.76188C16.4973 10.8786 15.7293 15.3636 12.4818 15.403ZM14.2072 2.80338C14.4813 2.80338 14.7442 2.91227 14.938 3.10609C15.1318 3.29991 15.2407 3.56278 15.2407 3.83688C15.2407 4.11098 15.1318 4.37386 14.938 4.56768C14.7442 4.7615 14.4813 4.87038 14.2072 4.87038C13.9331 4.87038 13.6702 4.7615 13.4764 4.56768C13.2826 4.37386 13.1737 4.11098 13.1737 3.83688C13.1737 3.56278 13.2826 3.29991 13.4764 3.10609C13.6702 2.91227 13.9331 2.80338 14.2072 2.80338ZM11.6339 7.52951C11.5923 5.42388 14.8721 4.66188 15.0738 7.03451V8.46363C14.5845 8.14288 14.0383 7.91884 13.4647 7.80363V7.28238C13.4647 7.18293 13.4252 7.08754 13.3548 7.01722C13.2845 6.94689 13.1891 6.90738 13.0897 6.90738C12.9902 6.90738 12.8948 6.94689 12.8245 7.01722C12.7542 7.08754 12.7147 7.18293 12.7147 7.28238V10.7106C12.7147 10.8539 12.6578 10.9914 12.5564 11.0927C12.4551 11.1941 12.3176 11.251 12.1743 11.251C12.031 11.251 11.8935 11.1941 11.7922 11.0927C11.6909 10.9914 11.6339 10.8539 11.6339 10.7106C11.6369 10.4864 11.6321 7.83213 11.6339 7.52951ZM18.8324 14.2664L17.6733 11.8323C17.6266 11.75 17.5549 11.6849 17.4685 11.6464C17.3821 11.608 17.2857 11.5982 17.1933 11.6185C17.1375 11.3153 17.0508 11.0187 16.9346 10.7331H17.5083C17.7202 10.7325 17.9275 10.794 18.1048 10.9099C18.2821 11.0259 18.4215 11.1913 18.5058 11.3856L19.4924 13.6589C19.5209 13.7261 19.5683 13.7835 19.6289 13.8241C19.6896 13.8648 19.7607 13.8868 19.8337 13.8876C19.9355 13.8871 20.0339 13.9238 20.1106 13.9908C20.1872 14.0578 20.2368 14.1504 20.2499 14.2514L18.8324 14.2664Z" fill="#2D2D2D"/>
</svg>
