<svg width="26" height="30" viewBox="0 0 26 30" fill="none" xmlns="http://www.w3.org/2000/svg">
<path d="M12.9969 16.0434C8.58308 16.0434 4.99078 12.4511 4.99078 8.03735C4.99078 3.62355 8.58308 0.03125 12.9969 0.03125C17.4107 0.03125 21.003 3.62355 21.003 8.03735C21.003 12.4511 17.4107 16.0434 12.9969 16.0434ZM12.9969 2.1198C9.73874 2.1198 7.07932 4.77921 7.07932 8.03735C7.07932 11.2955 9.73874 13.9549 12.9969 13.9549C16.255 13.9549 18.9144 11.2955 18.9144 8.03735C18.9144 4.77921 16.255 2.1198 12.9969 2.1198ZM24.9573 29.9671C24.3864 29.9671 23.913 29.4937 23.913 28.9228C23.913 24.1192 19.0119 20.2205 12.9969 20.2205C6.98186 20.2205 2.08073 24.1192 2.08073 28.9228C2.08073 29.4937 1.60733 29.9671 1.03646 29.9671C0.465592 29.9671 -0.0078125 29.4937 -0.0078125 28.9228C-0.0078125 22.9774 5.8262 18.132 12.9969 18.132C20.1676 18.132 26.0016 22.9774 26.0016 28.9228C26.0016 29.4937 25.5282 29.9671 24.9573 29.9671Z" fill="white"/>
</svg>
