<svg width="34" height="34" viewBox="0 0 34 34" fill="none" xmlns="http://www.w3.org/2000/svg">
<path d="M16.6126 2.42969C13.1141 2.42969 10.2676 5.27598 10.2676 8.77467C10.2676 12.2733 13.1141 15.1195 16.6126 15.1195C20.111 15.1195 22.9575 12.2732 22.9575 8.77474C22.9575 5.27598 20.111 2.42969 16.6126 2.42969Z" fill="white"/>
<path d="M4.89648 27.8064C8.06386 30.4803 12.1529 32.0945 16.6129 32.0945C21.0729 32.0945 25.1619 30.48 28.3293 27.8064C28.0376 25.1564 26.8466 22.6721 24.9485 20.7739C22.7215 18.5468 19.7612 17.3203 16.6129 17.3203C10.6168 17.3203 5.54732 21.8947 4.89648 27.8064Z" fill="white"/>
</svg>
