<svg width="24" height="24" viewBox="0 0 24 24" fill="none" xmlns="http://www.w3.org/2000/svg">
<path d="M21.0115 3.58887C17.5191 3.58887 12.9241 2.41039 11.2862 0.227003C11.0683 -0.0383091 10.6767 -0.076559 10.4113 0.141362C10.38 0.167017 10.3513 0.19572 10.3257 0.22705C8.68761 2.4102 4.09265 3.58887 0.600468 3.58887C0.268781 3.58887 0 3.85761 0 4.1892V11.9934C0 18.5947 5.73247 22.5743 10.6412 23.9765C10.7488 24.0078 10.8631 24.0078 10.9707 23.9765C15.8794 22.5743 21.6119 18.5947 21.6119 11.9934V4.1892C21.6119 3.85761 21.3431 3.58882 21.0115 3.58882V3.58887ZM20.4111 11.9934C20.4111 17.8537 15.2755 21.4461 10.806 22.7748C6.33632 21.4462 1.20056 17.8537 1.20056 11.9934V4.77903C4.67066 4.6617 8.77404 3.54307 10.8059 1.49942C12.8381 3.54307 16.9412 4.6617 20.4113 4.77888V11.9934L20.4111 11.9934Z" fill="#333333"/>
<path d="M8.40387 9.59267V10.7933H7.8035C7.47191 10.7933 7.20312 11.0621 7.20312 11.3937V16.1962C7.20312 16.5278 7.47191 16.7966 7.8035 16.7966H13.8068C14.1384 16.7966 14.4073 16.5278 14.4073 16.1962V11.3937C14.4073 11.0621 14.1384 10.7933 13.8068 10.7933H13.2064V9.59267C13.2064 8.26644 12.1314 7.19141 10.8051 7.19141C9.47891 7.19141 8.40387 8.26644 8.40387 9.59267ZM13.2064 15.596H8.40387V11.9939H13.2064L13.2064 15.596ZM12.0058 9.59267V10.7933H9.60453V9.59267C9.60453 8.92962 10.142 8.39206 10.8051 8.39206C11.4682 8.39206 12.0058 8.92962 12.0058 9.59267Z" fill="#333333"/>
</svg>
