<svg width="19" height="22" viewBox="0 0 19 22" fill="none" xmlns="http://www.w3.org/2000/svg">
<path d="M9.34 11.5C6.17 11.5 3.59 8.92 3.59 5.75C3.59 2.58 6.17 0 9.34 0C12.51 0 15.09 2.58 15.09 5.75C15.09 8.92 12.51 11.5 9.34 11.5ZM9.34 1.5C7 1.5 5.09 3.41 5.09 5.75C5.09 8.09 7 10 9.34 10C11.68 10 13.59 8.09 13.59 5.75C13.59 3.41 11.68 1.5 9.34 1.5ZM17.93 21.5C17.52 21.5 17.18 21.16 17.18 20.75C17.18 17.3 13.66 14.5 9.34 14.5C5.02 14.5 1.5 17.3 1.5 20.75C1.5 21.16 1.16 21.5 0.75 21.5C0.34 21.5 0 21.16 0 20.75C0 16.48 4.19 13 9.34 13C14.49 13 18.68 16.48 18.68 20.75C18.68 21.16 18.34 21.5 17.93 21.5Z" fill="white"/>
</svg>
