<svg width="24" height="24" viewBox="0 0 24 24" fill="none" xmlns="http://www.w3.org/2000/svg">
<path d="M13.2825 19.6242H2.9175C2.74053 19.6241 2.57086 19.5537 2.44573 19.4285C2.32059 19.3034 2.2502 19.1337 2.25 18.9567V17.0705C2.24927 16.3838 2.46514 15.7144 2.86688 15.1576C3.26863 14.6007 3.83578 14.1847 4.48763 13.9689L8.43075 12.653C9.5824 12.2704 10.8268 12.2702 11.9786 12.6522L13.2611 13.0798C13.3544 13.1074 13.4547 13.0978 13.541 13.0529C13.6273 13.008 13.6928 12.9313 13.7236 12.839C13.7544 12.7467 13.7481 12.6461 13.7061 12.5584C13.6641 12.4706 13.5897 12.4026 13.4985 12.3687L12.2145 11.9405C13.653 11.2164 14.9734 9.56225 14.9205 7.65162C14.9191 6.40179 14.422 5.20354 13.5382 4.31977C12.6545 3.436 11.4562 2.93889 10.2064 2.9375C5.00588 3.10325 3.82013 9.74187 8.19525 11.9412L4.25063 13.2575C3.44941 13.5229 2.75229 14.0343 2.25846 14.7188C1.76463 15.4033 1.49922 16.2261 1.5 17.0701V18.9564C1.5004 19.3322 1.64987 19.6925 1.91562 19.9583C2.18136 20.224 2.54168 20.3735 2.9175 20.3739H13.2825C13.382 20.3739 13.4773 20.3344 13.5477 20.264C13.618 20.1937 13.6575 20.0983 13.6575 19.9989C13.6575 19.8994 13.618 19.804 13.5477 19.7337C13.4773 19.6634 13.382 19.6242 13.2825 19.6242ZM6.24225 7.65162C6.24344 6.6007 6.66142 5.59316 7.4045 4.85001C8.14758 4.10686 9.15508 3.68879 10.206 3.6875C15.4654 3.905 15.4639 11.399 10.206 11.6161C9.15502 11.6148 8.14746 11.1967 7.40437 10.4535C6.66128 9.71025 6.24334 8.70261 6.24225 7.65162Z" fill="black"/>
<path d="M17.8349 11.7578C16.5981 11.7591 15.4123 12.251 14.5377 13.1256C13.6631 14.0002 13.1712 15.186 13.1699 16.4228C13.426 22.6118 22.2449 22.6099 22.4999 16.4228C22.4986 15.186 22.0067 14.0002 21.1321 13.1256C20.2576 12.251 19.0718 11.7591 17.8349 11.7578ZM17.8349 20.3378C16.7968 20.3371 15.8014 19.9244 15.0674 19.1904C14.3333 18.4563 13.9206 17.4609 13.9199 16.4228C14.1359 11.2291 21.5347 11.2306 21.7499 16.4228C21.7492 17.4609 21.3365 18.4563 20.6025 19.1904C19.8684 19.9244 18.873 20.3371 17.8349 20.3378Z" fill="black"/>
<path d="M18.42 18.4859H18.21V15.6978C18.21 15.5983 18.1705 15.5029 18.1002 15.4326C18.0298 15.3623 17.9345 15.3228 17.835 15.3228H17.25C17.1505 15.3228 17.0552 15.3623 16.9848 15.4326C16.9145 15.5029 16.875 15.5983 16.875 15.6978C16.875 15.7972 16.9145 15.8926 16.9848 15.9629C17.0552 16.0332 17.1505 16.0728 17.25 16.0728H17.46V18.4859H17.25C17.1505 18.4859 17.0552 18.5254 16.9848 18.5957C16.9145 18.666 16.875 18.7614 16.875 18.8609C16.875 18.9603 16.9145 19.0557 16.9848 19.126C17.0552 19.1964 17.1505 19.2359 17.25 19.2359H18.42C18.5195 19.2359 18.6148 19.1964 18.6852 19.126C18.7555 19.0557 18.795 18.9603 18.795 18.8609C18.795 18.7614 18.7555 18.666 18.6852 18.5957C18.6148 18.5254 18.5195 18.4859 18.42 18.4859ZM18.3082 14.1794C18.3082 14.0282 18.2482 13.8832 18.1413 13.7763C18.0344 13.6694 17.8894 13.6094 17.7382 13.6094C17.5871 13.6094 17.4421 13.6694 17.3352 13.7763C17.2283 13.8832 17.1682 14.0282 17.1682 14.1794C17.1682 14.3305 17.2283 14.4755 17.3352 14.5824C17.4421 14.6893 17.5871 14.7494 17.7382 14.7494C17.8894 14.7494 18.0344 14.6893 18.1413 14.5824C18.2482 14.4755 18.3082 14.3305 18.3082 14.1794Z" fill="black"/>
</svg>
