<svg width="24" height="24" viewBox="0 0 24 24" fill="none" xmlns="http://www.w3.org/2000/svg">
<g clip-path="url(#clip0_2462_6187)">
<path d="M22.3158 10.465C22.2303 7.8563 21.1525 5.37859 19.3023 3.53759C17.3512 1.58609 14.7581 0.511719 12.0011 0.511719C6.43269 0.511719 1.88281 4.94384 1.68669 10.465C1.25733 10.6552 0.89234 10.9658 0.635954 11.3592C0.379568 11.7527 0.242788 12.212 0.242188 12.6816V15.4048C0.242882 16.0479 0.498648 16.6644 0.953367 17.1192C1.40809 17.5739 2.02462 17.8296 2.66769 17.8303C3.08376 17.8298 3.48265 17.6643 3.77686 17.3701C4.07106 17.0759 4.23657 16.677 4.23706 16.261V11.8251C4.23706 11.0125 3.61381 10.3498 2.82144 10.2711C3.11394 5.46097 7.11819 1.63672 12.0011 1.63672C14.4581 1.63672 16.7684 2.59447 18.5073 4.33334C20.1041 5.93009 21.0386 8.01134 21.1792 10.2715C20.3876 10.351 19.7654 11.0132 19.7654 11.8251V16.2606C19.7654 17.08 20.3984 17.7467 21.2002 17.8161V18.937C21.1995 19.5439 20.9581 20.1258 20.5289 20.5549C20.0997 20.984 19.5177 21.2254 18.9108 21.226H17.2154C17.1011 20.8927 16.8854 20.6037 16.5984 20.3993C16.3114 20.195 15.9676 20.0857 15.6153 20.0867H13.8678C13.6169 20.0867 13.3762 20.14 13.1557 20.2427C12.8604 20.3791 12.6103 20.5971 12.4349 20.871C12.2595 21.1449 12.1661 21.4632 12.1657 21.7885C12.1657 22.2437 12.3431 22.6712 12.6644 22.9911C12.822 23.1499 13.0094 23.2758 13.216 23.3616C13.4226 23.4473 13.6441 23.4912 13.8678 23.4906H15.6153C16.3398 23.4906 16.9784 23.0222 17.2166 22.351H18.9108C20.7937 22.351 22.3252 20.8195 22.3252 18.937V17.6158C22.752 17.4246 23.1145 17.1141 23.369 16.7217C23.6235 16.3293 23.7593 15.8718 23.7599 15.4041V12.6808C23.7599 11.6931 23.1652 10.8426 22.3158 10.465ZM3.11169 11.8251V16.2606C3.11169 16.5055 2.91256 16.705 2.66731 16.705C2.32252 16.7046 1.99196 16.5674 1.74816 16.3236C1.50435 16.0798 1.36721 15.7493 1.36681 15.4045V12.6812C1.36721 12.3364 1.50435 12.0059 1.74816 11.7621C1.99196 11.5183 2.32252 11.3811 2.66731 11.3807C2.91256 11.3807 3.11169 11.5802 3.11169 11.8251ZM16.1797 21.9092C16.1517 22.0384 16.0805 22.1541 15.9778 22.2372C15.8751 22.3204 15.7471 22.3659 15.6149 22.3663H13.8674C13.7137 22.3663 13.5693 22.3063 13.4591 22.1961C13.4054 22.1428 13.3629 22.0794 13.3339 22.0096C13.3049 21.9397 13.2901 21.8648 13.2903 21.7892C13.2907 21.6363 13.3517 21.4898 13.4598 21.3817C13.568 21.2736 13.7145 21.2128 13.8674 21.2125H15.6149C15.7687 21.2125 15.9131 21.2721 16.0229 21.3823C16.1317 21.4907 16.1917 21.6355 16.1917 21.7892C16.1921 21.8305 16.1876 21.8717 16.1797 21.9092ZM22.6349 15.4045C22.6345 15.7493 22.4974 16.0798 22.2536 16.3236C22.0098 16.5674 21.6792 16.7046 21.3344 16.705C21.2166 16.7049 21.1036 16.658 21.0203 16.5747C20.937 16.4914 20.8902 16.3784 20.8901 16.2606V11.8251C20.8901 11.5802 21.0892 11.3807 21.3344 11.3807C21.6792 11.3811 22.0098 11.5183 22.2536 11.7621C22.4974 12.0059 22.6345 12.3364 22.6349 12.6812V15.4045Z" fill="black"/>
<path d="M15.6448 15.6002C16.2767 15.5995 16.8826 15.3482 17.3294 14.9013C17.7763 14.4545 18.0276 13.8486 18.0283 13.2167V8.36006C18.0283 7.72481 17.7801 7.12631 17.3293 6.67556C16.8786 6.22481 16.2804 5.97656 15.6448 5.97656H8.36006C7.72813 5.97726 7.12228 6.2286 6.67544 6.67544C6.2286 7.12228 5.97726 7.72813 5.97656 8.36006V13.2167C5.97726 13.8486 6.2286 14.4545 6.67544 14.9013C7.12228 15.3482 7.72813 15.5995 8.36006 15.6002H8.40469V16.8587C8.40395 17.0124 8.43359 17.1647 8.49192 17.3068C8.55025 17.449 8.63611 17.5782 8.74457 17.6871C8.85302 17.796 8.98193 17.8824 9.12388 17.9412C9.26583 18.0001 9.41801 18.0303 9.57169 18.0302C9.72526 18.0305 9.87732 17.9999 10.0188 17.9402C10.1603 17.8804 10.2883 17.7928 10.3952 17.6826L12.4888 15.6002H15.6448ZM11.8607 14.6387L9.59494 16.8921C9.58481 16.9026 9.57731 16.9104 9.55594 16.9011C9.53006 16.8906 9.53006 16.8737 9.53006 16.8587V15.0377C9.53006 14.8885 9.4708 14.7454 9.36531 14.6399C9.25982 14.5345 9.11675 14.4752 8.96756 14.4752H8.36044C8.02678 14.4748 7.70691 14.3421 7.47098 14.1061C7.23505 13.8702 7.10233 13.5503 7.10194 13.2167V8.36006C7.10233 8.02641 7.23505 7.70654 7.47098 7.47061C7.70691 7.23468 8.02678 7.10196 8.36044 7.10156H15.6452C15.9804 7.10156 16.2958 7.23281 16.5343 7.47094C16.7728 7.70944 16.9037 8.02519 16.9037 8.36006V13.2167C16.9033 13.5503 16.7706 13.8702 16.5346 14.1061C16.2987 14.3421 15.9788 14.4748 15.6452 14.4752H12.2574C12.1086 14.4752 11.9661 14.5341 11.8607 14.6387Z" fill="black"/>
<path d="M9.26737 10.0469C8.80987 10.0469 8.4375 10.4196 8.4375 10.8767C8.4375 11.3339 8.81025 11.7066 9.26737 11.7066C9.72525 11.7066 10.098 11.3339 10.098 10.8767C10.098 10.4196 9.72562 10.0469 9.26737 10.0469ZM11.9996 10.0469C11.5421 10.0469 11.1697 10.4196 11.1697 10.8767C11.1697 11.3339 11.5425 11.7066 11.9996 11.7066C12.4579 11.7066 12.8303 11.3339 12.8303 10.8767C12.8303 10.4196 12.4579 10.0469 11.9996 10.0469ZM14.7319 10.0469C14.2744 10.0469 13.902 10.4196 13.902 10.8767C13.902 11.3339 14.2747 11.7066 14.7319 11.7066C15.1897 11.7066 15.5625 11.3339 15.5625 10.8767C15.5625 10.4196 15.1897 10.0469 14.7319 10.0469Z" fill="black"/>
</g>
<defs>
<clipPath id="clip0_2462_6187">
<rect width="24" height="24" fill="white"/>
</clipPath>
</defs>
</svg>
