<svg width="16" height="16" viewBox="0 0 16 16" fill="none" xmlns="http://www.w3.org/2000/svg">
<g clip-path="url(#clip0_5322_4366)">
<path d="M15.531 15.0624H15.031V5.81249C15.031 5.55362 14.8212 5.34375 14.5623 5.34375H12.6873C12.4285 5.34375 12.2186 5.55362 12.2186 5.81249V15.0624H11.2811V8.93745C11.2811 8.67858 11.0712 8.46871 10.8124 8.46871H8.93738C8.67851 8.46871 8.46863 8.67858 8.46863 8.93745V15.0624H7.53115V10.6562C7.53115 10.3973 7.32128 10.1874 7.0624 10.1874H5.18743C4.92856 10.1874 4.71869 10.3973 4.71869 10.6562V15.0624H3.7812V11.7812C3.7812 11.5223 3.57133 11.3124 3.31245 11.3124H1.43748C1.17861 11.3124 0.968737 11.5223 0.968737 11.7812V15.0624H0.468744C0.209872 15.0624 0 15.2722 0 15.5311C0 15.79 0.209872 15.9999 0.468744 15.9999H15.531C15.7899 15.9999 15.9998 15.79 15.9998 15.5311C15.9998 15.2722 15.7899 15.0624 15.531 15.0624Z" fill="#2D2D2D"/>
<path d="M0.468744 10.072C3.39427 10.072 6.56678 9.02129 9.40193 7.11347C11.6224 5.61927 13.4733 3.71045 14.623 1.75589L15.0783 3.45483C15.1344 3.66427 15.4054 3.8452 15.6524 3.78626C15.9042 3.7262 16.0508 3.46224 15.9838 3.21218L15.2162 0.34753C15.1492 0.0975021 14.8923 -0.0509333 14.6421 0.016097L11.7775 0.78368C11.5274 0.850679 11.3791 1.10771 11.4461 1.35777C11.5131 1.60783 11.77 1.75626 12.0201 1.6892L13.8656 1.19471C12.7929 3.05862 11.0202 4.89447 8.87853 6.33567C6.19645 8.14052 3.2098 9.13447 0.468744 9.13447C0.209872 9.13447 0 9.34434 0 9.60322C0 9.86209 0.209872 10.072 0.468744 10.072Z" fill="#2D2D2D"/>
</g>
<defs>
<clipPath id="clip0_5322_4366">
<rect width="16" height="16" fill="white"/>
</clipPath>
</defs>
</svg>
