<svg width="24" height="24" viewBox="0 0 24 24" fill="none" xmlns="http://www.w3.org/2000/svg">
<path d="M20.6464 5.86438L17.6239 1.92687C17.4508 1.70251 17.2287 1.52067 16.9746 1.39524C16.7205 1.2698 16.441 1.20409 16.1577 1.20312H6.74516C5.77391 1.20312 4.98641 1.96062 4.91516 2.91313H4.82141C3.80141 2.91313 2.97266 3.74563 2.97266 4.76562V20.9469C2.97266 21.9669 3.80141 22.7956 4.82141 22.7956H17.2489C18.2202 22.7956 19.0114 22.0381 19.0827 21.0856H19.1764C20.1964 21.0856 21.0252 20.2569 21.0252 19.2369V6.99312C21.0252 6.77938 20.9877 6.56938 20.9164 6.37063C20.9089 6.35187 20.9014 6.33313 20.8939 6.31813C20.8302 6.15688 20.7514 6.00313 20.6464 5.86438ZM17.2602 2.68437L19.8927 6.11562H17.8602C17.5264 6.11187 17.2564 5.83813 17.2564 5.50437V2.68062L17.2602 2.68437ZM5.65016 3.05562C5.65016 2.44812 6.14141 1.95687 6.74516 1.95687H16.1577C16.2777 1.95687 16.3977 1.98313 16.5102 2.02438V4.94937L5.65016 4.98688V3.05937V3.05562ZM17.2527 22.0494H4.81766C4.21391 22.0494 3.71891 21.5581 3.71891 20.9506V4.76562C3.71891 4.15812 4.21016 3.66313 4.81766 3.66313H4.89641V19.2331C4.89641 20.2531 5.72516 21.0819 6.74141 21.0819H18.3327C18.3 21.3465 18.1719 21.59 17.9723 21.7668C17.7728 21.9436 17.5155 22.0414 17.2489 22.0419L17.2527 22.0494ZM20.2789 19.2369C20.2789 19.8444 19.7839 20.3356 19.1802 20.3356H6.74516C6.14141 20.3356 5.65016 19.8406 5.65016 19.2369V5.72937L16.5289 5.69187C16.6227 6.34812 17.1814 6.85813 17.8602 6.85813H20.2677C20.2714 6.90688 20.2789 6.94812 20.2789 6.99312V19.2331V19.2369ZM7.39016 8.27937C7.39016 8.07312 7.55891 7.90437 7.76516 7.90437H8.84891C9.05516 7.90437 9.22391 8.07312 9.22391 8.27937C9.22391 8.48562 9.05516 8.65437 8.84891 8.65437H7.76516C7.55891 8.65437 7.39016 8.48562 7.39016 8.27937ZM10.0714 8.27937C10.0714 8.07312 10.2402 7.90437 10.4464 7.90437H18.1939C18.4002 7.90437 18.5689 8.07312 18.5689 8.27937C18.5689 8.48562 18.4002 8.65437 18.1939 8.65437H10.4502C10.2439 8.65437 10.0752 8.48562 10.0752 8.27937H10.0714ZM7.39016 10.4656C7.39016 10.2594 7.55891 10.0906 7.76516 10.0906H8.84891C9.05516 10.0906 9.22391 10.2594 9.22391 10.4656C9.22391 10.6719 9.05516 10.8406 8.84891 10.8406H7.76516C7.55891 10.8406 7.39016 10.6719 7.39016 10.4656ZM10.0714 10.4656C10.0714 10.2594 10.2402 10.0906 10.4464 10.0906H18.1939C18.4002 10.0906 18.5689 10.2594 18.5689 10.4656C18.5689 10.6719 18.4002 10.8406 18.1939 10.8406H10.4502C10.2439 10.8406 10.0752 10.6719 10.0752 10.4656H10.0714ZM7.39016 12.6519C7.39016 12.4456 7.55891 12.2769 7.76516 12.2769H8.84891C9.05516 12.2769 9.22391 12.4456 9.22391 12.6519C9.22391 12.8581 9.05516 13.0269 8.84891 13.0269H7.76516C7.55891 13.0269 7.39016 12.8581 7.39016 12.6519ZM10.0714 12.6519C10.0714 12.4456 10.2402 12.2769 10.4464 12.2769H18.1939C18.4002 12.2769 18.5689 12.4456 18.5689 12.6519C18.5689 12.8581 18.4002 13.0269 18.1939 13.0269H10.4502C10.2439 13.0269 10.0752 12.8581 10.0752 12.6519H10.0714ZM7.39016 14.8381C7.39016 14.6319 7.55891 14.4631 7.76516 14.4631H8.84891C9.05516 14.4631 9.22391 14.6319 9.22391 14.8381C9.22391 15.0444 9.05516 15.2131 8.84891 15.2131H7.76516C7.55891 15.2131 7.39016 15.0444 7.39016 14.8381ZM10.0714 14.8381C10.0714 14.6319 10.2402 14.4631 10.4464 14.4631H18.1939C18.4002 14.4631 18.5689 14.6319 18.5689 14.8381C18.5689 15.0444 18.4002 15.2131 18.1939 15.2131H10.4502C10.2439 15.2131 10.0752 15.0444 10.0752 14.8381H10.0714ZM10.6789 16.4919C10.8289 16.6344 10.8402 16.8706 10.6977 17.0206L8.74016 19.1281C8.66891 19.2031 8.57141 19.2481 8.47016 19.2481H8.46641C8.36516 19.2481 8.26766 19.2069 8.20016 19.1356L7.09391 18.0106C6.94766 17.8644 6.95141 17.6244 7.09766 17.4781C7.24391 17.3319 7.48391 17.3356 7.62641 17.4819L8.45516 18.3256L10.1464 16.5031C10.1796 16.4667 10.2198 16.4374 10.2645 16.4167C10.3092 16.396 10.3576 16.3845 10.4068 16.3827C10.4561 16.381 10.5052 16.3891 10.5512 16.4065C10.5973 16.424 10.6394 16.4504 10.6752 16.4844L10.6789 16.4919ZM17.8977 16.7019H12.8202C12.1602 16.7019 11.6202 17.2381 11.6202 17.9019C11.6202 18.5656 12.1564 19.1019 12.8202 19.1019H17.8977C18.5577 19.1019 19.0977 18.5656 19.0977 17.9019C19.0977 17.2381 18.5614 16.7019 17.8977 16.7019ZM17.8977 18.3481H12.8202C12.5727 18.3481 12.3702 18.1456 12.3702 17.8981C12.3702 17.6506 12.5727 17.4481 12.8202 17.4481H17.8977C18.1452 17.4481 18.3477 17.6506 18.3477 17.8981C18.3477 18.1456 18.1452 18.3481 17.8977 18.3481Z" fill="black"/>
</svg>
