<svg width="50" height="50" viewBox="0 0 50 50" fill="none" xmlns="http://www.w3.org/2000/svg">
<path d="M39.0682 43.1899H28.3408V32.3501H31.886C32.785 32.3501 33.3163 31.3284 32.785 30.5928L25.8888 21.0505C25.4495 20.4375 24.5403 20.4375 24.1009 21.0505L17.2047 30.5928C16.6735 31.3284 17.1945 32.3501 18.1038 32.3501H21.649V43.1899H9.63425C4.27054 42.8936 0 37.8772 0 32.442C0 28.6925 2.0331 25.4232 5.047 23.6558C4.77115 22.9099 4.62812 22.113 4.62812 21.2753C4.62812 17.4441 7.72374 14.3484 11.555 14.3484C12.3825 14.3484 13.1794 14.4915 13.9252 14.7673C16.1422 10.0677 20.9236 6.80859 26.4814 6.80859C33.6739 6.81881 39.5995 12.3256 40.2738 19.3443C45.801 20.2945 50 25.413 50 31.2058C50 37.3971 45.1778 42.7608 39.0682 43.1899Z" fill="url(#paint0_linear_2476_4812)"/>
<defs>
<linearGradient id="paint0_linear_2476_4812" x1="0" y1="24.9992" x2="50" y2="24.9992" gradientUnits="userSpaceOnUse">
<stop stop-color="#123499"/>
<stop offset="1" stop-color="#2A57DE"/>
</linearGradient>
</defs>
</svg>
