<svg width="16" height="16" viewBox="0 0 16 16" fill="none" xmlns="http://www.w3.org/2000/svg">
<path d="M14.668 8.66602C14.4912 8.66602 14.3216 8.73625 14.1966 8.86128C14.0715 8.9863 14.0013 9.15587 14.0013 9.33268V12.1413C14.0008 12.634 13.8048 13.1062 13.4565 13.4546C13.1082 13.8029 12.6359 13.9988 12.1433 13.9993H3.8593C3.36669 13.9988 2.89441 13.8029 2.54608 13.4546C2.19775 13.1062 2.00183 12.634 2.0013 12.1413V9.33268C2.0013 9.15587 1.93106 8.9863 1.80604 8.86128C1.68102 8.73625 1.51145 8.66602 1.33464 8.66602C1.15782 8.66602 0.988255 8.73625 0.863231 8.86128C0.738207 8.9863 0.667969 9.15587 0.667969 9.33268V12.1413C0.668851 12.9875 1.00536 13.7987 1.60366 14.397C2.20196 14.9953 3.01318 15.3318 3.8593 15.3327H12.1433C12.9894 15.3318 13.8006 14.9953 14.3989 14.397C14.9972 13.7987 15.3338 12.9875 15.3346 12.1413V9.33268C15.3346 9.15587 15.2644 8.9863 15.1394 8.86128C15.0143 8.73625 14.8448 8.66602 14.668 8.66602Z" fill="#717171"/>
<path d="M4.47356 5.80387L7.33556 2.94187V11.3325C7.33556 11.5094 7.4058 11.6789 7.53082 11.8039C7.65584 11.929 7.82541 11.9992 8.00222 11.9992C8.17904 11.9992 8.3486 11.929 8.47363 11.8039C8.59865 11.6789 8.66889 11.5094 8.66889 11.3325V2.94187L11.5309 5.80387C11.6566 5.92531 11.825 5.99251 11.9998 5.99099C12.1746 5.98947 12.3418 5.91936 12.4654 5.79575C12.589 5.67215 12.6592 5.50494 12.6607 5.33014C12.6622 5.15534 12.595 4.98694 12.4736 4.86121L8.47356 0.861207C8.34854 0.736226 8.179 0.666016 8.00222 0.666016C7.82545 0.666016 7.65591 0.736226 7.53089 0.861207L3.53089 4.86121C3.40945 4.98694 3.34226 5.15534 3.34378 5.33014C3.34529 5.50494 3.41541 5.67215 3.53901 5.79575C3.66262 5.91936 3.82983 5.98947 4.00462 5.99099C4.17942 5.99251 4.34782 5.92531 4.47356 5.80387Z" fill="#717171"/>
</svg>
