<svg width="20" height="20" viewBox="0 0 20 20" fill="none" xmlns="http://www.w3.org/2000/svg">
<g clip-path="url(#clip0_5322_4354)">
<path d="M6.875 16.875C6.875 17.3723 6.67746 17.8492 6.32583 18.2008C5.97419 18.5525 5.49728 18.75 5 18.75C4.50272 18.75 4.02581 18.5525 3.67417 18.2008C3.32254 17.8492 3.125 17.3723 3.125 16.875C3.125 16.3777 3.32254 15.9008 3.67417 15.5492C4.02581 15.1975 4.50272 15 5 15C5.49728 15 5.97419 15.1975 6.32583 15.5492C6.67746 15.9008 6.875 16.3777 6.875 16.875ZM15.625 15C15.1277 15 14.6508 15.1975 14.2992 15.5492C13.9475 15.9008 13.75 16.3777 13.75 16.875C13.75 17.3723 13.9475 17.8492 14.2992 18.2008C14.6508 18.5525 15.1277 18.75 15.625 18.75C16.1223 18.75 16.5992 18.5525 16.9508 18.2008C17.3025 17.8492 17.5 17.3723 17.5 16.875C17.5 16.3777 17.3025 15.9008 16.9508 15.5492C16.5992 15.1975 16.1223 15 15.625 15ZM19.375 13.125V16.875H18.75C18.75 15.15 17.35 13.75 15.625 13.75C13.9 13.75 12.5 15.15 12.5 16.875H8.125C8.125 15.15 6.725 13.75 5 13.75C3.275 13.75 1.875 15.15 1.875 16.875H0.625V13.125C0.625 12.375 0.7875 11.225 0.99375 10.5L1.55625 8.53125C1.81875 7.6 2.7875 6.875 3.75 6.875H10C10.825 6.875 11.975 7.2875 12.6125 7.81875L15.3125 10.0688L17.7625 10.8875C18.6688 11.1875 19.375 12.1687 19.375 13.125ZM12.105 11.25H10.23V9.13312L7.895 12.5H9.77V14.6169L12.105 11.25ZM15.625 3.125V1.875H14.375V1.25H12.5C11.3387 1.25 10.3681 2.05 10.0887 3.125H6.25C5.21625 3.125 4.375 3.96625 4.375 5V5.625H5.625V5C5.625 4.83424 5.69085 4.67527 5.80806 4.55806C5.92527 4.44085 6.08424 4.375 6.25 4.375H10.0887C10.3681 5.45 11.3387 6.25 12.5 6.25H14.375V5.625H15.625V4.375H14.375V3.125H15.625Z" fill="#2D2D2D"/>
</g>
<defs>
<clipPath id="clip0_5322_4354">
<rect width="20" height="20" fill="white"/>
</clipPath>
</defs>
</svg>
