<svg width="30" height="30" viewBox="0 0 30 30" fill="none" xmlns="http://www.w3.org/2000/svg">
<g clip-path="url(#clip0_2155_3090)">
<path d="M12.3633 14.0625H17.6367V15.8203H12.3633V14.0625Z" fill="#008F37"/>
<path d="M24.3386 15.8197H19.3945V16.6986C19.3945 17.1844 19.0014 17.5775 18.5156 17.5775H11.4844C10.9986 17.5775 10.6055 17.1844 10.6055 16.6986V15.8197H5.66139C5.10797 15.8202 4.56848 15.6463 4.11951 15.3227C3.67053 14.9991 3.33487 14.5424 3.1602 14.0173L0 4.53516V23.7299C0 25.1838 1.18289 26.3666 2.63672 26.3666H27.3633C28.8172 26.3666 30 25.1837 30 23.7299V4.53586L26.8396 14.0173C26.665 14.5424 26.3294 14.9992 25.8805 15.3227C25.4315 15.6463 24.8921 15.8202 24.3387 15.8197H24.3386Z" fill="#008F37"/>
<path d="M18.5151 0H11.4838C10.03 0 8.84713 1.18289 8.84713 2.63672V3.51562H1.51172L4.8266 13.4617C4.88496 13.6367 4.99694 13.789 5.14667 13.8968C5.2964 14.0047 5.47628 14.0626 5.6608 14.0625H10.6049V13.1836C10.6049 12.6979 10.9981 12.3047 11.4838 12.3047H18.5151C19.0008 12.3047 19.394 12.6979 19.394 13.1836V14.0625H24.3381C24.7166 14.0625 25.0522 13.8213 25.1723 13.4617L28.4875 3.51562H21.1518V2.63672C21.1518 1.18283 19.969 0 18.5151 0ZM10.6049 3.51562V2.63672C10.6049 2.15174 10.9989 1.75781 11.4838 1.75781H18.5151C19.0001 1.75781 19.394 2.15174 19.394 2.63672V3.51562H10.6049Z" fill="#008F37"/>
</g>
<defs>
<clipPath id="clip0_2155_3090">
<rect width="30" height="30" fill="white"/>
</clipPath>
</defs>
</svg>
